<svg id="Group_427" data-name="Group 427" xmlns="http://www.w3.org/2000/svg" width="201.008" height="196.13" viewBox="0 0 201.008 196.13">
  <path id="Path_206" data-name="Path 206" d="M146.716,5346.059a7.118,7.118,0,0,1,1.86-.157c4.1.746,8.243,1.356,12.259,2.424a30.247,30.247,0,0,1,6.934,3.134c2.131,1.208,4.069,2.763,6.082,4.182,2.169,1.526,3.242,1.253,3.9-1.269.644-2.472,1.083-5,1.517-7.523,1.048-6.077,1.986-12.174,3.091-18.241a15.491,15.491,0,0,1,1.594-4.529c2.161-3.994,5.392-7.339,7.11-11.616a8.085,8.085,0,0,1,.82-1.16q1.294-2.045,2.552-4.112c1.828-2.98,3.382-6.176,5.548-8.884a21.63,21.63,0,0,0,3.781-7.546c.454-1.5.925-2.94-.379-4.387,1.447-.472,2.452-.118,2.993.824a24.361,24.361,0,0,1,3.247,8.411c.361,2.342.9,4.655,1.271,6.994a29.829,29.829,0,0,1,.409,4.5c.008,2.074-.216,4.146-.253,6.221a52.468,52.468,0,0,1,.045,5.362c-.394,3.2-1,6.38-1.627,9.544a13.869,13.869,0,0,1-3.535,7.046,16.145,16.145,0,0,0-1.02,1.266c.484,1.191,1.256,2.16,1.168,3.045-.266,2.7-1.043,5.356.569,7.952.258.419,0,1.315-.268,1.873a36.665,36.665,0,0,1-2.224,3.951,3.826,3.826,0,0,0-.459,3.5,4.5,4.5,0,0,1-.063,2.691c-1.126,3.022-1.677,6.376-4.49,8.52a.4.4,0,0,0-.14.243,5.664,5.664,0,0,1-3.367,4.483c-.108.05-.1.343-.163.6a3.857,3.857,0,0,0,3.75,1.992c4.841.094,9.684.3,14.526.287a2.3,2.3,0,0,1,2.412,1.474c1.634,3.217,1.053,6.574.175,9.72a33.453,33.453,0,0,1-3.58,7.41c-1.609,2.79-3.791,5.3-5.072,8.215a5.035,5.035,0,0,1-3.4,2.942c-.893.323-1.79.634-2.69.939a12.207,12.207,0,0,1-9.4-.471c-1.5-.686-2.379-1.623-2.311-3.19.175-4.093-1.258-7.847-2.229-11.707-.564-2.241-.91-4.538-1.429-7.191-1.848-.629-3.73-.284-5.686,1.53a61.857,61.857,0,0,1-7.323,5.358,3.33,3.33,0,0,1-2.121.637c-1.216-.181-1.863.456-2.755,1.049a9.453,9.453,0,0,1-3.851,1.5,24.747,24.747,0,0,1-5.362-.038c-3.369-.284-6.859.07-9.94-1.766a7.267,7.267,0,0,0-1.076.532c-3.379,2.452-6.7,4.984-10.136,7.353a24.67,24.67,0,0,1-4.54,2.322c-2.53,1.053-4.989,1.235-6.914-1.422a5.506,5.506,0,0,1-5.4.818,5.131,5.131,0,0,0-4.051.758c-2.194,1.15-4.465,2.292-6.9.818l-2.329,1.165-7.345-1.807a13.282,13.282,0,0,1,1.163-1.474c.9-.8,1.888-1.5,2.755-2.332,2.607-2.5,5.087-5.127,7.772-7.528,3.823-3.42,7.915-6.545,11.658-10.044,4.187-3.912,8.486-7.34,14.192-8.979,3.189-.919,6.273-1.746,9.481-1.115a22.066,22.066,0,0,0,13.074-1.661c.963-.4,1.993-.645,2.953-1.051,1.542-.651,3.1-1.313,3.635-2.708a85.845,85.845,0,0,1-6.293-6.482,27.745,27.745,0,0,1-3.319-5.954c-1.642-3.665-4.59-5.114-8.361-5.366a4.188,4.188,0,0,1-1.409-.076,7.107,7.107,0,0,1-1.381-1.126Zm54.946,44.678,2.61,2.864c2.4-1.408,2.321-3.336,3.121-4.765a16.249,16.249,0,0,0,1.008-1.928c.562-1.526.11-2.062-2.043-2.363l-1.161,2.4,2.219,1.887C204.477,5387.532,204.477,5387.532,201.662,5390.736Zm-74.871-3.3c-3.174.035-5.789,3.582-9.075,1.13-5.518,3.519-9.173,9.044-14.332,13.313a8.184,8.184,0,0,0,6.26-.485c1.436-.694,2.7-1.735,4.086-2.545,1.121-.654,2.311-1.19,3.47-1.783-.735,1.15-2.176,1.65-2.54,3.265-.153.673-1.665,1.038-2.657,1.6.82,1.172,1.875.617,2.6.323a32.72,32.72,0,0,0,14.277-10.474,4.64,4.64,0,0,0,.376-.971l-2.2-1.269-4.768,3.548Zm63.67-1.116c-.489-.773-1.181-.922-1.384.028a9.919,9.919,0,0,0-.145,3.849c.436,2.228,1.231,4.385,1.793,6.593.351,1.379.539,2.8.815,4.194.231,1.162-.411,2.738.948,3.375a15.469,15.469,0,0,0,5.067,1.533,6.188,6.188,0,0,0,5.292-2.576c1.722.287,2.645-1.121,3.48-2.06a25.526,25.526,0,0,0,5.45-8.84l-3.229-2.226c-2.419,2.156-3.033,4.379-1.331,7.178l-2.041-1.469-2.755,3.153c1.384,1.322.978,2.82.484,4.327-.74-.56-1.479-1.117-2.246-1.7l-3.2,1.278-1.221-3.153c1.782,1.064,2.893,1.04,3.936-.261-2.64-4.794-4.051-10.542-9.742-13.24Zm14.345-1.594c-1.023-1.543-2.311-1.423-3.522-1.531a3.452,3.452,0,0,1-3.144-1.881c2.525.2,4.437,2.264,6.934,1.409.075-1.061-1.193-2.324.712-3.4l1.391,4.216,1.687-.117c-.115-.562-.221-1.124-.346-1.682a18.851,18.851,0,0,1-.474-2.091c-.083-.823-.018-1.66-.018-2.783-4.412-.141-8.677-.278-13.112-.422-.649-1.61-.649-1.61-2.943-1.869,1.238-1.562.772-2.961-.148-4.437-1.334-2.141-2.5-4.383-3.713-6.53,1.206.084,2.264,1.063,3.42,3.181.852,1.559,1.74,3.1,2.587,4.6,3.668-1.521,7.218-7.447,6.661-10.92a6.49,6.49,0,0,1,.943-.873c1.279-.816,1.444-1.748.8-3.146a8.109,8.109,0,0,1-.7-3.525,3.981,3.981,0,0,1,1.193-2.136c1.572-1.747,1.893-3.229.534-4.981-.955-1.234-1.208-2.308-.358-3.6a1.462,1.462,0,0,0-.123-2.056,2.242,2.242,0,0,0-2.532-.835c-.687.271-1.349.609-2.174.987,1.123-1.83,3.008-3.248,3.966-4.329,2.249-2.534,5.23-4.68,5.686-9.162-1.93,1.676-3.44,2.982-4.941,4.3a13.539,13.539,0,0,1-1.918,1.69c-1.369.787-2.036,1.622-1.717,3.405.286,1.593-1,2.4-3.826,2.927l2.818-2.655c-2.971-.593-4,2.31-6.345,2.4v-2.741c2.041-1.771,4.325-3.355,5.568-6.1-.9-.558-1.838-.6-2.359.081-1.507,1.962-3.823,1.667-5.937,2.6-.075-1.363.877-1.558,1.482-1.984,1.472-1.037,3-2,4.445-3.07.85-.627,1.637-1.391,1.3-2.627-.4-1.467-1.715-.758-2.64-.988,1.223-2.419,2.467-2.184,4.565.936a13.315,13.315,0,0,0,1.572-1.52c3.73-4.971,6.528-9.2,7.8-15.744a33.42,33.42,0,0,0,.206-4.267c.128-2.059.346-4.114.421-6.172a2.816,2.816,0,0,0-.852-1.976c-.684,2.643-1.427,5.272-2.043,7.93-.925,3.993-3.367,7.152-5.583,10.438-.211.313-.594.537-.732.871a18.856,18.856,0,0,1-6.5,7.748c-.474.361-.634,1.126-.945,1.7-.175.326-.311.883-.549.931-2.978.6-3.437,3.163-4.312,5.409-.025.068-.155.094-.238.139-.444-2.254-.511-2.309.782-3.866,1.695-2.04,3.52-3.973,5.27-5.969a25.708,25.708,0,0,0,2.918-3.87c-2.805.311-4.558,2.188-6.721,4.014.13-.5.1-1.227.421-1.459,2.211-1.6,4.237-3.54,7.145-3.941a3.923,3.923,0,0,0,1.78-1.132c3.512-3.18,4.362-7.7,5.771-11.889a52.594,52.594,0,0,0,1.913-8,8.243,8.243,0,0,0-.669-4.09c-.193.5-.421.979-.572,1.485a20.7,20.7,0,0,1-3.567,6.736c-2.354,3.063-4.778,6.145-6.115,9.87a8.189,8.189,0,0,1-.81,1.5c-2.78,4.511-5.686,8.948-8.3,13.554a21.371,21.371,0,0,0-2.281,6.357c-1.514,7.725-2.78,15.5-4.234,23.238a14.36,14.36,0,0,1-1.5,3.974c-.86,1.624-1.986,1.779-3.52.727-2.344-1.607-4.663-3.255-7.045-4.81-1.106-.721-2.332-1.261-3.49-1.876a3.974,3.974,0,0,0-.817.4c-1.509,1.264-2.354,1.259-2.908-.456-.466-1.446-1.133-1.5-2.56-1.062,1.833,3.27,3.427,6.593,5.49,9.6,1.078,1.572,2.976,2.582,4.505,3.847,1.063.878,2.5,1.511,1.64,3.414-.2.436.261,1.269.587,1.817a23.422,23.422,0,0,1,1.893,2.831c1.449,3.631,4.3,5.693,7.681,7.214,2.753,1.244,5.556,2.38,8.281,3.68a32.325,32.325,0,0,1,2.69,1.929c1.073.664,2.221,1.2,3.735,2.009l7.127,13,2.878-4.654c-1.163-1.7-1.833-3.667-4.42-3.145.765-2.083-.8-3.073-2.166-3.953a4.4,4.4,0,0,1-2.249-3.239c1.028.861,1.617,1.313,2.151,1.82.552.521,1.06,1.087,1.567,1.654.619.694,1.143,1.771,2.261,1.326a2.41,2.41,0,0,0,1.788-2.6c-.02-.168.118-.354.183-.531l-.048.032Zm-70.75-3.948a9.6,9.6,0,0,1,6.393.205c1.429.59,2.682.59,3.753-.925l.434.42-.88,4.616c3.6-.021,3.781-.416,4.753-5.284l1.06,2.643a6.631,6.631,0,0,0,1.63-1.174,7.458,7.458,0,0,0,.652-2.1,4.957,4.957,0,0,1,.529,3.966c-.128.835-.223,1.7.7,1.814a2.466,2.466,0,0,0,1.843-.932,7.276,7.276,0,0,0,1.223-5.636c2.1.426,1.005,1.957,1.226,3,1.532-1.323,1.532-1.323,1.06-4.34-1.442.141-2.9.28-4.791.467.985-1.2,1.522-2.089,3.194-1.7a20.578,20.578,0,0,0,4.477.066l-.358,4.222c-.4.042-.988-.07-1.213.168-1.281,1.34-2.454,2.782-3.7,4.161-1.512,1.678-2.59,1.974-4.47.713a3.316,3.316,0,0,0-3.715-.041,2.184,2.184,0,0,0-1.1,2.678c.318,1.228,2.234-.183,1.945,1.567,1.888-.021,2.319,1.988,3.733,2.667a8.153,8.153,0,0,0,6.854.278,5.174,5.174,0,0,1,4.668.086c1.579-.971,3.159-1.947,5.149-3.172a4.047,4.047,0,0,1,1.018.386,2.13,2.13,0,0,0,2.818-.529,15.564,15.564,0,0,1,5-3.547c1.532-.645,2.635-2.3,4.114-3.687-1.787-1.038-3.532-2.128-5.347-3.088a12.965,12.965,0,0,1-5.982-5.87c-.765-1.589-1.737-3.084-2.755-4.866a8.924,8.924,0,0,0-1.97.566c-7.458,4.108-15.571,5.436-23.922,5.366a13.38,13.38,0,0,0-8.8,3.381,14.463,14.463,0,0,0-2.128,2.795l.459.688A9.529,9.529,0,0,0,134.056,5380.773Zm63.7-48.807a24.643,24.643,0,0,0-2.216,3.2c3.1-1.861,5.9-3.739,8-7.052a45,45,0,0,0,5.816-14.405,55.156,55.156,0,0,0,.882-7.9,8.58,8.58,0,0,0-.692-2.343c-.649,3.294-1.254,5.959-1.657,8.655-.125.829.3,1.742.584,3.167l-11.1,12.6C199.158,5329.824,199.193,5329.992,197.751,5331.967ZM135,5391.621c-.391.05-.747.533-1.073.865-.923.939-1.823,1.9-2.8,2.929l1.274,1.5-3.793,3.248a1.55,1.55,0,0,0,1.963,1.438c1.369-.232,3.279-.328,3.906-1.223,1.276-1.815,3.232-2.562,4.781-3.879,1.747-1.484,2.442-2.963,1.614-5.418C138.832,5391.255,136.909,5391.375,135,5391.621Zm79.725-6.453a8.726,8.726,0,0,0,.627-6.431,1.971,1.971,0,0,0-1.983-1.7c-1.03-.028-2.061,0-3.159,0v7.252Zm-90.568-.614c-.757,1.214-2.171,2.018-3.495,3.182,1.95.407,3.407-.509,4.884-1.066,2.118-.794,4.182-1.751,6.227-2.72a8.387,8.387,0,0,0,1.577-1.333l-5.307-1.5A9.553,9.553,0,0,0,124.161,5384.554Zm86.519.614c-2.873,2.518-2.55,3.654,1.868,6.006l2.294-4.457ZM131,5390.711c-1.326,1.582-2.562,3.239-3.776,4.912-.231.317-.173.849-.261,1.36,2.036-.643,6.062-4.657,7.859-7.774A4.471,4.471,0,0,0,131,5390.711Zm7.09-6.628c-3.176-.782-3.387-.62-4.585,3.725C136.681,5388.269,137.19,5385.987,138.092,5384.083Zm5.924,3.028a5.805,5.805,0,0,0-6.2,2.228c.579-.311,1.146-.835,1.745-.874a6.689,6.689,0,0,1,2.093.547C142.447,5388.374,143.232,5387.743,144.016,5387.111Zm-15.293.883c2.522.775,2.745.639,3.658-2.31C130.719,5385.9,129.235,5386.065,128.724,5387.994Zm78.935-63.244a3.858,3.858,0,0,0,1.589-4.423A5.87,5.87,0,0,0,207.659,5324.75Zm-73.645,56.894c1.69,1.433,1.69,1.433,4.342,0Zm8.233,14.287,2.916-2.465C143.382,5393.291,142.337,5394.022,142.246,5395.931ZM140.6,5385.9c1.592.133,2.091-.271,2.061-1.822Zm.5-2.174c-1.309.275-1.309.275-2.018,1.694Zm-15.882,15.56-.128-.39a3.025,3.025,0,0,0-.985.186,3.357,3.357,0,0,0-.714.755l.363.464Zm18.888-8.9-.484-.436-1.379,1.479.5.459Z" transform="translate(-67.957 -5286.165)"/>
  <path id="Path_207" data-name="Path 207" d="M133.307,5358.438l-3.089-1.124a3.764,3.764,0,0,1-4.553,2.086,17.924,17.924,0,0,0-3.863.039c-.283,1.811.138,2.728,1.752,2.835,1.672.113,3.342.24,5.014.359.186.011.416-.074.552.007,1.236.731,2.454,1.494,3.816,2.329-.827.917-1.489.576-2.189.3a34.041,34.041,0,0,0-11.444-1.994,1.505,1.505,0,0,0-1.166.585l5.067.7c-5.937.461-11.916-.757-17.78,1.07,5.48,2.178,11.474,1.435,17.048,3.449a7.365,7.365,0,0,1-1.389.1c-4.157-.454-8.316-.9-12.465-1.424-2.244-.283-4.455-.837-6.7-1.043-1.792-.163-3.176.9-4.5,2.061,3.487,2.583,17.712,3.924,23.26,2.2l3.75,4.243a12.826,12.826,0,0,0-1.354-.616c-2.078-.583-4.154-1.6-6.245-1.635a113.362,113.362,0,0,1-17.283-1.779c-1.582-.274-3.151-.634-4.741-.845-2.224-.294-2.976,1.5-4.54,3.2,3.44.243,6.318.438,9.2.648,1.2.089,2.61-.148,3.552.4,1.439.837,2.888.665,4.352.833,3.016.339,6.064.493,9.035,1.066,5.1.983,9.955.177,14.776-1.406a9.754,9.754,0,0,0,5.45-4.775c3.349-5.886,8.882-8.717,15.037-10.372,2.269-.611,4.859-.095,7.3.033.476.024.918.645,1.168,1.368-1.92-.143-3.841-.4-5.761-.4a9.609,9.609,0,0,0-5.621,1.585,11.562,11.562,0,0,1,6.794,4.349,9.993,9.993,0,0,0,13.132,3.031,15.391,15.391,0,0,1,10.394-1.891,6.423,6.423,0,0,0,1.424.015,6.328,6.328,0,0,0,1.1-.312l-1.978-2.275c2.071-1.68,2.071-1.68,4.505-.791-.6-2.267-1.106-4.406-3.46-5.2-2.234-.75-2.958,1.409-4.091,2.612-.258-.2-.524-.314-.529-.429-.083-3.585-.01-3.705-3.918-5.894-3.048-1.705-6.255-3.149-9.461-4.551-2.565-1.124-5.109-1.863-7.982-.326-1.131.6-2.941-.068-4.513-.159l1.467-.963c-1.183-1.792-2.314-3.412-3.342-5.092-.85-1.387-2.018-1.5-3.74-1.123l2.2,2.817-.384.372c-1.078-.976-2.186-1.92-3.221-2.937a1.786,1.786,0,0,0-2.843-.1,7.833,7.833,0,0,0,3.866,4.236,5.145,5.145,0,0,1,2.878,3.786h-3.154l.163,2.067h-3.51l1.457,1.566c-.19.156-.356.372-.436.345-1.426-.5-2.82-1.1-4.267-1.537-1.213-.362-1.238-.281-1.765,1.258l2.189-.272c-1.968,1.8-2.876,1.822-4.5.485.366.044.717.094.963.128l.572-3.209c-1.248-.641-2.552-1.222-3.768-1.951a26.138,26.138,0,0,1-3.976-2.72c-1.271-1.132-1.038-2.066.471-2.845a9.311,9.311,0,0,1,1.843-.746,67.326,67.326,0,0,1,6.892-1.74c3.164-.509,6.373-.746,9.569-1.042,2.141-.2,3.357.82,3.763,2.951a5.2,5.2,0,0,0,.955,2.057c1.038,1.384,2.141,2.705,4.242,1.936a6.645,6.645,0,0,1,1.978-.1c4.493-.145,8.228,1.953,11.983,4.016a5.689,5.689,0,0,0,2.555,1.08c1.988-.089,3.43.857,4.944,1.87a15.667,15.667,0,0,0,3.437,1.888c3.176,1.1,5.483,2.891,5.989,6.435.145,1.015.374,2.021.574,3.082,3.314.088,3.066,2.583,3.206,4.472a48.184,48.184,0,0,0,5.24,4.253,2.722,2.722,0,0,1,1.379,3.334,15.264,15.264,0,0,1-.928,2.387,2.054,2.054,0,0,0,.73,2.722c2.7,2.128,5.31,4.375,7.651,6.323.105,1.594.158,2.718.261,3.838.143,1.593.667,3.263-1.008,4.431-1.757,1.228-3.1-.235-4.385-.911-3.946-2.059-7.717-4.447-11.663-6.51-2.186-1.144-3.555-2.559-3.886-5.119-.9-7.051-4.778-12.205-10.732-16.142-.807.426-1.617.911-2.469,1.295-4.818,2.173-10.068,1.94-14.232-2.076-.629-.605-1.71-1.342-2.389-1.187a5.863,5.863,0,0,1-6.21-1.914l.286-2.715c-1.6.852-2.77,1.384-3.846,2.066-2.306,1.465-3.71,3.742-5.32,5.873-1.291,1.709-2.763,3.637-4.605,4.5-5.23,2.457-10.8,3.6-16.629,2.375a37.919,37.919,0,0,0-5.31-.984c-6.16-.376-12.332-.824-18.494-.778a7.557,7.557,0,0,1-5.337-2.228c1.394-1.72,2.66-3.347,4.009-4.9a3.334,3.334,0,0,1,1.414-.759,15.487,15.487,0,0,0,3.194-1.05c4.031-2.585,8.707-3.174,13.174-4.37a33.986,33.986,0,0,1,5.613-.685c1.6-.148,3.2-.209,4.565-.293.564-1.271.757-2.844,1.494-3.17a27.282,27.282,0,0,1,7.965-2.477,14.466,14.466,0,0,0,4.332-.7C132.089,5356.517,132.455,5357.335,133.307,5358.438Zm68.656,35.172c-1.66-1.513-3.337-3.166-5.794-3.346-1.652-.12-2.319-1.068-2.276-2.78-.464-.1-.915-.176-1.351-.3s-.845-.294-1.206-.42c-.12-1.905,1.66-1.378,2.377-2.125.133-1.961-.775-2.969-2.642-3.4a13.663,13.663,0,0,1-2.7-1.274l.216-.55c1.594.487,3.186.976,4.891,1.494.85-.97,1.793-1.984,1.281-3.453-.536-1.538-1.86-.079-2.918-.692-.228-1.5-.617-3.049-2.552-3.757-.584-.215-.89-1.548-1.078-2.42-.461-2.162-.6-2.327-3.3-2.456l1.289,5.341-3.939-.407v2.914l-2.442-2.553c0,.587-.123,1,.02,1.3,1.1,2.3,2.324,4.547,3.367,6.876a11.514,11.514,0,0,1,.963,3.535c.236,2.46,1.615,3.892,3.7,4.96,3.121,1.6,6.187,3.3,9.263,4.982,1.279.7,2.522,1.466,4.024,2.344C202.826,5396.273,203.26,5394.8,201.964,5393.61Zm-68.875-47.531a6.709,6.709,0,0,0-2.136-.246c-.78,1.213,1.828,2.306-.73,3.061,2.472,1.333,4.653,2.651,6.954,3.711,1.89.875,2.595.394,3.465-1.85C138.938,5347.894,135.824,5347.269,133.089,5346.079Zm4.58-2.34-3.277.85c1.391,1.172,2.264,2.442,3.4,2.761,2.565.717,3.933,4.03,7.814,2.953C142.9,5348.063,140.48,5346.064,137.669,5343.739Zm44.76,24.458c-.855,2.055-.855,2.055,1.627,3.44Zm-31-1.728a5.236,5.236,0,0,0,1.023-.771c-.632-.107-.933-.261-1.1-.17a20.118,20.118,0,0,0-1.74,1.259A12.572,12.572,0,0,0,151.43,5366.47Z" transform="translate(-87.522 -5202.815)"/>
  <path id="Path_208" data-name="Path 208" d="M194.294,5362.363c-.364-2.245-.614-3.993-.978-5.719-.038-.173-.777-.2-1.191-.287-3.079-.726-6.155-1.45-9.12-2.147l-2.3,2.064.083.079c.745-2.507-1.657-3.745-2.692-5.912l2.472.369c-.065-3.677-.4-4.265-3.013-4.612a4.188,4.188,0,0,0-3.941,1.62c-1.722,2.075-3.542,4.067-5.42,6.21.193-.729.356-1.363.529-1.99.338-1.237.757-2.457,1.013-3.711.389-1.929-1.512-2.137-2.434-3.09-1.053-1.083-2.053-2.222-3.074-3.334-1.677.685-2.432-1.037-3.68-1.4-1.976-.564-3.4-1.568-3.753-3.668-4.914.44-9.642.868-14.463,1.3.419,1.525,1.311,2.187,2.555,1.7,2.855-1.12,5.831-.4,8.729-.779a5.617,5.617,0,0,1,1.637.3c-2.384.781-4.916.146-7.067,1.3.742,2.662,3.094,2.727,4.916,3.807l-4.179-.487c2.8,2.273,9.627,3.476,12.873,2.255-1.883-2.1-4.681-.785-6.739-2.127,1.2.064,2.389.131,3.53.194l1.62-2.461c1.218,3.676,4.866,4.066,6.974,6.417l-4.049-1.464-2.224,1.744c.562,1.842,2.973.009,3.374,1.933-.92,1.359-2.2.366-3.324.465.852,2.817,3.735,1.559,5.906,2.99l-3.821.8c.815,2.464,3.733,1.124,4.909,2.784-.521,1.047-2.65-.046-2.244,1.895,1.329.854,2.66,1.7,3.838,2.457l-3.247,9.364-1.73-.273.063.085q-2.828-2.208-5.651-4.418l3.136.946c.374-.6,1.249-1.463.446-2.236-.664-.645-1.88-.717-2.675-.985l-1-3.91c-2.454.207-2.713.546-1.89,2.233.664,1.353,1.371,2.685,2.061,4.028l-3.161-2.716-.358.271,4,5.5a12.048,12.048,0,0,1-5.032-5.593c-1.143-2.811.045-4.477,3.074-4.858,1.82-.228,3.605-.733,5.628-1.163-1.737-2.523-2.637-5.084-4.959-6.611a6.7,6.7,0,0,1-2.156-1.729,6.335,6.335,0,0,1-.4-2.441c-2.279-.663-4.475-1.269-6.646-1.954a1.5,1.5,0,0,1-1.241-1.5c-.266-2.074-1.018-2.409-3.532-2.641l.223,1.72c-2.449-1.848-4.8-3.184-5.405-6.386.531,0,.882-.015,1.233,0,1.675.087,3.492.65,4.994.186,3.582-1.113,7.218-1.126,10.868-1.345,1.554-.092,3.1-.409,4.56-.614.765.506,1.564.981,2.309,1.535.431.322.98.7,1.118,1.164,1.073,3.587,3.5,5.788,6.794,7.4a3.188,3.188,0,0,0,3.665-.286c1.384-.983,2.65-2.145,4.084-3.042a52.441,52.441,0,0,1,6.4-3.527,2.8,2.8,0,0,1,2.452.771c.875.944.02,1.8-.852,2.261-2.073,1.087-2.886,3.135-4.024,4.953-2.126,3.4-.948,6.563,2.981,7.5,2.672.634,5.438.872,8.125,1.457,2.018.438,4.4.641,5.846,1.867,1.707,1.451,2.77,3.8,3.765,5.919,1.722,3.683,3.149,7.5,4.761,11.238.634,1.478,1.389,2.908,2.166,4.313a2.208,2.208,0,0,1,.023,2.663c-.717.87-1.562.306-2.319-.072-1.615-.8-3.216-1.633-4.826-2.449-.822-.417-1.885-.624-2.432-1.271-2.324-2.744-4.5-5.615-7.085-8.9-6.25-1.459-13.1-3.055-19.87-4.634-1.652,3.621-2.159,7.287-4.33,10.5l-3.011-1.412c2.334-.113,3.412-1.37,4.046-3.289a32.947,32.947,0,0,1,1.642-4.254c.639-1.31.81-2.418-1.025-3.548,3.013-1.064,3.9,2.466,6.343,1.8.97-.453.659-2.414,2.246-2.73l.639,3.375,1.487-3.662,1.549,3.016,1.735-2.445c1.542,1.484-1.885,3.144.569,4.56l.657-2.251,4.011.343.456-1.824-4.808-2.683a10.849,10.849,0,0,1,.474-1.05c.243-.44.547-.85.935-1.44.928,1.166.958,2.887,2.55,2.842l2.184-3.22C192.045,5358.381,191.469,5360.6,194.294,5362.363Zm.689,1.083a4.437,4.437,0,0,0-.454,1.091c-.02.217.193.459.371.835l1.457-.759c-.2,2.912,1.592,5.336,2.108,8.089.053.285.81.44,1.86.963-.609-1.535-.993-2.447-1.334-3.373-.411-1.124-.707-2.3-1.2-3.385a16.455,16.455,0,0,0-1.479-2.236Zm6.014-1.9c-.7,1.682-1.306,2.944-1.765,4.262-.526,1.515.06,2.752,1.3,3.893a6.9,6.9,0,0,1,1.351,2.3c.594,1.322,1.091,2.687,1.63,4.033l.7-.219C206.533,5370.471,203.387,5366.3,201,5361.549Zm-4.525,1.329c.464.485,1.334,1.082,1.8.934.514-.165.953-1.078,1.111-1.738.727-3.044-.72-4.7-4.638-5.271C195.038,5358.955,194.845,5361.177,196.472,5362.878Zm12.357,16.652a8.93,8.93,0,0,0-2.2-5.456C205.275,5377.8,205.565,5378.518,208.829,5379.53Zm-44.577-18.761c-1-1.705-1-1.705-3.916-.775C161.207,5362.911,161.44,5362.95,164.253,5360.77Zm-5.771-23.071a3.93,3.93,0,0,0,3.828,1.837C161.084,5336.754,161.059,5336.745,158.481,5337.7Zm6.578,31.886c.509-.1.877-.909,1.309-1.405-.454-.364-.928-1.05-1.354-1.02-.594.037-1.153.61-2.329,1.321C163.894,5369.083,164.546,5369.685,165.06,5369.584Zm26.722-3.268c1.953-.887,2.006-1.364,0-3.553Zm-23.927-5.053c-1.667.607-1.988,1.242-1.8,2.161l.707.285Z" transform="translate(-9.794 -5212.849)"/>
  <path id="Path_209" data-name="Path 209" d="M156.8,5343.455l-1.78,1.04c1.138.311,1.527-.281,1.7-1.12Z" transform="translate(14.197 -5199.95)"/>
  <path id="Path_210" data-name="Path 210" d="M145.527,5337.622l-1.805-.146-.033.352,1.805.13Z" transform="translate(-2.879 -5208.838)"/>
  <path id="Path_211" data-name="Path 211" d="M150.2,5349.309l-1.522.424,1.467.886c0-.65,0-1.017-.005-1.387Z" transform="translate(4.641 -5191.125)"/>
  <path id="Path_212" data-name="Path 212" d="M145.492,5311.2c-1.62,2.116-3.981,1.971-6.11,2.677,2.8,1.35,5.508.084,7.4-3.555a16.014,16.014,0,0,0-2.434-.371,30.7,30.7,0,0,0-3.971.263c-1.482.2-2.813.132-3.853-1.136-.115-.142-.5-.062-1.161-.117.5.725.862,1.194,1.163,1.7.333.562.612,1.158.649,1.228-.732,3.345-1.351,6.188-2.018,9.239l-2.7.533,1.376,2.794,2.863-3.358c1.873,1.164,1.873,1.164,1.085,2.724,3.2.247,1.213-2.362,1.991-3.55l-2.8-.519,1.512-8.21C140.849,5310.731,143.025,5310.128,145.492,5311.2Z" transform="translate(-19.796 -5251.811)"/>
  <path id="Path_213" data-name="Path 213" d="M135.414,5306.663l-1.259.434,1.076,4.777c.318.023,1.1.076,2.662.181-2.284-1.652-2.219-3.58-2.479-5.4Z" transform="translate(-17.245 -5255.281)"/>
  <path id="Path_214" data-name="Path 214" d="M137.569,5323.922l-2.758-4.406C133.821,5321.468,134.378,5322.46,137.569,5323.922Z" transform="translate(-16.928 -5235.905)"/>
  <path id="Path_215" data-name="Path 215" d="M134.99,5312.588c.93.88,3.061.539,2.509,2.646,1.173.15,1.64-.405,1.4-1.447C138.618,5312.523,137.364,5312.144,134.99,5312.588Z" transform="translate(-15.988 -5246.613)"/>
  <path id="Path_216" data-name="Path 216" d="M136.764,5323.854l-3.535-2.767C133.121,5322.853,133.206,5322.928,136.764,5323.854Z" transform="translate(-18.68 -5233.535)"/>
  <path id="Path_217" data-name="Path 217" d="M144.515,5327.212l-5.049-2.075c1.256,1.73,2.4,2.151,5.082,2.053A.366.366,0,0,1,144.515,5327.212Z" transform="translate(-9.243 -5227.434)"/>
  <path id="Path_218" data-name="Path 218" d="M134.959,5308.192l.138-2.553-.639.035q.252,1.26.5,2.523Z" transform="translate(-16.79 -5256.816)"/>
  <path id="Path_219" data-name="Path 219" d="M130.809,5332.244v-7.159l1.755.906c-1.65-1.564,1.279-4.736-2.409-5.92l1.123,2.652c-2.093.2-3.951.373-5.806.55l-.035.33,2.4.646c.4,1.545,1.141,3,1.055,4.4-.093,1.563,2.106,2.075,1.008,3.808Z" transform="translate(-30.384 -5235.07)"/>
  <path id="Path_220" data-name="Path 220" d="M126.985,5327.6c.02-3.528.02-3.528-1.554-5.408Z" transform="translate(-30.393 -5231.878)"/>
  <path id="Path_221" data-name="Path 221" d="M118.9,5323.285c1.171.4,1.978.211,2.241-1.139C119.9,5321.694,119.543,5322.816,118.9,5323.285Z" transform="translate(-40.234 -5232.1)"/>
  <path id="Path_222" data-name="Path 222" d="M136.665,5326.118c-1.068,1.471.02,2.8.241,4.2a16.516,16.516,0,0,0,2.276,6.184c.469-4.165-1.7-7.105-2.537-10.384C136.635,5326.1,136.665,5326.118,136.665,5326.118Z" transform="translate(-14.161 -5225.968)"/>
  <path id="Path_223" data-name="Path 223" d="M137.921,5331.2c.531,1.814,0,4.077,2.184,5.708C140.323,5334.307,138.307,5333.045,137.921,5331.2Z" transform="translate(-11.571 -5218.292)"/>
  <path id="Path_224" data-name="Path 224" d="M105.485,5350.822l2.552,1.926.17-1.844,5.172,1.059c-1.106-1.466-1.973-2.618-2.855-3.79-1.416.632-1.416.632-1.467,2.064l-3.369-.2Z" transform="translate(-60.452 -5192.72)"/>
  <path id="Path_225" data-name="Path 225" d="M108.758,5348.163l4.345,2.985a6.883,6.883,0,0,0-2.715-3.55C110.225,5347.481,109.736,5347.812,108.758,5348.163Z" transform="translate(-55.52 -5193.622)"/>
  <path id="Path_226" data-name="Path 226" d="M111.91,5347.083c-1.254.772-1.254.772-.925,2.083Z" transform="translate(-52.442 -5194.362)"/>
  <path id="Path_227" data-name="Path 227" d="M102.543,5352.653l-.125-1.233a3.641,3.641,0,0,0-.694.143,9.3,9.3,0,0,0,.165,1.2Z" transform="translate(-66.121 -5187.826)"/>
  <path id="Path_228" data-name="Path 228" d="M103.732,5351.611l1.487.115.013-.278h-1.489Z" transform="translate(-63.094 -5187.784)"/>
  <path id="Path_229" data-name="Path 229" d="M125.793,5355.626l5.3,6.751c-.231-2.883-2.2-4.161-3.116-5.969C127.794,5356.037,126.926,5356.007,125.793,5355.626Z" transform="translate(-29.848 -5181.488)"/>
</svg>
