<svg xmlns="http://www.w3.org/2000/svg" xmlns:xlink="http://www.w3.org/1999/xlink" width="125.443" height="125.443" viewBox="0 0 125.443 125.443">
  <defs>
    <style>
      .cls-1 {
        fill: url(#linear-gradient);
      }

      .cls-2 {
        fill: #fff;
      }
    </style>
    <linearGradient id="linear-gradient" x1="-0.113" y1="0.025" x2="1.229" y2="0.908" gradientUnits="objectBoundingBox">
      <stop offset="0" stop-color="#ff6000"/>
      <stop offset="0.512" stop-color="#ff475c"/>
      <stop offset="1" stop-color="#ff3c87"/>
    </linearGradient>
  </defs>
  <g id="Group_1066" data-name="Group 1066" transform="translate(1441 -7234.905)">
    <rect id="Rectangle_818" data-name="Rectangle 818" class="cls-1" width="125.443" height="125.443" rx="62.721" transform="translate(-1441 7234.905)"/>
    <g id="Group_1061" data-name="Group 1061" transform="translate(-1412.868 7274.546)">
      <path id="Path_1645" data-name="Path 1645" class="cls-2" d="M6636.547,1873.356c0,2.24.009,4.336,0,6.431a6.21,6.21,0,0,1-6.478,6.436c-14.854.006-29.709-.027-44.563.025a6.443,6.443,0,0,1-6.516-6.517c.06-5.563.014-11.128.014-16.692,0-6.392.015-12.784-.006-19.176a6.074,6.074,0,0,1,3.492-5.914,6.634,6.634,0,0,1,2.835-.647q22.474-.059,44.951-.019a6.164,6.164,0,0,1,6.271,6.313c.016,2.141,0,4.282,0,6.538.34-.159.569-.258.792-.37,3.576-1.808,7.144-3.633,10.728-5.423a4.323,4.323,0,0,1,6.208,2.676,5.344,5.344,0,0,1,.153,1.455q.013,13.276,0,26.552a4.385,4.385,0,0,1-6.556,4.047c-3.512-1.762-7.006-3.558-10.509-5.338C6637.141,1873.618,6636.907,1873.52,6636.547,1873.356Zm-28.8,9.735v0q11.061,0,22.122,0c2.439,0,3.544-1.125,3.547-3.578q.007-5.161,0-10.323,0-12.768,0-25.536a3,3,0,0,0-3.247-3.243c-.491,0-.983,0-1.475,0q-21.657,0-43.313,0a2.921,2.921,0,0,0-3.2,2.937q-.017,18.4.014,36.793a3.341,3.341,0,0,0,.452,1.524,2.987,2.987,0,0,0,2.9,1.426Q6596.642,1883.088,6607.743,1883.091Zm43.557-21.306q0-6.677,0-13.355c0-1.3-.784-1.784-1.929-1.209-4.066,2.04-8.125,4.093-12.2,6.118a.948.948,0,0,0-.608,1q.032,7.377,0,14.753a1,1,0,0,0,.628,1.068c4,2,7.988,4.03,11.983,6.044,1.305.658,2.123.156,2.124-1.3Q6651.3,1868.346,6651.3,1861.785Z" transform="translate(-6578.987 -1837.27)"/>
    </g>
  </g>
</svg>
