<svg xmlns="http://www.w3.org/2000/svg" width="37.772" height="37.772" viewBox="0 0 37.772 37.772">
  <defs>
    <style>
      .cls-1 {
        fill: #707070;
      }

      .cls-2 {
        fill: #fff;
      }
    </style>
  </defs>
  <g id="Group_1074" data-name="Group 1074" transform="translate(-1487.986 28.823)">
    <ellipse id="Ellipse_35" data-name="Ellipse 35" class="cls-1" cx="14.455" cy="14.455" rx="14.455" ry="14.455" transform="translate(1487.986 -17.76) rotate(-22.5)"/>
    <g id="Group_407" data-name="Group 407" transform="translate(1497.341 -19.515)">
      <ellipse id="Ellipse_37" data-name="Ellipse 37" class="cls-2" cx="1.123" cy="1.123" rx="1.123" ry="1.123" transform="translate(13.525 3.42)"/>
      <path id="Path_1360" data-name="Path 1360" class="cls-2" d="M325.218,494.753a4.717,4.717,0,1,0,4.717,4.717A4.723,4.723,0,0,0,325.218,494.753Zm0,7.739a3.022,3.022,0,1,1,3.022-3.022A3.025,3.025,0,0,1,325.218,502.492Z" transform="translate(-315.562 -489.893)"/>
      <g id="Group_406" data-name="Group 406" transform="translate(0 0)">
        <path id="Path_1361" data-name="Path 1361" class="cls-2" d="M320.2,500.423h-7.647a5.76,5.76,0,0,1-5.753-5.753v-7.648a5.76,5.76,0,0,1,5.753-5.753H320.2a5.76,5.76,0,0,1,5.754,5.753v7.648A5.76,5.76,0,0,1,320.2,500.423Zm-7.647-17.352a3.956,3.956,0,0,0-3.951,3.951v7.648a3.956,3.956,0,0,0,3.951,3.951H320.2a3.956,3.956,0,0,0,3.952-3.951v-7.648a3.956,3.956,0,0,0-3.952-3.951Z" transform="translate(-306.798 -481.268)"/>
      </g>
    </g>
  </g>
</svg>
