<svg xmlns="http://www.w3.org/2000/svg" width="52.629" height="52.629" viewBox="0 0 52.629 52.629">
  <defs>
    <style>
      .cls-1 {
        fill: #ffffff;
      }

      .cls-2 {
        fill: #2b2b2b;
        fill-rule: evenodd;
      }
    </style>
  </defs>
  <g id="Group_1885" data-name="Group 1885" transform="translate(-8678.537 -14084.617)">
    <g id="Group_1875" data-name="Group 1875" transform="translate(8678.537 14084.617)">
      <circle id="Ellipse_34" data-name="Ellipse 34" class="cls-1" cx="18.607" cy="18.607" r="18.607" transform="translate(0 26.314) rotate(-45)"/>
      <g id="Group_404" data-name="Group 404" transform="translate(14.443 14.442)">
        <path id="Path_1357" data-name="Path 1357" class="cls-2" d="M192.221,381.273a11.87,11.87,0,0,0-9.976,18.306l-1.8,3.973a1.037,1.037,0,0,0,.944,1.466,1.026,1.026,0,0,0,.274-.037l4.969-1.363a11.871,11.871,0,1,0,5.592-22.343Zm0,21.67a9.787,9.787,0,0,1-4.933-1.334,1.041,1.041,0,0,0-.8-.1l-3.246.891,1.131-2.491a1.037,1.037,0,0,0-.1-1.035,9.8,9.8,0,1,1,7.95,4.074Z" transform="translate(-180.349 -381.273)"/>
        <path id="Path_1358" data-name="Path 1358" class="cls-2" d="M203.836,402.376a2.03,2.03,0,0,0-1.73-.39c-.449.184-.736.887-1.027,1.247a.431.431,0,0,1-.557.121,7.834,7.834,0,0,1-3.91-3.349.48.48,0,0,1,.061-.655,2.646,2.646,0,0,0,.71-1.153,2.52,2.52,0,0,0-.318-1.365,3.237,3.237,0,0,0-1.008-1.519,1.381,1.381,0,0,0-1.5.223,3.045,3.045,0,0,0-1.055,2.412,3.418,3.418,0,0,0,.1.765,6.348,6.348,0,0,0,.734,1.692,13.379,13.379,0,0,0,.766,1.165,11.83,11.83,0,0,0,3.325,3.087,10.04,10.04,0,0,0,2.073.986,4.605,4.605,0,0,0,2.413.381A2.921,2.921,0,0,0,205.1,404.4a1.412,1.412,0,0,0,.1-.83C205.074,402.993,204.3,402.653,203.836,402.376Z" transform="translate(-187.4 -388.726)"/>
      </g>
    </g>
  </g>
</svg>
