<svg xmlns="http://www.w3.org/2000/svg" width="52.629" height="52.629" viewBox="0 0 52.629 52.629">
  <defs>
    <style>
      .cls-1 {
        fill: #fff;
      }

      .cls-2 {
        fill: #2b2b2b;
      }
    </style>
  </defs>
  <g id="Group_1886" data-name="Group 1886" transform="translate(-8738.84 -14084.617)">
    <circle id="Ellipse_36" data-name="Ellipse 36" class="cls-1" cx="18.607" cy="18.607" r="18.607" transform="translate(8738.84 14110.932) rotate(-45)"/>
    <g id="Group_409" data-name="Group 409" transform="translate(8753.109 14103.942)">
      <g id="Group_408" data-name="Group 408" transform="translate(0 0)">
        <path id="Path_1362" data-name="Path 1362" class="cls-2" d="M816.7,457.826a.864.864,0,0,1-.836.589c-.529.029-1.061.034-1.591.046-.71.017-1.42.039-2.13.043a2.483,2.483,0,0,1-1.74-.725c-.575-.543-1.084-1.154-1.635-1.722a5.774,5.774,0,0,0-.771-.68.632.632,0,0,0-.952.111,2.289,2.289,0,0,0-.534,1.4c-.026.214-.018.433-.034.649-.045.609-.241.876-.84.894a11.4,11.4,0,0,1-3.258-.168,9.555,9.555,0,0,1-4.057-2.337,17.839,17.839,0,0,1-2.582-3.265,40.551,40.551,0,0,1-3.541-6.609c-.243-.561-.023-.912.592-.922,1.189-.019,2.378-.031,3.568-.02a1,1,0,0,1,.962.68,30.678,30.678,0,0,0,2.155,4.228,7.219,7.219,0,0,0,.869,1.047,1.151,1.151,0,0,0,.414.258.47.47,0,0,0,.662-.263,6.9,6.9,0,0,0,.3-1.209,10.009,10.009,0,0,0-.059-3.125,1.357,1.357,0,0,0-1.211-1.221c-.051-.009-.1-.024-.151-.037-.007,0-.012-.009-.053-.043a1.872,1.872,0,0,1,.173-.28,1.524,1.524,0,0,1,.95-.507,13.665,13.665,0,0,1,4.221,0,.98.98,0,0,1,.916,1.067c.023.761-.021,1.524-.021,2.285,0,.844,0,1.688.034,2.532a1.178,1.178,0,0,0,.212.554.469.469,0,0,0,.75.109,5.533,5.533,0,0,0,1.194-1.358,20.87,20.87,0,0,0,2.144-4.052c.218-.546.369-.626.965-.629,1.279-.006,2.557-.027,3.836-.041a3.191,3.191,0,0,1,.358.014.846.846,0,0,1,.724.411v.4c-.083.222-.153.45-.252.665a14.354,14.354,0,0,1-1.566,2.477c-.638.866-1.3,1.714-1.918,2.6a1.059,1.059,0,0,0,.158,1.6c.651.659,1.34,1.282,1.974,1.956a5.624,5.624,0,0,1,1.6,2.383Z" transform="translate(-792.104 -444.469)"/>
      </g>
    </g>
  </g>
</svg>
