<svg xmlns="http://www.w3.org/2000/svg" width="48.623" height="48.623" viewBox="0 0 48.623 48.623">
  <defs>
    <style>
      .cls-1 {
        fill: #fff;
      }

      .cls-2 {
        fill: #2b2b2b;
      }
    </style>
  </defs>
  <g id="Group_1888" data-name="Group 1888" transform="translate(-8861.142 -14086.314)">
    <g id="Group_1876" data-name="Group 1876" transform="translate(8861.142 14086.314)">
      <ellipse id="Ellipse_35" data-name="Ellipse 35" class="cls-1" cx="18.607" cy="18.607" rx="18.607" ry="18.607" transform="translate(0 14.241) rotate(-22.5)"/>
      <g id="Group_407" data-name="Group 407" transform="translate(12.042 11.983)">
        <ellipse id="Ellipse_37" data-name="Ellipse 37" class="cls-2" cx="1.446" cy="1.446" rx="1.446" ry="1.446" transform="translate(17.411 4.403)"/>
        <path id="Path_1360" data-name="Path 1360" class="cls-2" d="M326.573,494.753a6.072,6.072,0,1,0,6.072,6.073A6.079,6.079,0,0,0,326.573,494.753Zm0,9.962a3.89,3.89,0,1,1,3.89-3.89A3.894,3.894,0,0,1,326.573,504.715Z" transform="translate(-314.144 -488.497)"/>
        <g id="Group_406" data-name="Group 406" transform="translate(0 0)">
          <path id="Path_1361" data-name="Path 1361" class="cls-2" d="M324.048,505.925H314.2a7.414,7.414,0,0,1-7.406-7.406v-9.845a7.414,7.414,0,0,1,7.406-7.406h9.844a7.415,7.415,0,0,1,7.407,7.406v9.845A7.415,7.415,0,0,1,324.048,505.925ZM314.2,483.588a5.092,5.092,0,0,0-5.086,5.087v9.845a5.092,5.092,0,0,0,5.086,5.087h9.844a5.093,5.093,0,0,0,5.087-5.087v-9.845a5.093,5.093,0,0,0-5.087-5.087Z" transform="translate(-306.798 -481.268)"/>
        </g>
      </g>
    </g>
  </g>
</svg>
