<svg id="Group_1869" data-name="Group 1869" xmlns="http://www.w3.org/2000/svg" width="17.98" height="23.739" viewBox="0 0 17.98 23.739">
  <defs>
    <style>
      .cls-1 {
        fill: #fff;
      }
    </style>
  </defs>
  <g id="Group_548" data-name="Group 548" transform="translate(0 0)">
    <path id="Path_1635" data-name="Path 1635" class="cls-1" d="M3851.812,1780c-.974-.991-1.961-1.954-2.9-2.961a30.634,30.634,0,0,1-3.486-4.484,17.308,17.308,0,0,1-2.141-4.575,8.98,8.98,0,0,1,4.775-10.731,8.449,8.449,0,0,1,4.206-.844,8.958,8.958,0,0,1,8.453,8.05,9.441,9.441,0,0,1-.49,4.015,20.332,20.332,0,0,1-3.04,5.625,40.617,40.617,0,0,1-5.261,5.817C3851.907,1779.93,3851.885,1779.944,3851.812,1780Zm.018-2.126c.081-.073.126-.111.168-.153a33.4,33.4,0,0,0,5.159-6.389,15.223,15.223,0,0,0,1.763-3.921,7.629,7.629,0,0,0,.165-3.5,7.417,7.417,0,0,0-6.9-5.915,7.36,7.36,0,0,0-7.486,9.069,12.838,12.838,0,0,0,1.4,3.514,28.171,28.171,0,0,0,3.735,5.183C3850.482,1776.476,3851.157,1777.161,3851.83,1777.874Z" transform="translate(-3842.841 -1756.335)"/>
    <path id="Path_1636" data-name="Path 1636" class="cls-1" d="M3851.184,1779.424l-.035-.035q-.452-.459-.905-.913c-.662-.665-1.347-1.353-2-2.05a30.858,30.858,0,0,1-3.493-4.492,17.173,17.173,0,0,1-2.148-4.59,9.037,9.037,0,0,1,4.8-10.8,8.528,8.528,0,0,1,4.233-.849,9.014,9.014,0,0,1,8.506,8.1,9.421,9.421,0,0,1-.492,4.039,20.121,20.121,0,0,1-3.048,5.641,40.357,40.357,0,0,1-5.269,5.825c-.013.011-.026.022-.053.041l-.065.049Zm-.034-23.627a8.394,8.394,0,0,0-3.689.852,8.924,8.924,0,0,0-4.746,10.665,17.069,17.069,0,0,0,2.134,4.56,30.756,30.756,0,0,0,3.48,4.475c.649.7,1.333,1.383,1.995,2.047q.435.438.871.878l.027-.02c.022-.016.033-.024.043-.034a40.246,40.246,0,0,0,5.254-5.809,20.012,20.012,0,0,0,3.032-5.61,9.312,9.312,0,0,0,.487-3.992,8.9,8.9,0,0,0-8.4-8C3851.475,1755.8,3851.311,1755.8,3851.149,1755.8Zm.055,21.505-.038-.04q-.316-.335-.632-.663c-.451-.471-.917-.959-1.358-1.45a28.03,28.03,0,0,1-3.742-5.194,12.785,12.785,0,0,1-1.408-3.53,7.416,7.416,0,0,1,7.543-9.137,7.474,7.474,0,0,1,6.949,5.961,7.639,7.639,0,0,1-.166,3.527,15.283,15.283,0,0,1-1.769,3.935,33.266,33.266,0,0,1-5.168,6.4c-.028.027-.057.053-.1.089l-.074.066Zm.027-19.908a7,7,0,0,0-4.964,1.953,7.112,7.112,0,0,0-2.131,7.055,12.679,12.679,0,0,0,1.4,3.5,27.928,27.928,0,0,0,3.727,5.173c.44.49.905.977,1.355,1.447q.3.31.595.624l.033-.03c.038-.034.066-.058.092-.084a33.154,33.154,0,0,0,5.15-6.378,15.167,15.167,0,0,0,1.757-3.906,7.526,7.526,0,0,0,.164-3.476,7.361,7.361,0,0,0-6.842-5.87C3851.454,1757.4,3851.341,1757.394,3851.231,1757.394Z" transform="translate(-3842.218 -1755.684)"/>
  </g>
  <g id="Group_549" data-name="Group 549" transform="translate(4.668 4.666)">
    <path id="Path_1637" data-name="Path 1637" class="cls-1" d="M3901.589,1819.33a4.263,4.263,0,1,1,8.526-.013,4.263,4.263,0,0,1-8.526.013Zm4.283,2.7a2.727,2.727,0,1,0-2.743-2.712A2.713,2.713,0,0,0,3905.873,1822.028Z" transform="translate(-3901.533 -1814.977)"/>
    <path id="Path_1638" data-name="Path 1638" class="cls-1" d="M3905.231,1822.967v0a4.29,4.29,0,0,1-4.35-4.289,4.352,4.352,0,0,1,4.337-4.354h.022a4.337,4.337,0,0,1,3.023,7.389A4.244,4.244,0,0,1,3905.231,1822.967Zm.009-8.53h-.021a4.239,4.239,0,0,0-4.225,4.24,4.179,4.179,0,0,0,4.237,4.177v0a4.132,4.132,0,0,0,2.952-1.22,4.224,4.224,0,0,0-2.944-7.2Zm-.015,6.994h0a2.811,2.811,0,0,1-2.007-.827,2.72,2.72,0,0,1-.8-1.941,2.777,2.777,0,0,1,2.8-2.8h.02a2.784,2.784,0,0,1-.015,5.567Zm0-5.455a2.665,2.665,0,0,0-2.687,2.686,2.609,2.609,0,0,0,.764,1.861,2.7,2.7,0,0,0,1.923.794,2.671,2.671,0,0,0,.019-5.342Z" transform="translate(-3900.881 -1814.324)"/>
  </g>
</svg>
