<svg id="Group_1867" data-name="Group 1867" xmlns="http://www.w3.org/2000/svg" width="20.93" height="15.689" viewBox="0 0 20.93 15.689">
  <defs>
    <style>
      .cls-1 {
        fill: #fff;
      }
    </style>
  </defs>
  <path id="Path_1633" data-name="Path 1633" class="cls-1" d="M4686.348,1792.848q3.852,0,7.7,0a2.616,2.616,0,0,1,2.583,1.776,2.815,2.815,0,0,1,.146.943q.015,5.128,0,10.257a2.585,2.585,0,0,1-1.754,2.554,2.911,2.911,0,0,1-.924.152q-7.781.014-15.562.005a2.611,2.611,0,0,1-2.678-2.673q-.015-5.168,0-10.336a2.568,2.568,0,0,1,1.395-2.36,2.648,2.648,0,0,1,1.343-.318Zm8.688,2.928c-.075.067-.114.1-.151.136l-4.984,4.852c-.573.557-1.124,1.139-1.726,1.664a2.532,2.532,0,0,1-2.835.448,3.272,3.272,0,0,1-.943-.653q-3.305-3.2-6.587-6.417c-.052-.051-.106-.1-.19-.175v.227c0,3.321.008,6.642-.008,9.963a.954.954,0,0,0,.983.973q7.732-.018,15.464,0a.962.962,0,0,0,.985-.994c-.017-3.262-.009-6.524-.009-9.786Zm-1.319-1.174h-14.644c.064.069.105.116.15.16,2.135,2.079,4.276,4.152,6.4,6.242a1.062,1.062,0,0,0,1.543,0c2.122-2.092,4.265-4.163,6.4-6.242C4693.614,1794.715,4693.656,1794.668,4693.718,1794.6Z" transform="translate(-4675.859 -1792.848)"/>
</svg>
