<svg xmlns="http://www.w3.org/2000/svg" xmlns:xlink="http://www.w3.org/1999/xlink" width="125.443" height="125.443" viewBox="0 0 125.443 125.443">
  <defs>
    <style>
      .cls-1 {
        fill: url(#linear-gradient);
      }

      .cls-2 {
        fill: #fff;
      }
    </style>
    <linearGradient id="linear-gradient" x1="-0.05" y1="0.177" x2="1.094" y2="1" gradientUnits="objectBoundingBox">
      <stop offset="0" stop-color="#ffec46"/>
      <stop offset="0.783" stop-color="#ff6000"/>
      <stop offset="1" stop-color="#ff475c"/>
    </linearGradient>
  </defs>
  <g id="Group_1065" data-name="Group 1065" transform="translate(1881 -7238.181)">
    <rect id="Rectangle_820" data-name="Rectangle 820" class="cls-1" width="125.443" height="125.443" rx="62.721" transform="translate(-1881 7238.181)"/>
    <g id="Group_1063" data-name="Group 1063" transform="translate(-1853.94 7264.626)">
      <g id="Group_555" data-name="Group 555" transform="translate(0 0)">
        <path id="Path_1647" data-name="Path 1647" class="cls-2" d="M6630.968,2714.968c-6.439,5.256-13.7,7.825-21.967,7.04a28.3,28.3,0,0,1-19.208-9.771,29.037,29.037,0,0,1,39.537-42.19,28.3,28.3,0,0,1,11.2,20.294c.85,8.351-1.735,15.678-7.044,22.138.436.385.862.757,1.282,1.133.239.214.478.43.705.656q5.774,5.77,11.545,11.544,3.18,3.182,6.354,6.371a1.8,1.8,0,0,1,.41,2.38,1.819,1.819,0,0,1-2.6.63,4.358,4.358,0,0,1-.583-.5q-3.9-3.894-7.8-7.793-3.09-3.09-6.18-6.182-2.711-2.722-5.409-5.458C6631.126,2715.175,6631.058,2715.077,6630.968,2714.968Zm-19.393-47.237a25.384,25.384,0,1,0,25.382,25.753A25.184,25.184,0,0,0,6611.575,2667.73Z" transform="translate(-6582.515 -2663.965)"/>
      </g>
      <g id="Group_558" data-name="Group 558" transform="translate(16.033 12.039)">
        <g id="Group_556" data-name="Group 556" transform="translate(0 16.346)">
          <path id="Path_1648" data-name="Path 1648" class="cls-2" d="M6657.468,2786.242c-2.936,0-5.873.012-8.809-.005a3.237,3.237,0,0,1-3.183-4.5,14.615,14.615,0,0,1,7.06-7.825,10.808,10.808,0,0,1,6.2-1.056,12.527,12.527,0,0,1,8.856,5.546,19.825,19.825,0,0,1,1.868,3.29,3.215,3.215,0,0,1-3.1,4.54C6663.4,2786.254,6660.432,2786.242,6657.468,2786.242Zm.017-1.917c2.977,0,5.954-.026,8.93.013a1.321,1.321,0,0,0,1.251-1.967,29.724,29.724,0,0,0-1.575-2.765,11.2,11.2,0,0,0-5.351-4.312,9.168,9.168,0,0,0-8.247.841,13.2,13.2,0,0,0-5.193,6.219,1.357,1.357,0,0,0,1.3,1.984C6651.559,2784.295,6654.521,2784.325,6657.484,2784.325Z" transform="translate(-6644.454 -2772.021)"/>
          <path id="Path_1649" data-name="Path 1649" class="cls-2" d="M6660.754,2784.932l-2.657,0-2.656,0h-.047l-2.561,0c-2.084,0-4.169,0-6.253-.008a3.994,3.994,0,0,1-3.879-5.545,15.421,15.421,0,0,1,7.422-8.213,11.6,11.6,0,0,1,6.624-1.13c3.77.443,6.838,2.357,9.382,5.854a20.367,20.367,0,0,1,1.942,3.416,3.809,3.809,0,0,1-.216,3.714,4.2,4.2,0,0,1-3.565,1.906Q6662.521,2784.934,6660.754,2784.932Zm-5.36-1.522h.047l2.657,0c2.06,0,4.121.005,6.181-.006a2.691,2.691,0,0,0,2.292-1.2,2.321,2.321,0,0,0,.123-2.26,18.944,18.944,0,0,0-1.793-3.165,11.734,11.734,0,0,0-8.331-5.239,10.089,10.089,0,0,0-5.769.981,13.76,13.76,0,0,0-6.7,7.436,2.48,2.48,0,0,0,2.485,3.445c2.081.012,4.162.01,6.243.007Zm-8.9-.384a2.12,2.12,0,0,1-1.824-.935,2.215,2.215,0,0,1-.137-2.114,13.856,13.856,0,0,1,5.494-6.563,9.962,9.962,0,0,1,8.9-.906,11.877,11.877,0,0,1,5.712,4.588,18.274,18.274,0,0,1,1.193,2.041c.141.266.28.531.426.793a2.055,2.055,0,0,1-.009,2.054,2.151,2.151,0,0,1-1.883,1.04h-.033c-1.123-.015-2.344-.021-3.845-.021q-1.268,0-2.536,0c-1.711,0-3.421,0-5.095,0q-1.266,0-2.533,0c-1.477,0-2.681.008-3.788.025Zm8.849-9.656a8.654,8.654,0,0,0-4.527,1.341,12.387,12.387,0,0,0-4.893,5.877.72.72,0,0,0,.019.673.634.634,0,0,0,.553.245c1.133-.017,2.344-.025,3.829-.025q1.269,0,2.537,0c1.709.005,3.417.005,5.087,0q1.27,0,2.539,0c1.508,0,2.736.007,3.865.022h0a.647.647,0,0,0,.587-.293.53.53,0,0,0-.01-.547c-.15-.271-.295-.546-.44-.821a17.118,17.118,0,0,0-1.091-1.875,10.425,10.425,0,0,0-4.988-4.035A9,9,0,0,0,6655.341,2773.371Z" transform="translate(-6642.379 -2769.948)"/>
        </g>
        <g id="Group_557" data-name="Group 557" transform="translate(4.645)">
          <path id="Path_1650" data-name="Path 1650" class="cls-2" d="M6669.936,2726.539a7.4,7.4,0,1,1,7.478-7.146A7.342,7.342,0,0,1,6669.936,2726.539Zm5.555-7.347a5.506,5.506,0,1,0-5.512,5.438A5.507,5.507,0,0,0,6675.49,2719.192Z" transform="translate(-6661.799 -2710.99)"/>
          <path id="Path_1651" data-name="Path 1651" class="cls-2" d="M6667.947,2725.223h-.1a8.1,8.1,0,0,1-8.125-8.474,8.191,8.191,0,1,1,8.222,8.475Zm-.018-14.79a6.581,6.581,0,0,0-6.685,6.357,6.581,6.581,0,0,0,6.624,6.914h.078a6.636,6.636,0,0,0,.211-13.268Q6668.044,2710.433,6667.93,2710.433Zm-.057,12.881a6.271,6.271,0,0,1-6.229-6.257,6.088,6.088,0,0,1,1.813-4.333,6.316,6.316,0,0,1,4.426-1.877h.014a6.29,6.29,0,0,1,6.277,6.269,6.187,6.187,0,0,1-1.792,4.348,6.275,6.275,0,0,1-4.477,1.851Zm.024-11.708-.011.759a4.787,4.787,0,0,0-3.352,1.429,4.583,4.583,0,0,0-1.372,3.256,4.766,4.766,0,0,0,8.14,3.348,4.644,4.644,0,0,0,1.352-3.274,4.768,4.768,0,0,0-4.757-4.759Z" transform="translate(-6659.722 -2708.915)"/>
        </g>
      </g>
    </g>
  </g>
</svg>
