<svg xmlns="http://www.w3.org/2000/svg" xmlns:xlink="http://www.w3.org/1999/xlink" width="125" height="125" viewBox="0 0 125 125">
  <defs>
    <style>
      .cls-1 {
        fill: url(#linear-gradient);
      }

      .cls-2 {
        fill: #fff;
      }
    </style>
    <linearGradient id="linear-gradient" x1="-0.128" y1="0.145" x2="1.185" y2="1" gradientUnits="objectBoundingBox">
      <stop offset="0" stop-color="#ff475c"/>
      <stop offset="0.512" stop-color="#ff3c87"/>
      <stop offset="1" stop-color="#ff3c87"/>
    </linearGradient>
  </defs>
  <g id="Group_1067" data-name="Group 1067" transform="translate(1002 -7235)">
    <rect id="Rectangle_819" data-name="Rectangle 819" class="cls-1" width="125" height="125" rx="62.5" transform="translate(-1002 7235)"/>
    <g id="Group_1062" data-name="Group 1062" transform="translate(-972.25 7266.013)">
      <path id="Path_1641" data-name="Path 1641" class="cls-2" d="M6611.894,2063.7c8.571,0,17.142.015,25.713-.01a7.006,7.006,0,0,1,5.2,2.013,6.819,6.819,0,0,1,1.989,5.087q-.011,8.2,0,16.4,0,15.609,0,31.218a6.732,6.732,0,0,1-4.623,6.747,7.075,7.075,0,0,1-2.236.347q-26.035.028-52.07.008c-4.038,0-6.864-2.979-6.868-7.161q-.012-13.413,0-26.825,0-10.279,0-20.559a7.072,7.072,0,0,1,1.456-4.652,6.587,6.587,0,0,1,4.745-2.575c.35-.027.7-.037,1.053-.037Q6599.066,2063.7,6611.894,2063.7Zm-30.143,19.882c-.01.217-.024.389-.024.561q0,17.158,0,34.317a4.073,4.073,0,0,0,4.417,4.358q25.738,0,51.475,0a4.108,4.108,0,0,0,4.452-4.451q0-17.071,0-34.141v-.644Zm60.321-2.766v-.706q0-4.6,0-9.194a4.131,4.131,0,0,0-4.512-4.516q-25.678,0-51.355,0a5.473,5.473,0,0,0-1.389.144,3.931,3.931,0,0,0-3.078,3.921c-.034,3.337-.011,6.675-.009,10.013a2.1,2.1,0,0,0,.056.333Z" transform="translate(-6578.986 -2063.692)"/>
      <path id="Path_1642" data-name="Path 1642" class="cls-2" d="M6695.165,2096.239a4.314,4.314,0,0,1-4.29-4.4,4.319,4.319,0,1,1,4.29,4.4Zm.027-2.715a1.593,1.593,0,1,0,.008-3.185,1.593,1.593,0,0,0-.008,3.185Z" transform="translate(-6664.663 -2081.994)"/>
      <path id="Path_1643" data-name="Path 1643" class="cls-2" d="M6608.606,2096.24a4.307,4.307,0,0,1-4.315-4.372,4.319,4.319,0,1,1,4.315,4.372Zm-.037-2.715a1.592,1.592,0,1,0-1.559-1.632A1.595,1.595,0,0,0,6608.569,2093.524Z" transform="translate(-6598.363 -2081.995)"/>
      <path id="Path_1644" data-name="Path 1644" class="cls-2" d="M6656.264,2091.977a4.3,4.3,0,1,1-4.311-4.387A4.305,4.305,0,0,1,6656.264,2091.977Zm-4.311,1.544a1.593,1.593,0,1,0-1.578-1.6A1.579,1.579,0,0,0,6651.953,2093.521Z" transform="translate(-6631.573 -2081.991)"/>
    </g>
  </g>
</svg>
