<svg xmlns="http://www.w3.org/2000/svg" width="29" height="29" viewBox="0 0 29 29">
  <defs>
    <style>
      .cls-1 {
        fill: #707070;
        stroke-width: 0.5px;
      }

      .cls-1, .cls-2 {
        stroke: #707070;
      }

      .cls-2, .cls-4 {
        fill: none;
      }

      .cls-3 {
        stroke: none;
      }
    </style>
  </defs>
  <g id="Group_989" data-name="Group 989" transform="translate(-1751 -108)">
    <path id="Path_5470" data-name="Path 5470" class="cls-1" d="M2558.569-201.544a6.477,6.477,0,0,1,1.613-1.143,3.733,3.733,0,0,1,2.869-.33,3.822,3.822,0,0,1,1.869,1.321,3.99,3.99,0,0,1,.849,2.113,6.1,6.1,0,0,1-1.023,3.941,14.235,14.235,0,0,1-1.645,2.014,50.025,50.025,0,0,1-4.024,3.807c-.081.07-.161.14-.243.209a.355.355,0,0,1-.535,0c-.882-.79-1.78-1.563-2.636-2.381-.749-.716-1.468-1.466-2.168-2.23a8.592,8.592,0,0,1-1.59-2.3,6.07,6.07,0,0,1-.564-2.852,4.029,4.029,0,0,1,2.867-3.683,3.562,3.562,0,0,1,2.387.207A6.587,6.587,0,0,1,2558.569-201.544Zm-.024,11.3c.038-.027.049-.034.059-.043a52.988,52.988,0,0,0,3.9-3.673,19.651,19.651,0,0,0,1.513-1.8,5.4,5.4,0,0,0,1.116-3.519,3.348,3.348,0,0,0-1.3-2.586,2.824,2.824,0,0,0-2.927-.429,5.842,5.842,0,0,0-2.037,1.364c-.224.221-.378.22-.6,0a5.911,5.911,0,0,0-2.05-1.369,2.953,2.953,0,0,0-1.572-.183,3.3,3.3,0,0,0-2.58,2.659,5.116,5.116,0,0,0,.44,3.017,7.982,7.982,0,0,0,1.312,1.939,28,28,0,0,0,2.144,2.236C2556.815-191.824,2557.681-191.036,2558.545-190.24Z" transform="translate(-793.052 320.039)"/>
    <g id="Ellipse_121" data-name="Ellipse 121" class="cls-2" transform="translate(1751 108)">
      <circle class="cls-3" cx="14.5" cy="14.5" r="14.5"/>
      <circle class="cls-4" cx="14.5" cy="14.5" r="14"/>
    </g>
  </g>
</svg>
