<svg id="Group_426" data-name="Group 426" xmlns="http://www.w3.org/2000/svg" viewBox="0 0 207.329 170.864">
  <path id="Path_162" data-name="Path 162" d="M276.307,5378.1c-1.223,4.011,1.06,6.725,2.372,9.719-2.58,1.744-5.006,3.05-8.045,2.393a2.5,2.5,0,0,0-1.344.015,8.889,8.889,0,0,1-5.626.087,10.241,10.241,0,0,0-3.495.273c-1.351.163-2.74.568-3.735-.846a.787.787,0,0,0-.456-.287c-3.021-.564-4.061-2.5-3.522-5.586-2.477-.5-4.515-1.568-5.528-3.766a13.834,13.834,0,0,1-.624-3.579c2.652-.635,4.921-1.211,7.205-1.713,2.131-.472,4.578.547,6.521-1.338a17.173,17.173,0,0,1-5.558-2.69,1.459,1.459,0,0,0-.923-.382c-2.254.465-3.369-.8-3.986-2.683-2.261-.161-5.067,1.033-5.41-2.74l-2.244-.228-.637-2.649-2.61.525c-1.883-1.24-.97-3.023-1.063-4.774a48.225,48.225,0,0,1-6.751-.62,51.93,51.93,0,0,1-6.7-2.552l2.176-1.013c-1.547-.256-3.139-.489-4.718-.8-.614-.117-1.439-.215-1.752-.634a8.117,8.117,0,0,0-4.851-2.751.551.551,0,0,1-.241-.132,24.492,24.492,0,0,0-5.859-4.219,2.72,2.72,0,0,1-.762-2.355c.2-1.04,1.208-.754,2.048-.548a4.007,4.007,0,0,0,1.617.006c5.919-1.076,11.81-2.348,17.757-3.22a138.671,138.671,0,0,1,14.678-1.354,21.689,21.689,0,0,1,14.914,5.016,49.067,49.067,0,0,0,13.929,7.936,4.518,4.518,0,0,0,5.3-1.723,25.144,25.144,0,0,1,7.263-6.95,9.417,9.417,0,0,1,2.993-1.1c3.678-.634,7.368-1.186,11.066-1.69a27.232,27.232,0,0,1,3.425-.024,2.387,2.387,0,0,1-2.2,1.813,11.511,11.511,0,0,0-6.3,3.046c-.321.311-.8.6-.9.979-.552,2.133-2.174,3.549-3.352,5.266-.537.785-.913,1.683-1.579,2.938,3.084-.312,5.408-1.3,6.854-3.246,3.237-4.353,7.27-4.654,12.169-3.7,5.159,1.011,9.544,3.453,13.959,6.01,3.392,1.967,6.874,3.779,10.2,5.847,2.845,1.771,5.523,3.809,8.434,5.842-1.772,2.355-3.68,3.536-6.533,3.5-5.711-.064-11.151-1.43-16.609-3.1a8.8,8.8,0,0,1-5.2,2.785c-1.617.331-3.663,1.046-4.377,3.207a2.929,2.929,0,0,1-1.582,1.379c-2.562,1.1-5.189,2.048-7.764,3.12-5.914,2.46-12.126,3.189-18.456,3.276C278.731,5378.112,277.565,5378.1,276.307,5378.1Zm33.23-22.264c-.885.678-1.416.527-1.587-.459,1.464-.581,2.818-1.12,4.44-1.763l-1.487-1,3.818-1.709a19.451,19.451,0,0,0-10.2-3.514c-2.82-.235-5.36.2-7.4,2.59a9.6,9.6,0,0,1-4.322,3.218c-4.287,1.089-5.433,4.066-5.711,7.861-.033.454-.11.907-.125,1.363a14.476,14.476,0,0,1-4.442,9.988c-1.251,1.261-2.374,2.651-3.613,4.051a7.876,7.876,0,0,0,1.436.1c3.623-.372,7.265-.628,10.85-1.229,1.584-.267,3.387-.552,4.392-2.292.216-.372,1.136-.49,1.722-.471,1.89.062,3.392-.368,3.72-2.512,3.029.785,3.029.785,4.2.128-.732-.667-1.559-1.419-2.439-2.219,1-1.211,1.527-1.8,2-2.438.283-.383.772-1.031.652-1.2-.276-.4-.865-.583-1.374-.881l2.482-1.25-1.3-2.242c-2.309.161-4.4.442-6.049,2.242-.983,1.07-1.223.911-1.9-.6l4.014-2.5c2.028.774,3.317-.913,4.645-2.314,2.971,1.521,3.161,1.465,3.578-.944q3.907,1.289,7.817,2.575l.4-.57c-.313-.424-.539-1.029-.958-1.234A9.049,9.049,0,0,0,309.537,5355.833Zm-72.883-4.675-1.2-2.446-14.36,1.6c.278.631.559.835.872.92a26.837,26.837,0,0,0,12.091.244c.882-.167,1.78-.252,2.672-.376l-1.331,1.948a12.7,12.7,0,0,0-6.348.715,11,11,0,0,0,2.321,1.705,9.309,9.309,0,0,0,7.644-.5c1.757-.95,3.194-2.672,5.668-2.562l-2.149,1.531a26.058,26.058,0,0,0,5.265-1.5,37.072,37.072,0,0,1,3.63-.77c.76-.169,1.79-.134,2.216-.615,1.933-2.185,4.071-1.672,6.185-.616a34.024,34.024,0,0,0,10.687,3.747c-2.627.663-3.257.6-6.037-.612-1.918-.837-3.808-1.739-5.733-2.561a2.654,2.654,0,0,0-2.484.273,114.9,114.9,0,0,1-10.647,4.751,35.873,35.873,0,0,1-5.621,1.222c-.053,1.272-1.527,2.187-.429,3.866l3.823-2.515v4.229l2.976-1.33a10.094,10.094,0,0,0-.338,2.2c.1.842.138,1.955.669,2.418.83.728,1.87.27,2.662-.532.459-.466.988-.866,1.8-1.565.123,1.1.218,1.693.253,2.3.153,2.631,1.416,3.352,3.72,2.076a7.857,7.857,0,0,0,1.025-.808c1.8.733,3.161,1.618,2.813,3.892,2.106-1.589,3.244-1.34,3.73.791.772,3.4,3.091,5.31,6.192,6.911-1.695.469-3.234.772-4.307-.761-1.775-2.535-4.094-3.139-6.949-2.35a3.026,3.026,0,0,1-1.091.015c-2.911-.294-5.533.652-8.12,1.742.574,3.166,2.018,4.088,4.683,3.017a23.39,23.39,0,0,0,2.161-1.165,2.837,2.837,0,0,1,2.888-.277l-3.939,2.048a27.411,27.411,0,0,1-.018,2.919c-.221,1.843.005,2.279,1.787,2.937,1.379-1.228.01-3.63,2.179-4.7,1.519-.744,2.7-2.175,4.031-3.3-.055,2.194-2.2,2.535-2.956,4-.79,1.542-1.389,3.179-2.071,4.776,3.6,1.432,3.5.762,4.861-1.73a14.62,14.62,0,0,1,.948-1.376l.371.241-.945,2.086c1.309.632,2.565,1.723,3.818,1.719,1.411,0,2.818-1,4.227-1.556,2.432,1.777,2.978,1.731,5.854-.481a33.8,33.8,0,0,1-1.444-3.5c-.406-1.361-.346-2.792-1.436-4.007-.79-.88-.286-2.325.762-3.081.792-.57,1.665-1.033,2.306-1.42l-.271-2.732c-1.6-.785-1.93,2.846-4.254.416a11.245,11.245,0,0,1,1.512-.82c1.454-.507,2.324-1.316,2.086-3.028-.05-.363.489-.812.925-1.475.75.863.81,2.027,2.093,2.1.905.05.785,1.018.554,1.775-.241.786-1.186,1.377-.7,2.6a18.585,18.585,0,0,0,4.994-5.136,12.342,12.342,0,0,0,1.394-3.527c.76-3.353.885-6.8,1.9-10.158.75-2.476,1.346-4.875,3-6.908.454-.56.94-1.18.065-1.974l-2.229,1.131c-.787-.729-1.5-1.391-2.259-2.09.346-.515.725-1.078,1.106-1.635.542.381,1.078.768,1.632,1.137a6.27,6.27,0,0,0,.745.359l1.381-1.81c-1.424-.7-2.645-.907-3.725.354a10.507,10.507,0,0,0-5.881,4.918c-2.434,3.823-5.636,4.565-9.644,3.362a12.812,12.812,0,0,1-2.77-1.137c-2.587-1.515-5.142-3.09-7.681-4.687-2.62-1.644-5.169-3.406-7.827-4.987a5,5,0,0,0-4.5-.816l1.853,1.938,1.635-.419,1.454,2.1-.278,2.742-4.563.863c.486-.565.577-.747.722-.828.642-.374,1.81-.035,1.815-1.252.008-1.412-1.384-.844-2.036-1.336a1.7,1.7,0,0,0-.241-.132l.065.085-2.226-4.671c-2.422,0-5.037-.047-7.649.021a12.749,12.749,0,0,0-3.758.5,3.405,3.405,0,0,0-2.038,1.809c-.163.554.712,1.517,1.286,2.153a6.245,6.245,0,0,0,1.69.947l-1.088,1.787h5.839c-3,1.646-3,1.646-2.567,3.635l2.62.188C239.659,5352.056,239.278,5352.123,236.654,5351.158Zm99.214,12.651.243-.574c-2.048-1.448-4.024-3.021-6.165-4.316-3.961-2.392-8.027-4.6-12.036-6.919-2.274-1.312-3.578-.552-3.783,2.4a20.361,20.361,0,0,1,1.953.759c1.692.855,3.658,1.451,4.969,2.716a18.085,18.085,0,0,0,7.719,4.391C331.1,5362.948,333.346,5364.048,335.868,5363.81ZM211.91,5344.454c2.883,1.559,16.817,1.164,20.043-.568l-1.123-3.661c-6.252,1.206-12.395,2.387-18.534,3.6C212.133,5343.857,212.037,5344.235,211.91,5344.454Zm97.843,14.425c4.961,4.112,19.77,8.128,24.664,6.686-.238-.188-.4-.428-.612-.476a74.249,74.249,0,0,1-13.9-4.709c-2.311-1.011-4.841-1.523-7.255-2.314A2.584,2.584,0,0,0,309.752,5358.879Zm-77.175-11.968c-1.833-1.4-3.806-.421-5.7-.493a36.582,36.582,0,0,0-5.711.517c-1.865.225-3.831-.166-5.6.763C221.331,5349.5,226.936,5348.23,232.577,5346.911Zm76.205,13.9c-1.294,2.442-.98,3.37,1.369,4.137a10.452,10.452,0,0,0,1.519.525c.955.148,1.968.328,2.635-.711A8.877,8.877,0,0,0,308.782,5360.812ZM308,5367.5l.075-.646c-1.474-1.218-1.474-1.218-3.7.424Z" transform="translate(-161.918 -5219.9)"/>
  <path id="Path_163" data-name="Path 163" d="M239.873,5353.8a27.264,27.264,0,0,0-3.57,2.364,64.284,64.284,0,0,0-8.612,10.2c-2.294,3.159-4.886,6.1-7.391,9.105-3.377,4.046-7.366,7.584-10.106,12.157-.048.08-.108.15-.148.229-.456.938-1.467,1.8-.572,2.962a3.618,3.618,0,0,0,3.831.426c2.021-1.349,3.923-2.886,5.829-4.4a16.853,16.853,0,0,1,3.745-2.605c-2.309,2.348-4.615,4.691-7.107,7.222,2.1,1.1,3.678.182,5.152-.743a46.481,46.481,0,0,1,4.648-2.936q-.594.876-1.186,1.747c.123.09.278.291.361.263,2.765-.895,5.553-1.731,8.276-2.746,3.575-1.332,5.811-4.278,8.163-7.063.679-.8,1.452-1.529,2.184-2.29l-.058-.051-2.7,4.753a10.467,10.467,0,0,0,1.627-.785,20.191,20.191,0,0,0,7.431-9.158,65.383,65.383,0,0,1,3.435-6.744c-1.416-1.007-1.818-.966-2.672.307-.747,1.113-1.5,2.218-2.254,3.33l.063.055,1.81-5.511c1.725-.592,3.033-1.041,4.558-1.562l-.316,1.881c1.113-.027,1.043-2.465,2.75-.91l-2.444,5.047c1.612.262,3,.484,4.284.691l2.83-5.8c1.091.912.637,1.522.085,2.331a4,4,0,0,0-.514,2.607l4.748-5.359.607,3.187c2.547.21,2.928-2.562,5.034-3.433a5.237,5.237,0,0,1-.356,1.667,9.712,9.712,0,0,1-1.655,1.8c-2.206,1.891-2.251,1.876-4.763-.059l-1.677,2.173c6.024.5,10.823-1.306,14.618-5.762l.389.49-1.978,2.614c.993-.289,1.74-.459,2.452-.727a1.86,1.86,0,0,0,1.409-2.041,24.9,24.9,0,0,1,.331-3.638l.639-.027.384,2.971c1.326-.091,2.043-.7,2.041-2a2.155,2.155,0,0,1,2.184-2.324c2.482.151,2.918-1.28,3.033-2.933a20.077,20.077,0,0,0,3.011-1.578c.4-.3.484-1.084.634-1.672.333-1.288-.506-2.156-1.512-2.013-1.1.153-1.467-.4-2-.978a44.849,44.849,0,0,1-3.121-3.437,22.357,22.357,0,0,0-6.879-5.691,9.468,9.468,0,0,0-7.015-.9c-1.078.211-1.752.063-2.407-1.272a17.064,17.064,0,0,1,2.4-1.337,7.911,7.911,0,0,0,4.357-3.9c2.359-4.447,4.427-8.977,4.3-14.188a7.11,7.11,0,0,1,3.936-6.579q-.256.88-.506,1.761c2.013.907,2.013.907,1.462,2.048-.767-.1-1.544-.464-2.053-.231-2.241,1.021-.915,2.846-.968,4.43l1.462-.373a5.942,5.942,0,0,0-2.319,5.355,3.144,3.144,0,0,1-.346,1.421c-1.627,3.4-3.287,6.773-5,10.289.4.094.923.33,1.01.221.624-.782,1.158-1.637,1.95-2.807.251,1.337.993,1.947,2.224,1.617.163,1.26.94,1.375,1.968,1.084.093-.025.278.2.394.333,2.116,2.4,5.042,2.543,7.91,2.839l-3.372,2.822c.587,1.713,3.3,2.3,1.474,4.467,1.3,1.277,2.093,3.149,4.4,3.706l1.672-3.769-2.311.266c.762-1.739,3.362-1.559,3.4-3.978l-2.911.926c1.2-2.012,4.269-1.984,3.831-4.923l-3.174.891c1.143-1.889,4.049-1.69,3.269-4.664a14.152,14.152,0,0,0-5.616,4.158c1.038-2.014,2.083-3.969,4.462-4.794.82-.286,1.9-.742,1.577-2.251-1.121.164-2.164.32-3.492.519,1.354-1.742,4.069-1.344,4.35-4l-3.156.911-.286-.494c2.793-1.316,5.789-2.422,6.636-6.23a18.6,18.6,0,0,0-3.705,1,20.852,20.852,0,0,0-3.144,2.376l-.268-.271.634-1.686-4.826-1.159.045.009a7.241,7.241,0,0,1,1.976-.7c1.206-.059,2.454.312,3.635.151a28.858,28.858,0,0,0,15.944-7.582,10.269,10.269,0,0,0,3.47-5.52l-4.53,1.737c2.021-1.678,4.523-2.852,6.069-4.787a14.471,14.471,0,0,0,2.75-7.081l-.552-.339-1.166,1.123.038.038c-.5-.848.105-1.281.6-1.844a6.772,6.772,0,0,0,2.146-4.793c-3.527-.673-15.12,3.3-23.2,7.91.526-.581.948-1.394,1.6-1.708,2.3-1.093,4.676-2.01,7.02-3,1.424-.6,2.83-1.243,4.272-1.79,1.6-.608,3.249-1.108,4.861-1.693,2.2-.794,4.377-1.621,6.719-2.491a6.534,6.534,0,0,1,.323,4.535c-1,3.068-1.529,6.25-2.329,9.361a22.943,22.943,0,0,1-2.392,5.137c-2.853,5.173-6.721,9.276-12.392,11.4a12,12,0,0,0-1.238.6c-1.216,2.76-2.3,5.352-3.5,7.887-.511,1.079-.925,2.013-.005,2.515a24.246,24.246,0,0,0-1.111,3.969,37.647,37.647,0,0,1-5.222,15.427c.97,1.6,2.5,2.052,4.106,2.433,1.853.44,3.69.933,5.535,1.4,2.469.626,4.924,1.318,7.416,1.832.514.105,1.166-.444,1.983-.789a10.608,10.608,0,0,1,.376,1.779c.05,1.246.005,2.5,0,3.74a1.382,1.382,0,0,1-.01.521c-1.231,2.807-2.342,5.674-3.748,8.387-2.329,4.492-6.34,7.186-10.687,9.456a25.312,25.312,0,0,1-3.031,1.648,14.987,14.987,0,0,1-3.116.455c-1.97.246-3.944.479-6.137.741a17.355,17.355,0,0,1-.6-2.571c-.316-4.934-1.69-9.662-2.755-14.447-.426-1.91-1.3-2.321-2.961-1.332-6.152,3.66-12.956,4.682-19.923,5.17-2.251.155-4.427.725-6.764.131a2.774,2.774,0,0,0-3.282,1.9c-1.682,5.643-6.044,8.954-10.457,12.226a45.114,45.114,0,0,1-5.2,3.5,28.074,28.074,0,0,1-4.117,1.354c-3.773,1.34-7.486,2.866-11.309,4.036a19.067,19.067,0,0,1-11.532-.5,3.531,3.531,0,0,1-1.662-1.708,1.894,1.894,0,0,1,.2-1.68q2.929-3.757,6.032-7.384c1.945-2.263,4.066-4.378,5.977-6.671,2.444-2.934,4.7-6.02,7.13-8.965,3.282-3.983,6.047-8.42,10.113-11.726a26.029,26.029,0,0,1,13.613-5.778c3.076-.363,6.145-.81,9.218-1.192a5.044,5.044,0,0,0,3.282-1.962c-1.472-.5-2.642-.874-3.793-1.293a22.414,22.414,0,0,1-4.257-1.683c-1.755-1.09-3.465-2-5.6-1.751-.178.019-.414.059-.537-.031-.4-.283-.757-.625-1.131-.943.409-.373.82-1.069,1.223-1.064a12.322,12.322,0,0,0,7.506-2.046,5.437,5.437,0,0,1,3.169-.594c3.259.171,6.508.514,9.679.782.283,1.379.013,1.6-1.055,1.418-2.492-.426-5.016-.661-8.045-1.039,1.652,2.963-1.973,3.091-1.767,5.266,1.612.352,3.312.653,4.966,1.124a3.048,3.048,0,0,1,1.64,1.163c.491.772-.208,1.266-.775,1.782a8.372,8.372,0,0,1-4.836,2.284c-3.984.467-7.967.986-11.908,1.728-2.387.449-4.841.96-6.819,2.586a3.117,3.117,0,0,0-.466.628Zm48.979,8.933c-.441-1.418-.441-1.418-2.121-.579l2.219.491c-.494.829-.99,1.659-1.474,2.468-.446-.39-.963-.84-1.479-1.294a3.538,3.538,0,0,0-.308,2.328c.714,3.38,1.487,6.747,2.2,10.128.188.889.123,1.842.386,2.7.348,1.131.825,2.35,2.357,2.216,4.019-.351,7.965-1.192,11.359-3.42,6.41-4.206,9.695-10.389,10.627-17.9a3.7,3.7,0,0,0-.088-.8h-2.166l-1.336,3.988-.521-.1a8.756,8.756,0,0,1,.173-1.949c.687-2.142.469-2.673-1.67-3.361-1.73-.561-3.47-1.1-5.222-1.583a24.171,24.171,0,0,0-4.51-1,7.883,7.883,0,0,0-2.713.855c.71,1.728-1.472,1.283-1.807,2.407l3.67,2.851-.15.6c-2.038-1.782-3.913-1.154-5.9.063l1.677,2.767C290.682,5363.8,289.769,5363.259,288.852,5362.731Zm-31.7-23.738-.454-.532c-.807.43-1.615.858-2.748,1.459l2.219,1.487Zm31.32,1.614-.3-.76-2.472-.117c-.068,1.376.584,1.847,1.469,1.785C287.626,5341.484,288.042,5340.926,288.476,5340.607ZM291.838,5360c-.719-.968-1.228-1.789-2.763-1.227C289.827,5359.7,290.233,5360.724,291.838,5360Zm-5.784,4.067c.268-.646.567-1.036.547-1.414-.015-.325-.394-.633-.609-.949l-1.143.825Zm-2.637-25.813c.158,1.236.624,1.6,1.652.725Z" transform="translate(-163.721 -5290.677)"/>
  <path id="Path_164" data-name="Path 164" d="M194.5,5362.231c1.913.5,3.4,2.114,5.856,1.455-.376-1.233-.74-2.386-1.083-3.547a21.041,21.041,0,0,1-1.138-4.169,3.069,3.069,0,0,0-1.95-2.944c-2.713-1.22-4.395-3.469-5.736-6.014a7.625,7.625,0,0,1-.429-5.663c2.509,1.68,4.926.249,7.536.485l-2.211,1.324a37.475,37.475,0,0,0,4.555,2.274,13.617,13.617,0,0,1,7.182,5.337,5.458,5.458,0,0,0,.689,5.329c1.133,1.811,1.574,1.879,3.618,1.412,3.081-.7,6.187-1.313,9.291-1.912a5.738,5.738,0,0,1,1.522.105c.276,1.2-.441,1.428-1.193,1.5-1.823.187-3.3.7-3.921,2.724-.208.677-1.008,1.17-1.712,1.94a10.032,10.032,0,0,0,5.841.6,4.4,4.4,0,0,1,3.811.751,15.7,15.7,0,0,0,3.149,1.266c1.637,4.743,4.991,8.644,7.847,12.855.684,1.013,2.033,2.071,1,3.359-1.05,1.311-2.329.1-3.462-.313a13.864,13.864,0,0,1-3.008-1.28c-1.7-1.139-3.272-2.46-5.245-3.974-1.081.436-2.306-.2-3.094-1.62a3.153,3.153,0,0,0-3.475-1.552c-.454.043-.91.065-1.361.127a12.44,12.44,0,0,1-9.589-2.253,7.193,7.193,0,0,0-.935-.564c-1.6-.859-1.885-.8-2.923.633-.9,1.239-1.777,2.493-2.891,4.058-2.765-1.88-5.34-3.627-7.95-5.4C193.05,5366.479,192.832,5364.283,194.5,5362.231Zm-2.843-15.065c.055-1.237.456-2.209,1.845-2.432-.343,1.957.07,2.4,2.1,3.278,2.65,1.147,5.212,2.5,7.807,3.769.973.474.96,1.135.356,2a3.683,3.683,0,0,0-4-.174l5.26,1.707c-1.306,1.428-2.527,2.646-1.69,4.858,1.238-.593,2.377-1.143,3.527-1.694a20.915,20.915,0,0,1-1.063-3.314c-.451-3.221-1.632-5.854-4.944-7.029-.063-.023-.085-.155-.13-.243.494.072.988.158,1.487.208.078.008.173-.127.4-.307l-1.905-1.021.1,1.213c-2.389-1.192-5.292-1.227-7.318-3.246h-2.552l.722,2.422c.86,1.434,1.509,3.063,3.422,3.729a4.953,4.953,0,0,0,.318-1.024C194.053,5349.1,193.388,5347.383,191.659,5347.166Zm5.144,20.528-.266,1.9c1.479-.184,1.519-1,1.564-2.144l-1.4.34c.968-.44,2.161-.649,2.176-2.323-.634-.313-1.321-.723-2.056-1.009-1.459-.566-2.154-.353-2.4.739-.248,1.111-.04,2.014,1.339,2.182A7.487,7.487,0,0,1,196.8,5367.694Zm11-.658c2.126,3.728,7.671,5.381,12.5,3.868.4-2.448.4-2.448-1.762-3.314-.155.084-.363.131-.461.261a3.868,3.868,0,0,1-4.242,1.748c-1.539-.387-3.216-.519-3.853-2.514C209.656,5366.08,208.714,5366.395,207.8,5367.036Zm14.894-1.91c1,2.16.459,4.722,2.2,6.776,1.376-1.7-1.464-3.4.76-5.129l.414,5.174c2.527-.832,2.487,2.888,4.786,2.637.038-.32.135-.538.065-.65-1.557-2.53-3.134-5.05-4.7-7.574C225.455,5365.135,224.4,5364.7,222.693,5365.126Zm-8.617,1.293.063.6-2.131.905c1.321.6,2.5,1.146,3.926.367s.865-2.167,1.038-3.208h3.211c-.053,1.292-.426,2.711,1.589,2.878l-.183-3.105c-.253-.163-.4-.33-.557-.349-2.6-.266-5.2-.579-7.809-.729-1.065-.062-1.665.584-1.354,1.8Zm14.508,9.359a6.47,6.47,0,0,0,6.606,3.519c-.642-2.544-2.266-4.447-3.272-3.835l.333,2Zm-21.292-14.72c-1.8-1.754-2.637.356-3.763.809-1.035.414-2.056,1.216-1.569,2.73C204.645,5364.616,206.164,5363.2,207.292,5361.059Zm-9.331,8.841-.033.727,2.615,1.457,1.161-3.425Zm17.073-12.417c-1.291.535-2.409.388-3.084,1.507C214.435,5359.532,214.435,5359.532,215.034,5357.482Zm-3.257,5.354c-1.013-.6-1.752-1.28-2.016-1.13-.552.313-.852,1.064-1.256,1.639l.384.309Zm-9.549-.551c.416-2.215-.664-2.639-1.592-3.183l-.466.341Zm1.4,2.867.233.6c.96.114,1.807-.055,2.587-1.737Z" transform="translate(-189.686 -5214.313)"/>
  <path id="Path_165" data-name="Path 165" d="M253.173,5354.641a9.771,9.771,0,0,1,.521-2.089c1.254-2.507,2.59-4.97,4.011-7.673l1.647.5c.474-.983.988-2.062,1.5-3.132,3.71-.524,7.554-1.062,11.389-1.6-.466.414-1.211.755-1.324,1.241a37.584,37.584,0,0,0-.527,4.239c3.161-.422,3.893-3.427,5.7-5.426.344,1.525.632,2.812.988,4.4,1.123-.741,2.058-1.354,3-1.974-.048.477-.1.957-.158,1.551,2.121-.23,1.765-1.632,1.775-2.828,1.266.615.978-1.368,1.958-1.18.772.147,1.108-.306.785-.83a1.578,1.578,0,0,0-1.484-.368,2.145,2.145,0,0,0-1.173,2.465q-.895.649-1.79,1.3c-1.091-.846-.208-1.711.085-2.51a12.916,12.916,0,0,0-1.747-1.322,14.577,14.577,0,0,0-2.116-.741c.033-2.095-1.652-1.558-3.3-2.271l1.176,2.983,2.2-.8-1.494,2.115h-2.627c-.1-.869-.138-1.751-.316-2.606-.128-.606-.632-1.176-.629-1.759,0-1.457-.815-2.089-2-2.6a2.256,2.256,0,0,1-1.1-1.376c4.274.92,8.017,2.95,11.705,5.108v-.008l2.073,1.934,3.121-2.807c-.053.8.118,1.653,1.3,1.024.835-.443,1.6-1.025,2.4-1.55.171,1.771-1.93,1.475-2.617,2.628,3.109.335,4.966-.883,5.29-3.583l-2.763,1.038a9.015,9.015,0,0,1,1.386-1.309c1.291-.792,2.016-1.823,1.7-3.284,1.289-1.517,4.114.1,4.786-2.79l-4.046.448-.025-.185c2.041-.653,4.079-1.3,6.232-1.99.479,1.706-1.261,2.3-1.642,3.512,2.407-.007,4.658-2.428,5.919-6.535l-3.57.919-.125-.349,4.62-2.595c.16.985.521,1.7.311,2.139-1.223,2.577-1.913,5.583-5.016,6.8a19.991,19.991,0,0,0-2.71,1.293,2.3,2.3,0,0,0-1.073,1.111c-.915,3.256-3.169,5.021-6.255,6.036-1.331.439-3.322.408-2.8,3.013,1.75-.764,2.066,1.335,3.4,1.684a23,23,0,0,1,4.109,1.469c.326.158.526,1.148.376,1.629a6.879,6.879,0,0,1-3.45,3.726,10.155,10.155,0,0,1-6.187,1.673,3.554,3.554,0,0,0-.549,0c-3.961.174-4.4.083-8.466-1.79l1.534-1.411,1.158,1.78c1.5-1.831,1.5-1.831,1.068-3.628-2.991,1.008-5.937,2.173-8.98,2.983-2.983.789-5.851,2.531-9.351,1.357-.852,1.908-1.672,3.753-2.6,5.824-1.243-.813-2.4-.309-3.48.587a7.048,7.048,0,0,1-1.722,1.325,1.955,1.955,0,0,1-1.7-.228,1.837,1.837,0,0,1-.108-1.61,12.124,12.124,0,0,1,1.279-2.069l-.2,2.56a32.135,32.135,0,0,0,6.095-4.557,2.478,2.478,0,0,0,.552-1.643c-1.048-.694-.286-1.346.108-1.687a16.29,16.29,0,0,1,2.6-1.52c.12,2.191,1.216,2.177,2.5,1.795a7.177,7.177,0,0,0,2.136.153,45.015,45.015,0,0,0,11.715-4.479c-1.113-.673-2.214-1.34-3.417-2.072-.343,2.489-2.66,2.941-4.57,3.826-.426.2-1.193-.3-1.587-.084-1.479.815-2.868,1.791-4.292,2.708.79-1.768-1.682-1.223-1.752-2.21l3.685-4.721c.048,1.7-1.88,2.5-.862,4.158,2.231-1.349,2.336-3.257,1.9-5.54-2.166-.035-4.1-.259-5.6,1.817-1.479,2.043-3.364,3.791-4.994,5.731a23.833,23.833,0,0,0-1.717,2.66l1.532.9Zm33.714-3.37c2.056-.676,3.994-.8,4.593-3.273-1.652,1.144-3.419.422-5.332.529Zm-2.961-2.553-2.69,1.966c1.248,1.4,2.379,1.352,3.8.431Zm-14.122-6.7a4.462,4.462,0,0,0-.835-.083c-.5,1.672-.963,3.355-1.427,5.04C269.363,5345.711,269.739,5343.957,269.8,5342.021Zm18.13,2.536c.371,1.074.419,1.9.75,2.035a3.412,3.412,0,0,0,3.808-.528Zm-3.961-.741.451.559,1-.939-.3-.392Z" transform="translate(-96.911 -5243.505)"/>
  <path id="Path_166" data-name="Path 166" d="M228.287,5320.691c.06,1.98-1.2,2.723-2.449,3.45a7.438,7.438,0,0,0-3.5,3.635c-.228.574-.965.942-1.472,1.406l-.441-.331,1.883-3.166-1.983-4.949c1.228-1.378,1.88-3.028,4.122-2.834l-2.036.914c2.341,1.375,3.2-.88,5.1-.867a5.976,5.976,0,0,1-3.134,2.113c-2.244.775-2.321.822-2.036,3.392,1.141-.082,2.419.126,3.382-.33A11.112,11.112,0,0,0,228.287,5320.691Z" transform="translate(-143.518 -5249.673)"/>
  <path id="Path_167" data-name="Path 167" d="M215.608,5335.5l5.089-8.242-2.73-1.331c1.3-2.94,2.149-6.1,4.926-8.3l-1.419,2.833,2.429-.557c-.374.409-.5.637-.687.735a6.822,6.822,0,0,0-3.229,3.2c-.634,1.4-.213,1.99,1.311,1.868.536-.043,1.073-.061,1.775-.1-2.4,3.476-4.691,6.8-6.984,10.121Z" transform="translate(-150.622 -5250.063)"/>
  <path id="Path_168" data-name="Path 168" d="M263.683,5329.517c1.742-3.337,4.886-4.252,8.737-5.3l-1.8,1.5.975.48c-1.439,1.54-3.841,1.294-5.3,3.012C265.877,5329.7,264.563,5329.436,263.683,5329.517Z" transform="translate(-78.174 -5240.132)"/>
  <path id="Path_169" data-name="Path 169" d="M221.192,5316.261l1.2,1.063,2.926-.854.5,2.188,3.954-3.052c-.812,2.011-1.72,2.846-4.184,4.038-1.667-2.127-3.946-.677-6.079-.345l-.246-.784c.664-.758,1.326-1.518,2-2.28Z" transform="translate(-145.12 -5253.108)"/>
  <path id="Path_170" data-name="Path 170" d="M248.824,5295.49l.343,1.431a26.467,26.467,0,0,0-3.455,1.579c-1.888,1.208-3.668,2.588-5.5,3.893-.8.569-1.607,1.12-2.412,1.682a7.858,7.858,0,0,1,1.474-2.089C242.413,5299.754,245.632,5297.643,248.824,5295.49Z" transform="translate(-117.175 -5283.423)"/>
  <path id="Path_171" data-name="Path 171" d="M236.417,5315.32a7.435,7.435,0,0,1-6.581-1.8C232.777,5312.63,234.1,5315.694,236.417,5315.32Z" transform="translate(-129.181 -5256.5)"/>
  <path id="Path_172" data-name="Path 172" d="M267.274,5325.515c.476,1.691.476,1.691-1.376,3.171Z" transform="translate(-74.836 -5238.175)"/>
  <path id="Path_173" data-name="Path 173" d="M223.5,5317.705c1.221-1.412,1.221-1.412,2.723-1.9C225.336,5317.089,225.336,5317.089,223.5,5317.705Z" transform="translate(-138.735 -5252.804)"/>
  <path id="Path_174" data-name="Path 174" d="M213.986,5327.785l1.452-1.684.391.306-1.329,1.784Z" transform="translate(-153.067 -5237.292)"/>
  <path id="Path_175" data-name="Path 175" d="M262.713,5329.984c-.389-1.34.321-2.077,1.8-3.048-.795,1.342-1.3,2.189-1.8,3.036Z" transform="translate(-79.794 -5236.033)"/>
  <path id="Path_176" data-name="Path 176" d="M269.71,5324.149l-1.818.53-.105-.422,1.835-.479Z" transform="translate(-71.989 -5240.792)"/>
  <path id="Path_177" data-name="Path 177" d="M221.493,5326.954l.95-2.608c.5,1.267-.226,1.926-1.01,2.555Z" transform="translate(-141.844 -5239.937)"/>
  <path id="Path_178" data-name="Path 178" d="M224.029,5322.056l-1.058,2.629c-.065-1.078-.13-2.187,1.121-2.574Z" transform="translate(-139.569 -5243.388)"/>
  <path id="Path_179" data-name="Path 179" d="M228.677,5315.793l-1.843.685-.158-.37,1.672-.824Z" transform="translate(-133.943 -5253.595)"/>
  <path id="Path_180" data-name="Path 180" d="M217.987,5325.854l1.028-.919.208.221-.923,1.053Z" transform="translate(-147.037 -5239.049)"/>
  <path id="Path_181" data-name="Path 181" d="M218.139,5326.266l-.73.813-.231-.192.672-.863Z" transform="translate(-148.255 -5237.41)"/>
  <path id="Path_182" data-name="Path 182" d="M243.478,5302.173c.84,1.742.627,2.608-.667,3.642a7.371,7.371,0,0,1-.7.428c-1.379.859-2.755,1.723-4.31,2.694.787-1.808,1.447-2.43,2.983-2.929C242.485,5305.455,243.357,5304.232,243.478,5302.173Z" transform="translate(-117.176 -5273.351)"/>
  <path id="Path_183" data-name="Path 183" d="M241.355,5303.143l3.222-3.48.311.2-.965,1.833,1.662.949-3.9,1.081Z" transform="translate(-111.822 -5277.136)"/>
  <path id="Path_184" data-name="Path 184" d="M250.879,5300.025q-3.55,1.181-7.1,2.363l-.2-.641,7.248-2.141Z" transform="translate(-108.475 -5277.219)"/>
  <path id="Path_185" data-name="Path 185" d="M242.187,5303.582a1.4,1.4,0,0,1,.055,2.321,24.937,24.937,0,0,1-2.893,1.79l.05.056c1.434-1.051,1.94-2.738,2.843-4.15A.3.3,0,0,0,242.187,5303.582Z" transform="translate(-114.845 -5271.229)"/>
  <path id="Path_186" data-name="Path 186" d="M239.84,5307.143q1.967-1.077,3.933-2.148C242.751,5306.243,241.733,5307.494,239.84,5307.143Z" transform="translate(-114.105 -5269.101)"/>
  <path id="Path_187" data-name="Path 187" d="M241.5,5305.221c-.78.705-1.539,1.43-2.344,2.1a8.3,8.3,0,0,1-1.228.706c.679-1.911,1.254-2.328,3.623-2.754Z" transform="translate(-116.992 -5268.756)"/>
  <path id="Path_188" data-name="Path 188" d="M244.411,5297.241c-.519,1.015.213,1,.862,1.057-.965,1.2-.965,1.2-2.585.56l1.775-1.564Z" transform="translate(-109.812 -5280.784)"/>
  <path id="Path_189" data-name="Path 189" d="M237.512,5304.925c.662-.843.935-2.062,3.008-2.366-1.111,1.213-1.825,2-2.54,2.78Z" transform="translate(-117.613 -5272.77)"/>
  <path id="Path_190" data-name="Path 190" d="M239.737,5309.1q1.346-1.027,2.693-2.059C242.156,5308.388,241.141,5308.938,239.737,5309.1Z" transform="translate(-114.26 -5266.009)"/>
  <path id="Path_191" data-name="Path 191" d="M243.936,5299.173l-.9-3.179c1.594.672,1.594.672.835,3.113Z" transform="translate(-109.284 -5282.664)"/>
  <path id="Path_192" data-name="Path 192" d="M239.791,5297.915c1.281-.345,1.569.079,1.186,1.459Z" transform="translate(-114.179 -5279.94)"/>
  <path id="Path_193" data-name="Path 193" d="M243.784,5302.046l-1.148,1.435-.379-.271,1.085-1.584Z" transform="translate(-110.463 -5274.178)"/>
  <path id="Path_194" data-name="Path 194" d="M240.724,5300.157l-.923,1.221-.338-.148a4.259,4.259,0,0,1,.361-.936c.138-.2.429-.3.652-.445Z" transform="translate(-114.673 -5276.855)"/>
  <path id="Path_195" data-name="Path 195" d="M252.636,5294.479l-1.878,1.072c.328-1.05.91-1.408,1.9-1.045C252.673,5294.518,252.636,5294.479,252.636,5294.479Z" transform="translate(-97.652 -5285.114)"/>
  <path id="Path_196" data-name="Path 196" d="M241.856,5301.235l-1.2,1.178-.326-.3,1.055-1.265Z" transform="translate(-113.371 -5275.348)"/>
  <path id="Path_197" data-name="Path 197" d="M226.971,5341.323l-.4,1.949-3.811-.663c-1.389-1.3,1.657-1.852.8-3.257,1.732.508,1.732.508,1.725,2.217.594-.052,1.171-.1,1.745-.157Z" transform="translate(-140.393 -5217.321)"/>
  <path id="Path_198" data-name="Path 198" d="M221.193,5340.111c1.309-.838,2.164-2.105,4.174-1.181l-2.006.817.444,1.55C222.614,5341.853,221.98,5341.219,221.193,5340.111Z" transform="translate(-142.206 -5218.446)"/>
  <path id="Path_199" data-name="Path 199" d="M250.452,5344.456c-.15.519-.143.936-.343,1.105-1.2,1.011-3.961,1.713-6.776,1.773Z" transform="translate(-108.843 -5209.631)"/>
  <path id="Path_200" data-name="Path 200" d="M246.5,5324.922l-1.925-1.474h2.266c.577-1.678,1.181-3.437,1.843-5.366C249.6,5319.845,249.6,5319.845,246.5,5324.922Z" transform="translate(-106.968 -5249.375)"/>
  <path id="Path_201" data-name="Path 201" d="M240.8,5323.87c.75.175,1.479.342,2.209.514-.3.391-.6.78-1.086,1.4l2.224.393c-.85,1-1.732,1.68-2.833.859Z" transform="translate(-112.654 -5240.655)"/>
  <path id="Path_202" data-name="Path 202" d="M244.01,5323.389c2.216-.105,1.873,2.2,3.277,2.86l-.459.529a24.834,24.834,0,0,1-2.748-1.969c-.246-.228-.015-.979,0-1.485Z" transform="translate(-107.886 -5241.477)"/>
  <path id="Path_203" data-name="Path 203" d="M246.162,5321.137l3.232,2.139c-.376.3-.795.711-.847.668C247.686,5323.25,246.285,5323,246.162,5321.137Z" transform="translate(-104.578 -5244.773)"/>
  <path id="Path_204" data-name="Path 204" d="M245.347,5324.5c-.649-.2-1.512-.217-1.9-.652-.674-.76-.246-1.292.8-1.3.336.664.677,1.344,1.023,2.021Z" transform="translate(-109.155 -5242.65)"/>
  <path id="Path_205" data-name="Path 205" d="M242.253,5321.192l1.4,1.575-.316.273-1.452-1.593Z" transform="translate(-111.023 -5244.691)"/>
</svg>
