<svg xmlns="http://www.w3.org/2000/svg" xmlns:xlink="http://www.w3.org/1999/xlink" width="250" height="250" viewBox="0 0 250 250">
  <defs>
    <style>
      .cls-1 {
        fill: #f4f4f4;
      }

      .cls-2 {
        fill: #f2dd00;
      }

      .cls-3 {
        fill: #63a6b5;
      }

      .cls-4 {
        fill: #b9389b;
      }

      .cls-5 {
        filter: url(#Ellipse_85);
      }
    </style>
    <filter id="Ellipse_85" x="0" y="0" width="250" height="250" filterUnits="userSpaceOnUse">
      <feOffset dy="6" input="SourceAlpha"/>
      <feGaussianBlur stdDeviation="3" result="blur"/>
      <feFlood flood-opacity="0.161"/>
      <feComposite operator="in" in2="blur"/>
      <feComposite in="SourceGraphic"/>
    </filter>
  </defs>
  <g id="Group_1074" data-name="Group 1074" transform="translate(1457 -5584)">
    <g class="cls-5" transform="matrix(1, 0, 0, 1, -1457, 5584)">
      <circle id="Ellipse_85-2" data-name="Ellipse 85" class="cls-1" cx="116" cy="116" r="116" transform="translate(9 3)"/>
    </g>
    <g id="Group_775" data-name="Group 775" transform="translate(-2782.264 8683.519)">
      <path id="Path_1722" data-name="Path 1722" d="M1430.024-2915.193c-2-1.437-4.453-2.241-6.791-3.378.04-.132.174-.587.317-1.039,1.37-4.351-1.285-7.932-5.835-7.6a65.13,65.13,0,0,0-8.482,1.287c-2.509.52-4.829.588-6.506,2.191.4,1.092,1.356,3.82,1.684,4.8.52,1.558,1.579,1.915,2.9.965a4.787,4.787,0,0,1,.884-.372,12.355,12.355,0,0,1,.335,1.777c.182,5.135.353,10.271.456,15.407a1.364,1.364,0,0,1-.876.993c-1.285.175-3.672.418-3.672.418-.009.62.372,4.9.225,5.471-.308,1.2,5.347.241,5.734.226,3.179-.123,6.363-.335,9.521-.714a14.714,14.714,0,0,0,3.324-1.289,19.764,19.764,0,0,0,8.834-6.194C1435.687-2906.952,1434.824-2911.738,1430.024-2915.193Zm-15.866-4.407c.035-.366.72-.875,1.168-.948a3.147,3.147,0,0,1,2.086.249,1.792,1.792,0,0,1,.132,1.76,23.6,23.6,0,0,1-2.766,2.552l-.512-.23A23.8,23.8,0,0,1,1414.158-2919.6Zm10.683,16.028c-2.652,1.729-5.64,2.349-8.612,3.088-.446.112-.914.139-1.464.219-.129-3.067-.287-5.983-.336-8.9a1.659,1.659,0,0,1,.778-1.27c2.725-1.187,5.474-2.4,8.576-1.585a4.339,4.339,0,0,1,3.5,4.2C1427.514-2905.707,1426.876-2904.9,1424.841-2903.572Z" transform="translate(-12.401 -32.364)"/>
      <path id="Path_1723" data-name="Path 1723" d="M1514.184-2908c1.241,2.015,2.236,4.254,3.8,5.973a4.7,4.7,0,0,0,5.082,1.021,4.935,4.935,0,0,0,3.109-3.858,18.6,18.6,0,0,0,.04-3.569c2.117-.13,4.353-.311,6.591-.341.229,0,.632.882.677,1.381.235,2.631-.9,4.82-2.31,6.936a13.957,13.957,0,0,1-10.069,6.421c-5.048.726-8.782-1.241-11.5-5.356-1.844-2.785-3.418-5.781-3.607-9.151-.252-4.485-.4-9.078,2.35-13.006a8.509,8.509,0,0,1,3.209-2.529c1.745-.85,3.64-1.853,5.5-1.91a10.94,10.94,0,0,1,9.568,4.88,17.728,17.728,0,0,1,2.845,7.113,2.63,2.63,0,0,1-2.417,3.08c-2.4.411-4.767.962-7.156,1.417-1.769.338-3.549.62-5.324.927Zm6.522-8.655c-.777-3.108-1.545-3.887-3.47-3.668-2.091.238-3.111,1.7-3.116,4.591,1.564-.214,3.113-.425,4.663-.64C1519.393-2916.455,1520-2916.55,1520.706-2916.654Z" transform="translate(-43.25 -32.735)"/>
      <path id="Path_1724" data-name="Path 1724" d="M1449.52-2955.519c-1.043,2.1-1.888,4-2.931,5.784a2.532,2.532,0,0,1-1.768.741c-3.854.344-6.741-1.978-9.7-3.854-2.056-1.306-3.738-3.191-5.647-4.742a13.141,13.141,0,0,1-3.716-5.621c-2.143-5.334-4.287-10.669-6.474-16.112-2.054,1.8-3.969,3.365-3.625,6.64a72.408,72.408,0,0,1-.008,10.464c-.133,3.292-.768,3.778-4.059,3.753-.358,0-.716.049-1.074.077-1.9.153-2.4-.244-2.375-2.152.112-7.989.282-15.977.395-23.967.048-3.47.008-6.942.008-10.756,1.89,0,3.774-.057,5.651.022,1.03.043,1.562.639,1.531,1.788-.064,2.508-.02,5.019-.02,7.953,1.4-1.594,2.673-3.036,3.931-4.493,2.314-2.68,4.6-5.384,6.934-8.045a40.77,40.77,0,0,1,3.272-3.395,1.492,1.492,0,0,1,2.349.354c.936,1.163,1.947,2.275,2.777,3.51a1.652,1.652,0,0,1-.208,1.522c-2.615,3.057-5.365,6-7.938,9.092-1.318,1.583-.835,3.616-.158,5.206a106.383,106.383,0,0,0,6.649,14,25.17,25.17,0,0,0,13.98,11.31C1447.917-2956.239,1448.5-2955.943,1449.52-2955.519Z" transform="translate(-14.022 -10.044)"/>
      <path id="Path_1725" data-name="Path 1725" d="M1493.73-2951.645c-3.934-6.169-5.961-12.841-8.294-19.394-2.354-6.613-4.892-13.159-7.3-19.753a1.25,1.25,0,0,1,.413-1.129c1.538-.479,3.118-.825,4.684-1.219,2.285-.575,3.54.512,4.858,3.409a38.936,38.936,0,0,1,1.43,4.836c1.1,3.613,2.228,7.218,3.439,11.133,3.625-1.292,7.06-2.485,10.453-3.788.249-.1.379-1.04.249-1.5-.943-3.354-1.976-6.682-2.96-10.024-.629-2.141-.622-2.228,1.534-2.489,2.056-.248,4.135-.331,6.206-.423.851-.038,1.206.405,1.252,1.346.358,7.465,2.719,14.485,4.784,21.585,1.163,4,1.951,8.109,2.826,12.186a1.655,1.655,0,0,1-.657,1.335,15.593,15.593,0,0,1-3.02,1.592c-1.446.561-2.749-.354-3.405-2.562-.8-2.7-1.358-5.482-2.119-8.2-.531-1.9-1.227-3.749-1.9-5.776l-10.6,3.378,4.354,13.085C1498.481-2952,1495.939-2952.348,1493.73-2951.645Z" transform="translate(-34.947 -12.608)"/>
      <path id="Path_1726" data-name="Path 1726" d="M1455.364-2918.795c-1.922,1.049-5.378,2.923-7.233,4.079-1.655,1.031-2.156,1-2.942-.735-.257-.567-.459-1.161-.666-1.749s-.385-1.178-.657-2.016c4.184-1.835,8.368-3.7,12.579-5.5,1.806-.772,3.661-1.429,5.506-2.105a3.717,3.717,0,0,1,1.389-.261c.918.038,1.4.351,1.016,1.469-1.031,2.984-1.951,6.008-2.97,9.186,2.386.363,3.727,1.977,5.068,3.729,2.344,3.065,2.432,8.922.228,12.1a19.733,19.733,0,0,1-5.644,5.445,6.606,6.606,0,0,1-2.464.438c-4.751.711-9.819-2.969-11.162-6.934-.3-.885-.226-1.366.708-1.8a27.868,27.868,0,0,0,3.457-2.06c1.089-.718,1.65-.239,2.324.671a12.586,12.586,0,0,0,2.725,2.828c1.285.907,3.26.145,3.95-1.467s.887-3.287-.415-4.736c-1.108-1.233-2.591-.993-4.019-.842a3.2,3.2,0,0,0-.676.247c-2.433.881-2.436.881-3.366-1.6a4.862,4.862,0,0,0-.255-.821c-.245-.7,2.715-6.25,3.048-6.62C1454.783-2918,1455.473-2918.649,1455.364-2918.795Z" transform="translate(-24.705 -32.408)"/>
      <path id="Path_1727" data-name="Path 1727" d="M1486.419-2909.16c0,3.079-.056,5.744.02,8.406.051,1.82.133,1.8-1.585,1.768-.911-.018-1.824.069-2.735.062-1.621-.014-2.076-.564-2.092-2.2-.06-6.187-.111-12.375-.258-18.56-.073-3.055,2.329-5.312,5.009-4.264a7.968,7.968,0,0,1,3.462,2.683c2.879,4.128,10.96,22.825,11.517,25.046.491,1.953,2.765,3.658-2.354,2.745-.849-.132-1.714-.211-2.56-.3-3.54-.367-2.722-1.236-3.322-2.758q-2.269-5.76-4.533-11.522C1486.887-2908.308,1486.738-2908.543,1486.419-2909.16Z" transform="translate(-35.443 -33.269)"/>
      <path id="Path_1728" data-name="Path 1728" d="M1460.772-2970.4l-9.613,11.9a24.8,24.8,0,0,1-2.467-3.594c-2.194-4.875-4.252-9.813-6.362-14.728-.635-1.476-1.275-2.95-1.839-4.253,1.775-1.273,3.336-2.437,4.944-3.534,1.306-.891,2.548-.6,3.1.852,1.276,3.359,2.436,6.76,3.634,10.148.209.594.371,1.2.7,2.276,1.5-2.241,2.761-4.052,3.917-5.931a1.814,1.814,0,0,0,0-1.471c-1.1-2.359-2.307-4.673-3.431-7.024-.127-.265-.1-.854.079-.978,1.9-1.321,3.776-2.686,5.781-3.825,2.484-1.411,3.118-.907,4.018,1.8,1.287,3.869,2.855,7.646,4.344,11.445,1.944,4.962,3.935,9.9,5.89,14.862a1.721,1.721,0,0,1-1.08,2.448c-1.2.535-2.4,1.083-3.561,1.7-1.547.819-2.3.069-2.9-1.275-1.344-3.009-2.729-6-4.117-8.989C1461.532-2969.153,1461.173-2969.694,1460.772-2970.4Z" transform="translate(-23.696 -13.195)"/>
      <path id="Path_1729" data-name="Path 1729" d="M1554.593-2895.08a29.505,29.505,0,0,1-4.207.544c-2.145-.017-2.462-.611-2.471-2.742-.032-7.2-.148-14.4-.238-21.6a6.306,6.306,0,0,0-.152-.819c-2.329,0-4.679-.014-7.027.005-1.57.013-2.086-.375-2.246-1.885-.122-1.143-.18-2.291-.285-3.685a12.062,12.062,0,0,1,2.224-.41c3.36-.009,6.722.149,10.079.073,3.256-.074,6.509-.346,9.761-.564,1.509-.1,2.278.519,2.2,1.99a25.726,25.726,0,0,1-.42,3.563,1.337,1.337,0,0,1-.907.835c-1.745.243-3.5.42-5.262.517-.93.051-1.384.233-1.32,1.329.174,2.961.261,5.929.31,8.9.041,2.483-.027,4.967-.036,7.451C1554.587-2899.49,1554.593-2897.4,1554.593-2895.08Z" transform="translate(-52.85 -32.681)"/>
      <path id="Path_1730" data-name="Path 1730" d="M1517.007-2932.072c-.084,1.716-.711,2.522-1.906,2.451-1.6-.094-2.652-1.483-2.617-3.453.019-1.079.779-1.464,2.643-1.336C1516.47-2934.318,1517.079-2933.56,1517.007-2932.072Z" transform="translate(-45.228 -30.211)"/>
      <path id="Path_1731" data-name="Path 1731" d="M1524.752-2931.949c0,1.438-.694,2.362-1.752,2.334a3.362,3.362,0,0,1-2.921-3.181c-.009-1.328.435-1.684,2.132-1.706A2.278,2.278,0,0,1,1524.752-2931.949Z" transform="translate(-47.5 -30.19)"/>
      <path id="Path_1732" data-name="Path 1732" class="cls-2" d="M1603.87-2980.216c1.458,2.6,1.539,2.844.12,4.011-1.665,1.368-3.506,2.5-5.2,3.829a48.443,48.443,0,0,0-3.632,3.22c-.676.648-1.423.525-2.351-.575a12.457,12.457,0,0,1-1.745-2.2,2.582,2.582,0,0,1-.159-1.987,6.924,6.924,0,0,1,1.937-1.864c1.92-1.389,3.9-2.689,5.832-4.068.442-.315.7-.888,1.155-1.187.588-.388,1.21-.933,1.955-.822C1602.368-2981.771,1603.165-2980.8,1603.87-2980.216Z" transform="translate(-68.64 -16.022)"/>
      <path id="Path_1733" data-name="Path 1733" class="cls-3" d="M1603.854-2900.7c-2.255,1.953-2.475,2.082-3.9.927-1.677-1.355-3.157-2.929-4.8-4.323-1.229-1.043-2.551-1.986-3.887-2.908-.771-.531-.8-1.288.09-2.418a12.415,12.415,0,0,1,1.8-2.153,2.582,2.582,0,0,1,1.915-.557,6.929,6.929,0,0,1,2.216,1.521c1.747,1.6,3.421,3.281,5.16,4.891.4.369,1.012.51,1.4.892.5.5,1.158,1,1.2,1.749C1605.074-2902.485,1604.281-2901.507,1603.854-2900.7Z" transform="translate(-68.617 -36.868)"/>
      <path id="Path_1734" data-name="Path 1734" class="cls-4" d="M1608.5-2940.258c-.477,2.945-.564,3.184-2.4,3.214-2.155.036-4.3-.223-6.455-.239-1.613-.012-3.232.112-4.848.262-.932.087-1.441-.474-1.483-1.913a12.417,12.417,0,0,1,0-2.809,2.583,2.583,0,0,1,1.112-1.655,6.939,6.939,0,0,1,2.676-.254c2.367.109,4.729.324,7.1.444.542.028,1.1-.258,1.643-.211a2.973,2.973,0,0,1,2.042.573C1608.3-2942.409,1608.313-2941.151,1608.5-2940.258Z" transform="translate(-69.378 -27.447)"/>
      <path id="Path_1735" data-name="Path 1735" class="cls-2" d="M1366.334-2904.083c-1.458-2.6-1.539-2.844-.12-4.01,1.665-1.369,3.506-2.5,5.2-3.83a48.527,48.527,0,0,0,3.631-3.221c.676-.648,1.423-.524,2.352.576a12.439,12.439,0,0,1,1.745,2.2,2.581,2.581,0,0,1,.159,1.987,6.933,6.933,0,0,1-1.937,1.864c-1.921,1.388-3.9,2.689-5.832,4.067-.441.316-.7.889-1.155,1.187-.588.388-1.21.933-1.955.822C1367.836-2902.528,1367.04-2903.5,1366.334-2904.083Z" transform="translate(-1.175 -35.862)"/>
      <path id="Path_1736" data-name="Path 1736" class="cls-3" d="M1365.206-2981.8c1.766-2.4,1.952-2.577,3.6-1.768,1.935.949,3.727,2.156,5.637,3.153,1.43.745,2.928,1.372,4.435,1.974.869.348,1.065,1.078.448,2.379a12.441,12.441,0,0,1-1.281,2.5,2.582,2.582,0,0,1-1.744.967,6.932,6.932,0,0,1-2.5-.992c-2.059-1.175-4.063-2.442-6.115-3.627-.47-.272-1.1-.273-1.559-.561-.6-.375-1.35-.716-1.557-1.44C1364.411-2979.785,1364.969-2980.914,1365.206-2981.8Z" transform="translate(-0.981 -15.386)"/>
      <path id="Path_1737" data-name="Path 1737" class="cls-4" d="M1361.264-2941.289c.477-2.945.563-3.184,2.4-3.215,2.155-.035,4.3.223,6.455.239a48.25,48.25,0,0,0,4.847-.262c.932-.086,1.44.474,1.483,1.914a12.412,12.412,0,0,1,0,2.808,2.584,2.584,0,0,1-1.112,1.655,6.924,6.924,0,0,1-2.676.254c-2.367-.109-4.729-.323-7.1-.444-.542-.028-1.1.259-1.643.211a2.974,2.974,0,0,1-2.042-.573C1361.472-2939.137,1361.454-2940.4,1361.264-2941.289Z" transform="translate(0 -27.19)"/>
      <g id="Group_724" data-name="Group 724" transform="translate(1481.04 -3006.408)">
        <g id="Group_723" data-name="Group 723">
          <path id="Path_1738" data-name="Path 1738" d="M1560.308-2982.9c-1.005-2-1.719-4.123-3.449-5.732-3.227-3-6.569-5.644-10.613-5.367a12.37,12.37,0,0,0-6.414,1.415,11.689,11.689,0,0,0-6.656,9.334c-.311,2.12-.638,4.239-.922,6.363-.574,4.294,1.276,7.639,4.594,10.011a20.235,20.235,0,0,0,6.2,2.563c2.867.823,5.7.072,8.407-.944a9.446,9.446,0,0,0,3.325-1.823c2.539-2.5,3.965-5.767,5.181-9.028C1560.752-2978.23,1561.5-2980.533,1560.308-2982.9Zm-13.84-7.62a4.1,4.1,0,0,1,4.1,4.1,4.1,4.1,0,0,1-4.1,4.1,4.1,4.1,0,0,1-4.1-4.1A4.1,4.1,0,0,1,1546.468-2990.519Zm1.55,12.511a2.006,2.006,0,0,1-2.005,2.006,2.006,2.006,0,0,1-2.006-2.006,2.005,2.005,0,0,1,2.006-2.005A2.005,2.005,0,0,1,1548.019-2978.008Zm-9.508,3.644a4.1,4.1,0,0,1-4.1-4.1,4.1,4.1,0,0,1,4.1-4.1,4.1,4.1,0,0,1,4.1,4.1A4.1,4.1,0,0,1,1538.511-2974.364Zm7.021,8.426a4.1,4.1,0,0,1-4.1-4.1,4.1,4.1,0,0,1,4.1-4.1,4.1,4.1,0,0,1,4.1,4.1A4.1,4.1,0,0,1,1545.532-2965.938Zm8.192-7.723a4.1,4.1,0,0,1-4.1-4.1,4.1,4.1,0,0,1,4.1-4.1,4.1,4.1,0,0,1,4.1,4.1A4.1,4.1,0,0,1,1553.724-2973.661Z" transform="translate(-1532.15 2994.018)"/>
        </g>
      </g>
      <g id="Group_725" data-name="Group 725" transform="translate(1393.418 -3035.444)">
        <path id="Path_1739" data-name="Path 1739" d="M1409.677-3017.351a2.269,2.269,0,0,1,.205.532,2.9,2.9,0,0,1,.036.507c0,.177,0,.359-.012.544s-.012.366-.012.543a1.94,1.94,0,0,0-.073.267,5.858,5.858,0,0,1-.205.64,5.161,5.161,0,0,1-.29.641c-.1.193-.2.29-.3.29a1.922,1.922,0,0,1-.531-.181,1.3,1.3,0,0,1-.35-.29,2.356,2.356,0,0,1-.3-.459q-.145-.278-.339-.688a.6.6,0,0,0,.073-.266,1.088,1.088,0,0,0-.036-.266,1.105,1.105,0,0,1-.036-.265.968.968,0,0,1,.036-.254.949.949,0,0,0,.036-.254,6.141,6.141,0,0,1-.085-1.148,11.106,11.106,0,0,0-.036-1.148q-.048-.676-.084-1.341t-.085-1.317c-.016-.1-.036-.189-.06-.278a1.037,1.037,0,0,1-.036-.278,7.64,7.64,0,0,1,.048-.846,7.656,7.656,0,0,0,.048-.846c0-.226,0-.439-.012-.641s-.012-.406-.012-.616c0-.16,0-.318.012-.471s.012-.31.012-.471a1.483,1.483,0,0,0-.036-.314,1.532,1.532,0,0,1-.036-.314.746.746,0,0,1,.06-.29.753.753,0,0,0,.06-.29,2.381,2.381,0,0,0-.1-.653,2.109,2.109,0,0,1-.1-.556,3.239,3.239,0,0,1,.157-1.027,3.066,3.066,0,0,0,.157-.979,7.467,7.467,0,0,1,.242-1.861,7.288,7.288,0,0,0,.242-1.812,1.319,1.319,0,0,1,.085-.568c.056-.1.124-.254.206-.447a3.586,3.586,0,0,1,1.28.23,3.672,3.672,0,0,1,1.16.738.866.866,0,0,1,.205.544q.037.374.036.713a2.511,2.511,0,0,1-.181.954,2.456,2.456,0,0,0-.181.93,1.813,1.813,0,0,1-.133.689,1.815,1.815,0,0,0-.133.688v.29a2.67,2.67,0,0,1-.193.906,3.725,3.725,0,0,0-.193,1.293,1.973,1.973,0,0,1-.145.713,1.828,1.828,0,0,0-.145.641.978.978,0,0,0,.024.266.873.873,0,0,1-.241.06c-.081.009-.121.077-.121.206l.025.024a.021.021,0,0,0,.024.024c.081,0,.133-.02.157-.06a.363.363,0,0,0,.048-.121.4.4,0,0,1,.048-.12c.025-.04.077-.061.158-.061a.064.064,0,0,1,.072.072,1.532,1.532,0,0,1-.012.205,1.225,1.225,0,0,0-.013.181c0,.113.109.194.327.242a2.527,2.527,0,0,0,.519.072.76.76,0,0,0,.544-.254,4.642,4.642,0,0,0,.5-.593q.241-.337.5-.676a1.883,1.883,0,0,1,.543-.507,1.035,1.035,0,0,0,.387-.447,1.784,1.784,0,0,1,.387-.519,2.516,2.516,0,0,0,.531-.629,2.152,2.152,0,0,1,.532-.6,1.522,1.522,0,0,0,.483-.531,2.071,2.071,0,0,1,.435-.556.179.179,0,0,0,.048-.133.179.179,0,0,1,.048-.132.412.412,0,0,1,.133-.085.3.3,0,0,0,.132-.109.4.4,0,0,0,.06-.182.206.206,0,0,1,.085-.157,1.448,1.448,0,0,0,.411-.544q.145-.326.29-.628a2.087,2.087,0,0,1,.362-.532.859.859,0,0,1,.653-.229,3.413,3.413,0,0,1,.8.411.905.905,0,0,1,.387.8.767.767,0,0,1-.109.4,3.294,3.294,0,0,1-.266.374c-.1.129-.21.254-.314.374a1.586,1.586,0,0,0-.254.4.519.519,0,0,1-.1.17q-.049.048-.157.181t-.327.459q-.217.327-.58.979-.145.242-.242.411a3.252,3.252,0,0,1-.193.3,1.305,1.305,0,0,1-.229.242,1.573,1.573,0,0,1-.35.206,1.4,1.4,0,0,0-.411.3,4.411,4.411,0,0,0-.315.374,4.41,4.41,0,0,1-.314.375,1.576,1.576,0,0,1-.386.3,4.094,4.094,0,0,1-.315.362c-.081.1-.157.181-.229.254s-.109.125-.109.157a.346.346,0,0,1-.109.253c-.072.072-.157.149-.254.229s-.193.166-.29.254a.653.653,0,0,0-.193.35.647.647,0,0,1-.205.278q-.158.133-.314.278a2.567,2.567,0,0,0-.29.314.607.607,0,0,0-.133.387,1.124,1.124,0,0,0,.145.411c.1.193.209.406.339.64s.266.476.411.725.266.471.362.665a4.754,4.754,0,0,0,1.112,1.486,9.219,9.219,0,0,0,1.619,1.1,1.362,1.362,0,0,0,.387.145q.218.048.423.109a2.707,2.707,0,0,1,.339.121.26.26,0,0,1,.157.206c0,.386-.12.632-.362.736a2.105,2.105,0,0,1-.846.157,3.626,3.626,0,0,1-1.4-.3,7.442,7.442,0,0,1-1.414-.785,9.253,9.253,0,0,1-1.293-1.1,9.532,9.532,0,0,1-1.039-1.245c-.048-.064-.113-.153-.193-.266l-.242-.339a3.488,3.488,0,0,0-.229-.289c-.073-.081-.133-.121-.182-.121.016,0,0,.024-.048.073a.274.274,0,0,1-.048.072.381.381,0,0,0,.013.1.414.414,0,0,1,.012.1.53.53,0,0,1-.133.35.505.505,0,0,0-.133.326.282.282,0,0,0,.049.182.212.212,0,0,1,.048.133.307.307,0,0,1-.061.181.31.31,0,0,0-.06.181.218.218,0,0,0,.145.193.27.27,0,0,1,.145.266,1.782,1.782,0,0,1-.048.544,1.233,1.233,0,0,1-.193.277.418.418,0,0,1,.025.17Zm-1.354-4.47q-.29.144-.29.29a.532.532,0,0,0,.085.266.57.57,0,0,1,.084.29,1.116,1.116,0,0,1-.1.459,1.12,1.12,0,0,0-.1.46.626.626,0,0,0,.217.435q.121.29.169.29c.032,0,.065-.044.1-.133a.657.657,0,0,0,.048-.181q-.024-.508-.036-1.1A3.488,3.488,0,0,0,1408.323-3021.821Zm.169,3.432a.391.391,0,0,0,.048-.17.128.128,0,0,0-.145-.145.329.329,0,0,0-.217.048.517.517,0,0,0-.1.17.26.26,0,0,0,.193.072A.9.9,0,0,1,1408.492-3018.389Zm-.242-6.985c.016,0,.04-.016.073-.048a.086.086,0,0,0-.1-.1c-.048,0-.073.033-.073.1C1408.154-3025.39,1408.186-3025.374,1408.251-3025.374Zm.073,1.232c-.064.033-.1.065-.1.1s.032.065.1.1a.038.038,0,0,1,.024-.036c.016-.008.025-.044.025-.109Zm.435-4.906c-.032-.064-.057-.1-.072-.1a.144.144,0,0,0-.073.036.1.1,0,0,0-.048.085c0,.048.04.072.121.072C1408.734-3028.951,1408.758-3028.983,1408.758-3029.048Zm-.1,5a.485.485,0,0,0,.1-.314,1.776,1.776,0,0,0-.012-.181c-.008-.073-.036-.109-.085-.109a.989.989,0,0,0-.072.339A.431.431,0,0,0,1408.661-3024.045Zm.846,3.021a.408.408,0,0,0,.025-.169.541.541,0,0,0-.266-.483.174.174,0,0,0-.1.169.727.727,0,0,0,.048.338c.032.048.137.089.315.121-.1.161-.178.3-.242.423a1.493,1.493,0,0,0-.1.641,1.85,1.85,0,0,0,.072.532q.049-.242.073-.46a.8.8,0,0,1,.12-.362.3.3,0,0,0,.169.073c.049,0,.073-.049.073-.145,0-.145,0-.266-.012-.363A.541.541,0,0,0,1409.507-3021.024Zm.17,3.843a.418.418,0,0,0-.025-.17h.025Z" transform="translate(-1407.139 3035.259)"/>
        <path id="Path_1740" data-name="Path 1740" d="M1435.751-3015.477a1.1,1.1,0,0,1,.109.471,2.887,2.887,0,0,0,.013.447c-.017.016-.1.088-.242.217s-.314.267-.507.411-.375.278-.544.4a.817.817,0,0,1-.35.182.334.334,0,0,1-.3-.206.579.579,0,0,0-.278-.278.928.928,0,0,1-.374-.254,1.181,1.181,0,0,1-.205-.35,2.164,2.164,0,0,1-.109-.411q-.037-.218-.085-.411c-.081-.274-.166-.559-.254-.858a2.951,2.951,0,0,1-.133-.833,1.691,1.691,0,0,1,.013-.218,1.635,1.635,0,0,0,.012-.194,1.948,1.948,0,0,0-.12-.7,1.727,1.727,0,0,1-.121-.629,3,3,0,0,1-.024-.3,7.747,7.747,0,0,0-.1-.773,3.411,3.411,0,0,0-.23-.786c-.105-.242-.238-.362-.4-.362a1.136,1.136,0,0,0-.411.085l-.459.181c-.161.064-.318.125-.471.181a1.281,1.281,0,0,1-.447.085.481.481,0,0,0-.314.121.481.481,0,0,1-.315.121.538.538,0,0,1-.109-.012.573.573,0,0,0-.109-.012,1.134,1.134,0,0,0-.435.181,1.137,1.137,0,0,1-.556.182.866.866,0,0,0-.737.52,5.935,5.935,0,0,0-.519,1.208q-.218.689-.363,1.341a4.467,4.467,0,0,1-.289.943c-.048.1-.118.25-.206.459a4.629,4.629,0,0,1-.326.628,3.014,3.014,0,0,1-.435.556.739.739,0,0,1-.531.242,1.02,1.02,0,0,1-.375-.121.422.422,0,0,1-.254-.411,2.357,2.357,0,0,1,.1-.652q.1-.34.23-.7t.254-.714a5.862,5.862,0,0,0,.193-.688,1.249,1.249,0,0,1,.157-.339.657.657,0,0,0,.109-.362,4.66,4.66,0,0,1,.266-1.39,4.034,4.034,0,0,0,.242-1.341,1.454,1.454,0,0,0-.1-.52,1.378,1.378,0,0,1-.1-.495c0-.145.064-.218.193-.218a1.442,1.442,0,0,1,.205.012,1.323,1.323,0,0,0,.182.012.265.265,0,0,0,.29-.23,2.394,2.394,0,0,0,.048-.5,2.506,2.506,0,0,1,.1-.713,4.531,4.531,0,0,1,.218-.592c.08-.177.153-.346.217-.508a1.286,1.286,0,0,0,.1-.483,2.9,2.9,0,0,1,.169-.966l.339-.967c.064-.128.133-.254.205-.374a.808.808,0,0,0,.109-.423,1.226,1.226,0,0,0,.205-.411c.04-.145.076-.294.109-.446s.064-.3.1-.447a1.037,1.037,0,0,1,.17-.387q.362-.773.737-1.547t.713-1.571a5.1,5.1,0,0,1,.5-.918,1.316,1.316,0,0,1,.5-.435,1.524,1.524,0,0,1,.568-.133c.2-.008.439-.012.714-.012a.841.841,0,0,1,.713.338,2.272,2.272,0,0,1,.374.822,5.093,5.093,0,0,1,.145,1q.024.52.025.906a3.091,3.091,0,0,0,.048.6,2.522,2.522,0,0,1,.048.484.556.556,0,0,1-.036.194.539.539,0,0,0-.036.194c.048,0,.109.132.181.4a9.841,9.841,0,0,1,.206.991c.064.4.124.821.181,1.281s.1.882.133,1.269c0,.145,0,.3-.012.459s-.013.322-.013.482a1.846,1.846,0,0,0,.048.424,1.946,1.946,0,0,1,.048.447,1.1,1.1,0,0,0,.133.52q.133.254.29.5t.29.471a.866.866,0,0,1,.133.423.9.9,0,0,1-.109.422.9.9,0,0,0-.109.423,2.986,2.986,0,0,0,.109.786q.108.4.254.81t.254.8a2.776,2.776,0,0,1,.109.75,3.415,3.415,0,0,0,.218,1.208,3.118,3.118,0,0,1,.217,1.087Zm-7.057-6.839a1.078,1.078,0,0,1,.17.012,1.007,1.007,0,0,0,.169.012.163.163,0,0,0,.072-.012.174.174,0,0,1,.073-.012q.845-.145,1.317-.206a2.476,2.476,0,0,0,.7-.169.465.465,0,0,0,.278-.3,2.579,2.579,0,0,0,.048-.58,1.721,1.721,0,0,0-.084-.544,3.349,3.349,0,0,1-.133-.616c-.048-.339-.092-.765-.133-1.281s-.088-1.015-.145-1.5a11.341,11.341,0,0,0-.205-1.245q-.121-.52-.29-.52c-.065,0-.133.085-.205.254s-.145.362-.218.581-.141.431-.205.64-.113.363-.145.459a1.479,1.479,0,0,1-.157.484,2.728,2.728,0,0,1-.242.362c-.088.113-.165.214-.229.3a.467.467,0,0,0-.1.278.39.39,0,0,0,.012.1.414.414,0,0,1,.012.1,1.863,1.863,0,0,1-.157.543q-.157.4-.338.858t-.327.894a2.3,2.3,0,0,0-.145.653,2.776,2.776,0,0,0,.025.338.2.2,0,0,0,.217.194,1.99,1.99,0,0,1,.362-.025Z" transform="translate(-1412.14 3034.98)"/>
        <path id="Path_1741" data-name="Path 1741" d="M1454-3025.922a18.923,18.923,0,0,0,.205-2.272q.037-1.161.036-2.368a2.585,2.585,0,0,1,.1-.689,2.61,2.61,0,0,0,.1-.689,2.432,2.432,0,0,0-.013-.289c-.008-.065-.016-.141-.024-.23s-.016-.213-.025-.374-.012-.4-.012-.725c0-.209,0-.423.012-.64s.025-.419.048-.6a3.757,3.757,0,0,1,.085-.46c.032-.121.08-.181.145-.181a1.875,1.875,0,0,1,1.631.628,2.87,2.87,0,0,1,.447,1.692q0,.387-.036.8t-.036.822a3.357,3.357,0,0,0,.024.4,3.433,3.433,0,0,1,.024.4c0,.258-.013.512-.036.761s-.036.5-.036.761q0,.314.024.616c.016.2.024.407.024.617,0,.258,0,.515-.012.773s-.012.516-.012.773a1.569,1.569,0,0,0,.084.5,1.484,1.484,0,0,1,.085.471,1.441,1.441,0,0,1-.012.169,1.336,1.336,0,0,0-.012.169,5.15,5.15,0,0,0,.084.943,5.238,5.238,0,0,1,.085.942,6.229,6.229,0,0,1,.121,1.632,7.92,7.92,0,0,0,.073,1.631,1.762,1.762,0,0,0-.024.29v.29a12.027,12.027,0,0,0,.073,1.329q.073.653.1,1.33c.015.371.028.725.036,1.063s.028.684.061,1.039a.652.652,0,0,0-.411.23,4.052,4.052,0,0,0-.266.374.369.369,0,0,1-.29-.109.581.581,0,0,0-.217-.157c-.032,0-.06.052-.085.157a1.633,1.633,0,0,1-.133.35,1.244,1.244,0,0,1-.266.351.616.616,0,0,1-.436.157q-.363,0-.435-.194a1.228,1.228,0,0,1-.072-.435,1.381,1.381,0,0,0-.242-.725,1.652,1.652,0,0,1-.242-.895,3.869,3.869,0,0,1,.036-.531,3.987,3.987,0,0,0,.036-.532,1.985,1.985,0,0,0-.025-.362.6.6,0,0,0,.073-.266.781.781,0,0,0-.109-.387.781.781,0,0,1-.109-.386.5.5,0,0,1,.109-.327.462.462,0,0,0,.109-.3,1.205,1.205,0,0,0-.205-.6,1.366,1.366,0,0,1-.206-.725,3.479,3.479,0,0,1,.061-.64q.06-.326.109-.665a.528.528,0,0,1-.1-.339.83.83,0,0,1,.012-.145.937.937,0,0,0,.012-.145.9.9,0,0,0-.024-.217.89.89,0,0,1-.025-.218c0-.08,0-.169.013-.265s.012-.185.012-.267a3.374,3.374,0,0,0-.1-.387,4.95,4.95,0,0,0-.169-.471,2.546,2.546,0,0,0-.218-.411c-.081-.121-.161-.181-.241-.181a12.879,12.879,0,0,0-2.635.387q-1.353.338-2.634.556a.406.406,0,0,0-.327.374,3.528,3.528,0,0,0-.06.64,6.157,6.157,0,0,1-.036.713c-.025.2-.048.384-.073.544s-.044.318-.06.471a4.531,4.531,0,0,0-.025.471,1.09,1.09,0,0,0,.085.423,1.054,1.054,0,0,1,.085.4,1.07,1.07,0,0,1-.121.447,1.1,1.1,0,0,0-.121.471.155.155,0,0,0,.145.169q.145.024.145.217a.719.719,0,0,1-.012.133c-.008.04-.021.084-.036.133a.3.3,0,0,0,.109.254,2.265,2.265,0,0,0,.229.158q-.024.194-.048.386a3,3,0,0,0-.025.387,1.854,1.854,0,0,0,.06.471,1.861,1.861,0,0,1,.06.472,2.167,2.167,0,0,1-.024.326,2.134,2.134,0,0,0-.025.326.421.421,0,0,1-.12-.06.164.164,0,0,0-.1-.036.267.267,0,0,0-.194.109,2.213,2.213,0,0,0-.193.254,1.69,1.69,0,0,1-.206.254.305.305,0,0,1-.2.109.357.357,0,0,1-.181-.048.322.322,0,0,0-.157-.048.472.472,0,0,0-.363.157.446.446,0,0,1-.338.157.8.8,0,0,1-.242-.048q-.29-.145-.484-.254a.771.771,0,0,1-.29-.266,1.076,1.076,0,0,1-.133-.423,5.726,5.726,0,0,1-.036-.725.824.824,0,0,1,.073-.35.768.768,0,0,0,.072-.326.815.815,0,0,0-.06-.314.738.738,0,0,1-.06-.29.467.467,0,0,1,.072-.242.465.465,0,0,0,.073-.242.561.561,0,0,0-.048-.229.55.55,0,0,1-.048-.23,2.284,2.284,0,0,1,.084-.616,2.179,2.179,0,0,0,.085-.592.913.913,0,0,0-.012-.145.853.853,0,0,1-.012-.145.88.88,0,0,1,.109-.386,1.014,1.014,0,0,0,.109-.459,1.116,1.116,0,0,0-.1-.459,1.122,1.122,0,0,1-.1-.46q0-.361.025-.725t.024-.725a1.721,1.721,0,0,1,.1-.568,1.714,1.714,0,0,0,.1-.568,8.014,8.014,0,0,1,.1-1.245,7.938,7.938,0,0,0,.1-1.22c0-.081,0-.165-.012-.254s-.012-.173-.012-.254a6.892,6.892,0,0,1,.133-1.281,6.843,6.843,0,0,0,.132-1.257.973.973,0,0,0-.036-.254.946.946,0,0,1-.036-.254,3.158,3.158,0,0,1,.085-.725,3.2,3.2,0,0,0,.084-.725,9.44,9.44,0,0,1,.073-1.148,9.833,9.833,0,0,0,.072-1.2,1.477,1.477,0,0,0-.036-.326,1.535,1.535,0,0,1-.036-.35.319.319,0,0,1,.314-.339,1.45,1.45,0,0,1,1.208.435,1.881,1.881,0,0,1,.339,1.184c0,.081,0,.166-.012.254s-.013.174-.013.254a3.946,3.946,0,0,0,.1.882,4.066,4.066,0,0,1,.1.906q0,.7-.061,1.438t-.06,1.365a.533.533,0,0,0,.072.254.526.526,0,0,1,.073.254,1.408,1.408,0,0,1-.013.205,1.356,1.356,0,0,0-.012.181,2.211,2.211,0,0,0,.012.23,1.962,1.962,0,0,1,.013.229,1.185,1.185,0,0,1-.073.4,1.206,1.206,0,0,0-.072.4c0,.13,0,.254.012.375a.859.859,0,0,1-.036.326c0,.033.028.064.085.1a.3.3,0,0,0,.133.048.274.274,0,0,0,.121-.023q1.522-.266,2.9-.472T1454-3025.922Zm-7.661,5.679v-.109c0-.04-.016-.06-.048-.06-.064,0-.1.025-.1.073a.159.159,0,0,0,.036.1.634.634,0,0,0,.06.072c.016-.016.024-.028.024-.036S1446.321-3020.227,1446.337-3020.243Zm-.072,1.885.024-.048-.048-.024Zm10.681,1.16a.38.38,0,0,1,.061-.048.082.082,0,0,0,.036-.072.107.107,0,0,0-.121-.121c-.1,0-.145.041-.145.121a.074.074,0,0,0,.06.084A.459.459,0,0,1,1456.946-3017.2Zm0,.484c0-.048-.016-.073-.048-.073-.065,0-.1.016-.1.048,0,.064.008.1.024.1a.03.03,0,0,0,.048,0C1456.89-3016.642,1456.914-3016.667,1456.946-3016.714Z" transform="translate(-1418.4 3035.444)"/>
        <path id="Path_1742" data-name="Path 1742" d="M1478.073-3030.226a2.633,2.633,0,0,1-.109.858.52.52,0,0,1-.519.326.26.26,0,0,1,.012-.084.279.279,0,0,0,.012-.084l-.048-.048a.085.085,0,0,0-.1.1q0,.048.145.1-.338.29-.58.531a.987.987,0,0,0-.242.726.912.912,0,0,0,.024.205.9.9,0,0,1,.024.181.181.181,0,0,1-.121.158c-.081.04-.17.081-.266.121a2.074,2.074,0,0,0-.266.133.218.218,0,0,0-.121.193c0,.033.032.082.1.145a1.03,1.03,0,0,0-.387.8,1.054,1.054,0,0,0,.012.157,1.181,1.181,0,0,1,.012.157.808.808,0,0,1-.048.278,1.562,1.562,0,0,0-.072.277.233.233,0,0,0,.072.169.235.235,0,0,1,.073.169.155.155,0,0,1-.133.157.681.681,0,0,0-.229.108.311.311,0,0,0-.121.157l-.048.17a.869.869,0,0,1-.06.157.276.276,0,0,1-.133.121.739.739,0,0,0,.1.23.7.7,0,0,1,.1.326,1.014,1.014,0,0,1-.1.412c-.065.145-.133.3-.205.459s-.141.334-.205.52a1.713,1.713,0,0,0-.1.568,1.412,1.412,0,0,1-.12.568c-.081.185-.165.367-.254.543s-.173.359-.254.544a1.468,1.468,0,0,0-.121.592v.169c0,.048-.033.073-.1.073-.032,0-.052-.02-.06-.061s-.052-.06-.132-.06a.086.086,0,0,0-.1.1,2.794,2.794,0,0,1-.315,1.172,2.961,2.961,0,0,1-.676.906,2.777,2.777,0,0,0-.254.315,3.255,3.255,0,0,1-.4.446,2.369,2.369,0,0,1-.58.4,1.766,1.766,0,0,1-.8.169.628.628,0,0,1-.193-.024.681.681,0,0,0-.278.073.825.825,0,0,1-.35.072.953.953,0,0,1-.7-.29,1.731,1.731,0,0,1-.35-.351,4.708,4.708,0,0,1-.4-.58,4.3,4.3,0,0,1-.339-.725,2.424,2.424,0,0,1-.145-.834,1.914,1.914,0,0,0-.181-.822,1.962,1.962,0,0,1-.182-.846c0-.161.008-.323.024-.484s.024-.33.024-.507q0-.338-.024-.653c-.016-.208-.024-.418-.024-.628q0-1.837.182-3.77t.181-3.867a1.07,1.07,0,0,1,.085-.435.964.964,0,0,0,.085-.387,1.241,1.241,0,0,0-.013-.182,1.051,1.051,0,0,1-.012-.157,3.272,3.272,0,0,1,.025-.4,3.562,3.562,0,0,0,.024-.4,1.448,1.448,0,0,0-.048-.375,1.272,1.272,0,0,1-.048-.326.332.332,0,0,1,.314-.363,4.256,4.256,0,0,1,.629-.047,1.107,1.107,0,0,1,.967.35,1.71,1.71,0,0,1,.242.979.88.88,0,0,1-.025.217.909.909,0,0,0-.024.217,2.4,2.4,0,0,0,.024.339,2.372,2.372,0,0,1,.025.338,1.315,1.315,0,0,1-.1.531,2.194,2.194,0,0,0,.036.412,2.259,2.259,0,0,1,.036.411,1.277,1.277,0,0,1-.024.242,1.359,1.359,0,0,0-.025.266c0,.1,0,.193.013.29s.012.192.012.289a2.335,2.335,0,0,1-.036.436,3.256,3.256,0,0,0-.036.556,6.674,6.674,0,0,0,.085,1.124,4.9,4.9,0,0,1,.085.713,1.058,1.058,0,0,1-.145.507,1.105,1.105,0,0,0-.145.532.4.4,0,0,0,.121.29.349.349,0,0,1,.121.242.44.44,0,0,1-.1.254,3.327,3.327,0,0,1-.217.266c-.081.088-.153.169-.218.242a.42.42,0,0,0-.1.132.829.829,0,0,0,.182.508.835.835,0,0,1,.181.508,2.811,2.811,0,0,1-.132.785,5.548,5.548,0,0,0-.182.786,1.784,1.784,0,0,1,.205.3.722.722,0,0,1,.085.351.912.912,0,0,1-.012.145.855.855,0,0,0-.012.145.858.858,0,0,0,.084.338,2.45,2.45,0,0,0,.205.375,2.64,2.64,0,0,0,.242.314c.081.088.137.133.169.133q.193,0,.447-.338a6.809,6.809,0,0,0,.507-.8q.255-.459.5-.943l.387-.773a6.151,6.151,0,0,0,.435-.979,4.015,4.015,0,0,1,.46-.93.437.437,0,0,0,.048-.193,1.45,1.45,0,0,1,.193-.652,6.2,6.2,0,0,1,.362-.556,4.912,4.912,0,0,0,.338-.532,1.145,1.145,0,0,0,.145-.556q.314-.628.664-1.22a10.224,10.224,0,0,0,.617-1.22,4.843,4.843,0,0,1,.591-1.112,8.454,8.454,0,0,1,.858-.991.617.617,0,0,1-.024-.192,1.578,1.578,0,0,1,.387-.834,10.4,10.4,0,0,0,.677-1.027c.016-.032.06-.141.133-.326s.161-.383.266-.593a4.211,4.211,0,0,1,.339-.567c.12-.169.237-.254.35-.254a.437.437,0,0,0,.411-.206,1.183,1.183,0,0,1,.314-.35.943.943,0,0,1,.447.266c.121.129.222.193.3.193a.524.524,0,0,0,.339-.145.546.546,0,0,1,.362-.145q.29,0,.459.435a5.164,5.164,0,0,1,.266,1.063,13.338,13.338,0,0,1,.133,1.354q.036.725.036,1.329a.907.907,0,0,1-.144.5.765.765,0,0,0-.145.375c.015.064.028.121.036.169a.843.843,0,0,1,.012.145q-.024.363-.073.858a1.257,1.257,0,0,1-.217.689,1.676,1.676,0,0,0-.205.761q-.061.568-.133.979a.73.73,0,0,0,.06.3.715.715,0,0,1,.061.3.958.958,0,0,1-.085.351,1.039,1.039,0,0,0-.085.4q0,1.282-.084,2.525t-.085,2.525a.841.841,0,0,0,.048.266.851.851,0,0,1,.048.267,2.671,2.671,0,0,1-.06.567.546.546,0,0,1-.327.4,2.315,2.315,0,0,0,.1.471,1.362,1.362,0,0,1,.073.4.82.82,0,0,1-.158.435,1.135,1.135,0,0,0-.157.628,2.036,2.036,0,0,1-.1.75.907.907,0,0,1-.205.313,1.481,1.481,0,0,1-.205.157q-.1.061-.1.278-.218.266-.471.641a.692.692,0,0,1-.544.375q-.194,0-.339-.254a3.093,3.093,0,0,1-.254-.6,5.623,5.623,0,0,1-.169-.7,3.444,3.444,0,0,1-.06-.567q.048-.847.1-1.7t.048-1.7a3.693,3.693,0,0,0-.085-.761,3.377,3.377,0,0,1-.085-.688l.17-.592a5.121,5.121,0,0,0,.12-.532,3.023,3.023,0,0,0,.048-.52,1.682,1.682,0,0,0-.024-.265,1.557,1.557,0,0,1-.025-.267,2.462,2.462,0,0,1,.025-.362,2.654,2.654,0,0,0,.024-.362.716.716,0,0,0-.036-.23.725.725,0,0,1-.036-.229,2.535,2.535,0,0,1,.072-.521q.073-.326.121-.64a.344.344,0,0,1-.048-.193.9.9,0,0,1,.024-.217.894.894,0,0,0,.024-.218.352.352,0,0,0-.048-.193c.031-.225.076-.471.133-.737a3.5,3.5,0,0,0,.085-.712,2.751,2.751,0,0,0-.073-.593,2.757,2.757,0,0,1-.072-.592.572.572,0,0,1,.072-.277.617.617,0,0,0,.073-.3,4.457,4.457,0,0,0-.073-.774,7.217,7.217,0,0,1-.1-.773c0-.032-.032-.081-.1-.145a1.73,1.73,0,0,0-.218-.181,3.9,3.9,0,0,0-.338-.206c-.048,0-.073.032-.073.1s.036.1.109.1A.841.841,0,0,1,1478.073-3030.226Zm-8.918,8.87c-.064,0-.1.04-.1.121.032.033.048.057.048.073q.048-.024.109-.048c.04-.016.06-.04.06-.073C1469.277-3021.333,1469.236-3021.356,1469.156-3021.356Zm.218-3.843a.1.1,0,0,0-.013-.061.048.048,0,0,1-.012-.036.2.2,0,0,0-.072.121.042.042,0,0,0,.048.048C1469.357-3025.127,1469.374-3025.151,1469.374-3025.2Zm4.278,2.972c0-.08,0-.165-.013-.254s-.044-.132-.109-.132-.105.057-.121.169a2.572,2.572,0,0,0-.025.362v.254c0,.072.025.109.073.109a.267.267,0,0,0,.157-.23A2.162,2.162,0,0,1,1473.651-3022.227Zm-.073,1.04a.164.164,0,0,1-.048-.121c-.048,0-.072.016-.072.048a.37.37,0,0,1,.048.145Zm.7-2.369a.139.139,0,0,0,.048-.1.043.043,0,0,0-.048.048Zm1.184-.6a.048.048,0,0,0,.012.037.05.05,0,0,1,.012.036.038.038,0,0,1-.024.036.039.039,0,0,0-.024.037.1.1,0,0,1-.024-.072C1475.416-3024.1,1475.431-3024.127,1475.464-3024.16Zm.556-2.514a.164.164,0,0,1-.013.073.158.158,0,0,0-.012.072.158.158,0,0,1,.012-.072A.164.164,0,0,0,1476.02-3026.674Zm.144-1.691a.159.159,0,0,0,.013.072.175.175,0,0,1,.012.073c.048,0,.072-.016.072-.049a.184.184,0,0,1-.024-.073.188.188,0,0,0-.025-.072Zm4.084,8.313a.669.669,0,0,1-.06-.242q-.013-.145-.133-.145a.149.149,0,0,0-.157.109,1.64,1.64,0,0,0-.061.253l-.048.291a.856.856,0,0,1-.072.242.276.276,0,0,1,.072.048.069.069,0,0,0,.048.023.322.322,0,0,0,.327-.193A.956.956,0,0,0,1480.248-3020.052Zm-.386-5.607-.025.048.048.024Zm.242-.459a.994.994,0,0,0,.144-.1c0-.1-.04-.144-.121-.144a.106.106,0,0,0-.12.121A.113.113,0,0,0,1480.1-3026.118Zm.193.556a.085.085,0,0,0-.1.1.021.021,0,0,0,.024.024l.024.024a.133.133,0,0,0,.061-.048.2.2,0,0,1,.036-.048Zm0,1.716a.533.533,0,0,1,.1-.121.1.1,0,0,0-.072-.024.2.2,0,0,0-.036.048.343.343,0,0,1-.06.073.053.053,0,0,1,.036.012A.045.045,0,0,0,1480.3-3023.846Zm-.024,7.178-.048.072h.072Zm.217-12.93-.024-.048v-.024c-.081,0-.121.057-.121.169a.191.191,0,0,0,.025.073q.024.048.048.048c.032,0,.052-.025.06-.073A.928.928,0,0,0,1480.49-3029.6Zm-.024,2.538a.051.051,0,0,0-.012-.036.048.048,0,0,1-.013-.037h-.024a.022.022,0,0,0-.025.024l.025.048Zm.507,11.527a.3.3,0,0,1-.085-.012.247.247,0,0,0-.084-.012.48.48,0,0,0,.048-.06.081.081,0,0,1,.073-.037.077.077,0,0,1,.072.048.021.021,0,0,0-.024.024Z" transform="translate(-1425.124 3035.011)"/>
        <path id="Path_1743" data-name="Path 1743" d="M1494.978-3017.351a2.2,2.2,0,0,1,.205.532,2.821,2.821,0,0,1,.036.507c0,.177,0,.359-.012.544s-.013.366-.013.543a2.1,2.1,0,0,0-.072.267,5.834,5.834,0,0,1-.205.64,5.385,5.385,0,0,1-.29.641c-.105.193-.205.29-.3.29a1.911,1.911,0,0,1-.531-.181,1.291,1.291,0,0,1-.351-.29,2.367,2.367,0,0,1-.3-.459q-.145-.278-.339-.688a.6.6,0,0,0,.072-.266,1.123,1.123,0,0,0-.036-.266,1.081,1.081,0,0,1-.036-.265.948.948,0,0,1,.036-.254.978.978,0,0,0,.036-.254,6.12,6.12,0,0,1-.084-1.148,11.038,11.038,0,0,0-.036-1.148q-.048-.676-.085-1.341c-.024-.443-.052-.883-.084-1.317-.017-.1-.036-.189-.06-.278a1.037,1.037,0,0,1-.036-.278,7.522,7.522,0,0,1,.048-.846,7.81,7.81,0,0,0,.048-.846c0-.226,0-.439-.013-.641s-.012-.406-.012-.616c0-.16,0-.318.012-.471s.013-.31.013-.471a1.532,1.532,0,0,0-.036-.314,1.528,1.528,0,0,1-.036-.314.755.755,0,0,1,.06-.29.756.756,0,0,0,.061-.29,2.4,2.4,0,0,0-.1-.653,2.108,2.108,0,0,1-.1-.556,3.222,3.222,0,0,1,.157-1.027,3.08,3.08,0,0,0,.157-.979A7.462,7.462,0,0,1,1493-3032a7.322,7.322,0,0,0,.242-1.812,1.319,1.319,0,0,1,.084-.568c.057-.1.125-.254.205-.447a3.588,3.588,0,0,1,1.281.23,3.674,3.674,0,0,1,1.16.738.875.875,0,0,1,.205.544c.024.25.036.487.036.713a2.526,2.526,0,0,1-.181.954,2.457,2.457,0,0,0-.182.93,1.815,1.815,0,0,1-.133.689,1.8,1.8,0,0,0-.133.688v.29a2.649,2.649,0,0,1-.193.906,3.742,3.742,0,0,0-.193,1.293,1.971,1.971,0,0,1-.144.713,1.828,1.828,0,0,0-.145.641.985.985,0,0,0,.024.266.877.877,0,0,1-.242.06c-.081.009-.12.077-.12.206l.024.024a.021.021,0,0,0,.024.024c.081,0,.133-.02.157-.06a.379.379,0,0,0,.048-.121.379.379,0,0,1,.048-.12c.024-.04.076-.061.157-.061a.064.064,0,0,1,.073.072,1.4,1.4,0,0,1-.013.205,1.245,1.245,0,0,0-.012.181q0,.17.327.242a2.52,2.52,0,0,0,.519.072.762.762,0,0,0,.544-.254,4.639,4.639,0,0,0,.495-.593q.242-.337.5-.676a1.885,1.885,0,0,1,.544-.507,1.035,1.035,0,0,0,.387-.447,1.783,1.783,0,0,1,.386-.519,2.508,2.508,0,0,0,.532-.629,2.157,2.157,0,0,1,.531-.6,1.517,1.517,0,0,0,.484-.531,2.077,2.077,0,0,1,.435-.556.179.179,0,0,0,.048-.133.176.176,0,0,1,.048-.132.4.4,0,0,1,.132-.085.3.3,0,0,0,.133-.109.41.41,0,0,0,.06-.182.2.2,0,0,1,.085-.157,1.45,1.45,0,0,0,.411-.544q.145-.326.29-.628a2.081,2.081,0,0,1,.362-.532.859.859,0,0,1,.652-.229,3.426,3.426,0,0,1,.8.411.9.9,0,0,1,.386.8.76.76,0,0,1-.109.4,3.254,3.254,0,0,1-.266.374q-.158.193-.314.374a1.566,1.566,0,0,0-.254.4.528.528,0,0,1-.1.17c-.033.032-.085.092-.157.181s-.182.242-.327.459-.339.544-.58.979c-.1.161-.178.3-.242.411a3.252,3.252,0,0,1-.193.3,1.313,1.313,0,0,1-.23.242,1.554,1.554,0,0,1-.35.206,1.41,1.41,0,0,0-.411.3,4.449,4.449,0,0,0-.314.374,4.724,4.724,0,0,1-.314.375,1.569,1.569,0,0,1-.387.3,4,4,0,0,1-.314.362c-.081.1-.157.181-.23.254s-.109.125-.109.157a.345.345,0,0,1-.109.253c-.072.072-.157.149-.254.229s-.193.166-.29.254a.653.653,0,0,0-.193.35.635.635,0,0,1-.205.278c-.1.089-.209.181-.314.278a2.626,2.626,0,0,0-.29.314.611.611,0,0,0-.132.387,1.126,1.126,0,0,0,.145.411q.145.29.338.64t.411.725q.218.374.363.665a4.73,4.73,0,0,0,1.112,1.486,9.174,9.174,0,0,0,1.619,1.1,1.361,1.361,0,0,0,.386.145q.218.048.423.109a2.7,2.7,0,0,1,.339.121.26.26,0,0,1,.157.206c0,.386-.121.632-.362.736a2.108,2.108,0,0,1-.846.157,3.626,3.626,0,0,1-1.4-.3,7.42,7.42,0,0,1-1.414-.785,9.314,9.314,0,0,1-1.293-1.1,9.456,9.456,0,0,1-1.039-1.245c-.048-.064-.113-.153-.194-.266s-.161-.226-.242-.339a3.315,3.315,0,0,0-.23-.289q-.108-.121-.181-.121c.015,0,0,.024-.048.073a.271.271,0,0,1-.048.072.38.38,0,0,0,.012.1.414.414,0,0,1,.012.1.529.529,0,0,1-.132.35.5.5,0,0,0-.133.326.286.286,0,0,0,.048.182.208.208,0,0,1,.048.133.307.307,0,0,1-.06.181.3.3,0,0,0-.06.181.218.218,0,0,0,.145.193.269.269,0,0,1,.144.266,1.813,1.813,0,0,1-.048.544,1.258,1.258,0,0,1-.193.277.436.436,0,0,1,.024.17Zm-1.353-4.47c-.193.1-.289.193-.289.29a.53.53,0,0,0,.084.266.571.571,0,0,1,.085.29,1.125,1.125,0,0,1-.1.459,1.12,1.12,0,0,0-.1.46.629.629,0,0,0,.217.435c.081.193.137.29.17.29s.064-.044.1-.133a.689.689,0,0,0,.048-.181q-.025-.508-.036-1.1A3.463,3.463,0,0,0,1493.625-3021.821Zm.17,3.432a.4.4,0,0,0,.048-.17.128.128,0,0,0-.145-.145.332.332,0,0,0-.218.048.518.518,0,0,0-.1.17.258.258,0,0,0,.193.072A.905.905,0,0,1,1493.795-3018.389Zm-.242-6.985c.015,0,.04-.016.072-.048a.086.086,0,0,0-.1-.1c-.048,0-.072.033-.072.1C1493.456-3025.39,1493.488-3025.374,1493.553-3025.374Zm.072,1.232c-.064.033-.1.065-.1.1s.032.065.1.1a.039.039,0,0,1,.025-.036c.015-.008.024-.044.024-.109Zm.435-4.906c-.032-.064-.057-.1-.072-.1a.142.142,0,0,0-.073.036.1.1,0,0,0-.048.085c0,.048.04.072.121.072C1494.036-3028.951,1494.06-3028.983,1494.06-3029.048Zm-.1,5a.486.486,0,0,0,.1-.314,1.78,1.78,0,0,0-.012-.181c-.008-.073-.036-.109-.085-.109a.987.987,0,0,0-.072.339A.43.43,0,0,0,1493.964-3024.045Zm.846,3.021a.424.424,0,0,0,.024-.169.54.54,0,0,0-.266-.483.174.174,0,0,0-.1.169.726.726,0,0,0,.048.338c.032.048.137.089.314.121q-.145.242-.242.423a1.493,1.493,0,0,0-.1.641,1.846,1.846,0,0,0,.072.532q.048-.242.072-.46a.805.805,0,0,1,.121-.362.3.3,0,0,0,.169.073c.048,0,.073-.049.073-.145,0-.145,0-.266-.013-.363A.542.542,0,0,0,1494.809-3021.024Zm.169,3.843a.436.436,0,0,0-.024-.17h.024Z" transform="translate(-1432.652 3035.259)"/>
        <path id="Path_1744" data-name="Path 1744" d="M1521.765-3033.981a.819.819,0,0,1,.242.6,3.222,3.222,0,0,1-.145.955q-.145.471-.326.942t-.327.979a3.765,3.765,0,0,0-.145,1.04,2.669,2.669,0,0,1-.12.749q-.121.411-.254.822c-.089.274-.173.528-.254.761a1.84,1.84,0,0,0-.121.568,1.569,1.569,0,0,1-.29.725,1.085,1.085,0,0,0-.242.6.754.754,0,0,0,.036.218.848.848,0,0,1,.036.241,1.422,1.422,0,0,1-.193.737,1.806,1.806,0,0,0-.242.713.558.558,0,0,1-.109.254c-.057.073-.117.145-.182.218l-.182.205a.323.323,0,0,0-.084.218.22.22,0,0,0,.036.109.251.251,0,0,1,.036.133.1.1,0,0,1-.012.06.049.049,0,0,0-.012.036,1.724,1.724,0,0,0-.266.459q-.121.29-.229.556t-.217.471c-.073.137-.158.206-.254.206a.16.16,0,0,1-.158-.072.326.326,0,0,1-.036-.145.646.646,0,0,1,.217-.459.069.069,0,0,0,.024.048.3.3,0,0,1,.048-.133.14.14,0,0,1,.121-.084l.024-.073-.048.048.025.025-.025-.025c0-.016-.021,0-.06.06a1.071,1.071,0,0,1-.109.133c-.048-.081-.093-.153-.133-.218s-.084-.136-.132-.217c-.016,0-.041.077-.073.23s-.069.322-.109.507-.081.35-.12.5-.077.217-.109.217a.156.156,0,0,1-.1-.036.2.2,0,0,0-.121-.036.3.3,0,0,0-.217.1.326.326,0,0,0-.1.241.372.372,0,0,0,.012.1.394.394,0,0,1,.012.1c0,.016-.012.1-.036.254s-.053.318-.085.5-.06.339-.085.484a.736.736,0,0,1-.06.241.3.3,0,0,1-.072-.217.855.855,0,0,1,.012-.145,1.082,1.082,0,0,0,.012-.169c0-.081,0-.169-.012-.266s-.012-.209-.012-.339q-.073.1-.218.339a1.079,1.079,0,0,0-.145.29.254.254,0,0,0,.012.085.279.279,0,0,1,.012.085.375.375,0,0,1-.133.289,1.135,1.135,0,0,0-.205.242c.016.081.032.15.048.206s.032.117.048.182c0,.016-.016.04-.048.072l-.048.049a.43.43,0,0,0-.217-.072c-.048,0-.145.089-.29.265s-.306.383-.483.616-.371.468-.58.7a4.893,4.893,0,0,1-.556.544.342.342,0,0,1,.024-.133.368.368,0,0,0,.024-.133.071.071,0,0,0-.024-.048c-.033.015-.048.032-.048.048a.193.193,0,0,0,.012.06.276.276,0,0,1,.012.085.7.7,0,0,1-.254.471c-.169.169-.294.254-.374.254a1.3,1.3,0,0,1-.387-.1,3.712,3.712,0,0,0-.423.314q-.23.193-.472.375a3.665,3.665,0,0,1-.471.3.957.957,0,0,1-.447.121,1.009,1.009,0,0,1-.737-.229,1.692,1.692,0,0,1-.351-.5q-.121-.266-.217-.5a.326.326,0,0,0-.314-.23c-.1,0-.186.069-.266.205s-.17.206-.266.206c-.08,0-.132-.065-.157-.193a1.884,1.884,0,0,1-.036-.339.5.5,0,0,1,.1-.266.487.487,0,0,0,.1-.266.572.572,0,0,0-.024-.157c-.016-.056-.032-.116-.048-.181q0-.217.374-.3a3.164,3.164,0,0,1,.689-.085.421.421,0,0,1,.1.012.388.388,0,0,0,.1.013h-.024c0-.016.056-.065.169-.145a2.973,2.973,0,0,1,.447-.254q.278-.133.628-.278a6.523,6.523,0,0,1,.689-.242q.241-.313.507-.616t.531-.592a3.79,3.79,0,0,0,.665-.882,5.453,5.453,0,0,1,.616-.906,4.532,4.532,0,0,0,.676-1.136,2.951,2.951,0,0,0,.29-1.087.749.749,0,0,0-.193-.459c-.129-.161-.274-.334-.434-.52s-.319-.378-.472-.579a1.921,1.921,0,0,1-.326-.641,9.378,9.378,0,0,0-.5-1.027,3.727,3.727,0,0,1-.4-1.076.91.91,0,0,0-.205-.423.9.9,0,0,1-.205-.423,1.545,1.545,0,0,1-.375-.507q-.132-.29-.254-.617t-.242-.616a1.555,1.555,0,0,0-.338-.508,9.484,9.484,0,0,0-.713-1.7q-.448-.834-.834-1.656l-.024-.048c0-.064.056-.124.169-.181a2.126,2.126,0,0,1,.4-.145,3.141,3.141,0,0,1,.459-.085c.153-.015.278-.024.375-.024a1.27,1.27,0,0,1,.833.314,3.581,3.581,0,0,1,.713.858,10.759,10.759,0,0,1,.664,1.269q.327.726.689,1.547a2.018,2.018,0,0,1,.447.58q.157.314.3.629a3.231,3.231,0,0,0,.266.411.866.866,0,0,1,.193.362q.314.653.58,1.16.241.435.483.8c.161.242.282.362.362.362.1,0,.23-.181.4-.544s.35-.793.544-1.293.387-1.007.58-1.522a9.729,9.729,0,0,1,.557-1.257c.031-.065.06-.125.084-.182a.445.445,0,0,0,.036-.181,3.764,3.764,0,0,1,.278-1.112q.23-.555.423-1.063c.015-.032.064-.153.145-.362s.177-.431.289-.665a5.309,5.309,0,0,1,.363-.641c.128-.193.25-.29.362-.29a1.207,1.207,0,0,1,.653.278A3.624,3.624,0,0,1,1521.765-3033.981Z" transform="translate(-1437.447 3035.238)"/>
        <path id="Path_1745" data-name="Path 1745" d="M1530.736-3024.287c-.033.113-.065.214-.1.3a.736.736,0,0,0-.048.253.942.942,0,0,0,.085.351,1.052,1.052,0,0,1,.084.4,6.965,6.965,0,0,1-.084.713,4.122,4.122,0,0,0-.061.713.711.711,0,0,1-.193.484.707.707,0,0,0-.193.483.761.761,0,0,0,.048.193,2.511,2.511,0,0,1-.29.87,2.649,2.649,0,0,0-.23.581,5.49,5.49,0,0,0-.133.653c-.033.226-.069.455-.109.688a3.5,3.5,0,0,1-.181.665c-.016.048-.057.181-.121.4l-.23.774q-.133.447-.314.93a9.5,9.5,0,0,1-.387.895,2.975,2.975,0,0,1-.447.677.69.69,0,0,1-.507.266.85.85,0,0,1-.362-.109.348.348,0,0,1-.217-.326,9.778,9.778,0,0,0,.35-1.3,9.647,9.647,0,0,1,.351-1.305q.121-.338.3-.785a2.145,2.145,0,0,0,.181-.786,1.1,1.1,0,0,1,.073-.35q.073-.205.169-.447t.182-.5a2.315,2.315,0,0,0,.108-.471,1.334,1.334,0,0,1,.084-.374c.057-.17.121-.355.193-.557s.149-.4.23-.592.145-.362.194-.507q.1-.242.266-.749t.363-1.04a9.68,9.68,0,0,1,.387-.93c.128-.266.234-.4.314-.4a.168.168,0,0,1,.133.085C1530.667-3024.388,1530.7-3024.335,1530.736-3024.287Zm6.356-8.677a1.8,1.8,0,0,1,.193.532,3.158,3.158,0,0,1,.048.556q0,.484-.013.967t-.012.968q0,.724.025,1.438t.024,1.462a1.333,1.333,0,0,0,.073.447,1.2,1.2,0,0,1,.072.4,1.009,1.009,0,0,1-.06.338.992.992,0,0,0-.06.338,7.742,7.742,0,0,1-.145,1.474,7.526,7.526,0,0,0-.145,1.427,1.54,1.54,0,0,0,.145.652q-.1.17-.266.447a.949.949,0,0,0-.169.448c0,.047.089.088.266.12q.048.17.109.338c.04.113.076.234.109.363-.081.081-.173.166-.278.254a.356.356,0,0,0-.157.254.3.3,0,0,0,.025.108.309.309,0,0,1,.024.109.54.54,0,0,1-.06.242.534.534,0,0,0-.06.242c0,.129.056.193.169.193l.145-.048a.869.869,0,0,1,.12-.048l.145-.048-.024-.048a4.555,4.555,0,0,0-.218,1.353,4.2,4.2,0,0,0,.025.447c.016.154.04.311.072.472.1-.1.145-.137.145-.121q.024-.144.048-.459c.016-.209.056-.314.121-.314a.316.316,0,0,1,.1.266v.266c0,.129.041.193.121.193.177.033.274.1.29.218s.031.226.048.339a1.64,1.64,0,0,1-.133.665,2.42,2.42,0,0,0-.182.64q-.338.387-.568.617a5.216,5.216,0,0,1-.5.435.8.8,0,0,1-.435.205.135.135,0,0,1-.133-.072.751.751,0,0,1-.06-.182.883.883,0,0,0-.073-.205.315.315,0,0,0-.145-.145q-.242-.1-.314-.665a9.426,9.426,0,0,1-.072-1.2c0-.209,0-.411.012-.6s.012-.37.012-.531a.507.507,0,0,0-.169-.423.476.476,0,0,1-.169-.4,1.173,1.173,0,0,1,.072-.412,1.156,1.156,0,0,0,.072-.411,1.8,1.8,0,0,0-.024-.29,1.775,1.775,0,0,1-.024-.29q0-.194.012-.387c.008-.129.012-.257.012-.387a1.976,1.976,0,0,0-.145-.761,1.788,1.788,0,0,1-.145-.688,4.165,4.165,0,0,1,.06-.64,4.084,4.084,0,0,0,.061-.641,4.73,4.73,0,0,0-.133-.943,5.928,5.928,0,0,1-.133-1.281c0-.45,0-.894.013-1.329s.012-.846.012-1.233q-.145-.894-.266-1.426a8.469,8.469,0,0,0-.278-.967q-.157-.435-.326-.435a.129.129,0,0,0-.145.1.761.761,0,0,0-.025.194,1.086,1.086,0,0,0,.012.157,1.056,1.056,0,0,1,.013.157.71.71,0,0,1-.205.435q-.206.242-.4.459v.314a2.16,2.16,0,0,1-.085.6.408.408,0,0,1-.447.29,4.522,4.522,0,0,1-.109.6,2.618,2.618,0,0,1-.254.556,1.208,1.208,0,0,1-.157.58,5.986,5.986,0,0,1-.351.568q-.193.278-.35.543a1.077,1.077,0,0,0-.157.556,2.664,2.664,0,0,1-.024.351.634.634,0,0,1-.145.326l.025-.024a.811.811,0,0,1-.266-.423c-.017-.121-.041-.254-.073-.4a1.323,1.323,0,0,1-.277-.108.2.2,0,0,1-.109-.182.142.142,0,0,1,.025-.1,1.778,1.778,0,0,0,.339-.556c.08-.209.153-.423.217-.64s.133-.443.205-.677a2.446,2.446,0,0,1,.326-.665,3.7,3.7,0,0,0,.375-.689q.157-.375.3-.761t.3-.761a4.341,4.341,0,0,1,.4-.737,3.423,3.423,0,0,1,.169-.7q.121-.338.266-.677a.42.42,0,0,1,.205-.205c.1-.056.157-.093.157-.109a.281.281,0,0,0-.036-.12.33.33,0,0,1-.036-.145q.1-.218.194-.508a4.189,4.189,0,0,1,.23-.556,1.694,1.694,0,0,1,.314-.447.609.609,0,0,1,.447-.182.952.952,0,0,1,.592.194.768.768,0,0,0,.374.193.322.322,0,0,0,.157-.048.318.318,0,0,1,.157-.048.155.155,0,0,1,.157.133.155.155,0,0,0,.157.133.764.764,0,0,0,.194-.048,2.458,2.458,0,0,0,.29.375.546.546,0,0,1,.169.374.346.346,0,0,1-.048.194.3.3,0,0,0-.048.169q0,.024.1.1a.145.145,0,0,1,.025-.084.151.151,0,0,0,.024-.085.15.15,0,0,0-.024-.084A.716.716,0,0,1,1537.091-3032.964Zm-5.921,8.99-.024.024.024-.049Zm2.78-7.419c0-.048-.033-.073-.1-.073-.048,0-.073.033-.073.1a.065.065,0,0,0,.073.073A.086.086,0,0,0,1533.95-3031.392Zm1.957,8.676c0-.08-.024-.121-.072-.121a.067.067,0,0,1-.048.025v.024c0,.064.016.1.048.1a.049.049,0,0,0,.036-.012A.049.049,0,0,1,1535.907-3022.717Zm.991-2.972a1.446,1.446,0,0,0-.6,1.015.834.834,0,0,0,.012.121.827.827,0,0,1,.013.145c0,.082,0,.166-.013.254s-.012.174-.012.254a1.5,1.5,0,0,0,.025.278,1.774,1.774,0,0,1,.024.3c0,.129,0,.25-.012.362s-.012.234-.012.362c0,.082,0,.17.012.266s.012.186.012.266a5.742,5.742,0,0,1-.048.737,5.961,5.961,0,0,0-.048.761c0,.1.008.233.025.411s.088.266.217.266a1.142,1.142,0,0,0,.048-.374q.024-.375.048-.858t.036-.931q.011-.446.012-.616a1.329,1.329,0,0,0-.036-.3,1.352,1.352,0,0,1-.036-.3,4.5,4.5,0,0,1,.133-1.124A8.594,8.594,0,0,0,1536.9-3025.689Zm-.29,7.2a2.088,2.088,0,0,1-.024-.339.488.488,0,0,0-.1-.314.354.354,0,0,0-.193.254,1.985,1.985,0,0,0-.024.3,4.044,4.044,0,0,0,.024.423.683.683,0,0,0,.145.375.3.3,0,0,0,.145-.3A2.865,2.865,0,0,1,1536.608-3018.487Zm.749-.507c.032-.129.069-.254.109-.375s.109-.181.205-.181c.032,0,.064.036.1.109s.057.133.073.181c0,.048,0,.117-.012.206a1.579,1.579,0,0,1-.048.266,1.747,1.747,0,0,1-.085.242c-.032.072-.073.109-.121.109-.032,0-.048-.024-.048-.073a.35.35,0,0,0,.024-.145.535.535,0,0,0-.217-.386Z" transform="translate(-1442.913 3035.114)"/>
        <path id="Path_1746" data-name="Path 1746" d="M1548.513-3018.676a2.847,2.847,0,0,0-.387-.484.668.668,0,0,1-.217-.483.434.434,0,0,1,.072-.218.465.465,0,0,0,.073-.241c-.017,0-.061-.041-.133-.121a1.623,1.623,0,0,1-.217-.326,3.335,3.335,0,0,1-.205-.483,1.773,1.773,0,0,1-.1-.593.459.459,0,0,1,.06-.229.47.47,0,0,0,.06-.23,1.841,1.841,0,0,0-.012-.217,1.7,1.7,0,0,1-.012-.217c0-.355.015-.705.048-1.052s.048-.7.048-1.051q0-.193-.012-.375c-.009-.121-.012-.246-.012-.375a1.173,1.173,0,0,1,.217-.725,2.318,2.318,0,0,0,.435-1.173q.072-.688.193-1.317a4.982,4.982,0,0,1,.386-1.135,2.609,2.609,0,0,0,.266-1.136,3.371,3.371,0,0,1,.048-.411,4.121,4.121,0,0,1,.157-.653,4.2,4.2,0,0,1,.242-.6q.132-.266.326-.266a3.055,3.055,0,0,1,.7.085,1.967,1.967,0,0,1,.652.278,1.679,1.679,0,0,1,.484.5,1.3,1.3,0,0,1,.193.713,2.74,2.74,0,0,1-.048.447q-.048.278-.121.568c-.048.194-.089.371-.12.532a1.963,1.963,0,0,0-.048.338.539.539,0,0,0,.024.169.528.528,0,0,1,.025.169.6.6,0,0,1-.048.266,3.714,3.714,0,0,0-.435,1.136q-.1.532-.145,1.135c0,.065.044.114.133.145a.723.723,0,0,0,.254.048.631.631,0,0,0,.193-.024,8.46,8.46,0,0,0,2.066-.918,12.132,12.132,0,0,1,1.97-.991,1.565,1.565,0,0,0,.386-.218l.387-.29a4.22,4.22,0,0,1,.375-.254.645.645,0,0,1,.326-.109.787.787,0,0,0,.459-.133,2.51,2.51,0,0,0,.362-.3c.113-.113.222-.213.327-.3a.531.531,0,0,1,.35-.133,1.024,1.024,0,0,0,.4-.218,11.4,11.4,0,0,1,1.051-.628,1.234,1.234,0,0,1,.314-.133c.1-.024.189-.049.278-.072a1.033,1.033,0,0,0,.254-.109.512.512,0,0,0,.193-.217q.411-.218.786-.447a1.751,1.751,0,0,1,.93-.229q1.16,0,1.487.507a2.578,2.578,0,0,1,.326,1.4,5.2,5.2,0,0,1-.145,1.244,7.5,7.5,0,0,0-.193,1.22,9.935,9.935,0,0,1-.254,1.644q-.205.87-.4,1.788-.048.218-.217.822a5.425,5.425,0,0,0-.169,1.45.876.876,0,0,1-.06.338.806.806,0,0,0-.061.314.358.358,0,0,0,.061.194.335.335,0,0,1,.06.169.36.36,0,0,1-.06.193.447.447,0,0,0-.061.242.576.576,0,0,1-.036.254l-.073.121a.815.815,0,0,0-.072.193,2.024,2.024,0,0,0-.036.471,1.242,1.242,0,0,0,.012.182,1.412,1.412,0,0,1,.013.205,1.211,1.211,0,0,1-.1.471,1.206,1.206,0,0,0-.1.471.976.976,0,0,0,.072.387,2.066,2.066,0,0,1,.085.5q.012.253.024.5t.048.483a1.621,1.621,0,0,0,.157.483.344.344,0,0,1,.048.193.406.406,0,0,1-.109.254.434.434,0,0,0-.109.278.721.721,0,0,0,.012.121.713.713,0,0,1,.012.121.421.421,0,0,1-.266.363.862.862,0,0,0-.3.193l-.314.29c-.105.1-.205.185-.3.266a.42.42,0,0,1-.217.121.676.676,0,0,1-.617-.338,1.336,1.336,0,0,1-.205-.7,1.559,1.559,0,0,0-.181-.58,1.85,1.85,0,0,1-.182-.8,1.883,1.883,0,0,1,.073-.52,1.88,1.88,0,0,0,.072-.52,1.289,1.289,0,0,0-.024-.242,1.172,1.172,0,0,1-.025-.242.808.808,0,0,1,.048-.278.807.807,0,0,0,.048-.278,1.145,1.145,0,0,0-.157-.568,1.1,1.1,0,0,1-.157-.544.952.952,0,0,1,.06-.277c.04-.121.088-.25.145-.387s.1-.262.145-.374a.866.866,0,0,0,.06-.266.4.4,0,0,0-.025-.121.393.393,0,0,1-.024-.121.676.676,0,0,1,.085-.326.731.731,0,0,0,.084-.351.662.662,0,0,0-.132-.4.622.622,0,0,1-.133-.374.436.436,0,0,1,.025-.145.556.556,0,0,0,.024-.169.811.811,0,0,0-.012-.121.725.725,0,0,1-.012-.12.467.467,0,0,1,.1-.278.464.464,0,0,0,.1-.278.361.361,0,0,0-.048-.181.318.318,0,0,1-.048-.157.99.99,0,0,1,.048-.314,1.793,1.793,0,0,0,.073-.314q.073-.919.169-1.934a15.128,15.128,0,0,1,.314-1.958v-.483c0-.129,0-.274-.012-.436a3.647,3.647,0,0,0-.048-.447,1.466,1.466,0,0,0-.109-.362c-.048-.1-.105-.165-.169-.181l-2.514,1.474q-1.282.749-2.514,1.546c-.081.048-.2.125-.35.23l-.459.314a3.494,3.494,0,0,0-.4.314c-.113.1-.169.19-.169.254a1,1,0,0,0,.072.121c.032.048.064.072.1.072a.608.608,0,0,1,.387.205c.08.105.169.214.266.327a4.007,4.007,0,0,0,.217.531,2.975,2.975,0,0,0,.254.35.412.412,0,0,0,.327.157c.015,0,.024,0,.024-.012s.008-.012.025-.012l-.025.024a.993.993,0,0,1,.025.375.479.479,0,0,0,.1.35c.08.145.165.29.254.435a1.407,1.407,0,0,1,.181.484.356.356,0,0,1-.132-.024.358.358,0,0,0-.133-.024.051.051,0,0,0-.036.012.048.048,0,0,1-.036.013c.241.048.362.133.362.254a2.554,2.554,0,0,0,.048.447c-.13.21-.258.428-.387.653a1.707,1.707,0,0,1-.411.508.973.973,0,0,0-.266.374,4.222,4.222,0,0,0-.17.483,3.031,3.031,0,0,1-.169.459.623.623,0,0,1-.29.3,1.926,1.926,0,0,0-.616.447q-.253.278-.5.568a5.849,5.849,0,0,1-.544.568,1.974,1.974,0,0,1-.761.423.419.419,0,0,0-.193-.072.547.547,0,0,0-.363.145.609.609,0,0,1-.411.145c-.193,0-.383-.008-.568-.024s-.375-.024-.568-.024a.4.4,0,0,1-.254-.085.964.964,0,0,1-.181-.181c-.048-.064-.1-.125-.145-.182a.2.2,0,0,0-.145-.084.606.606,0,0,1-.519-.242,3.641,3.641,0,0,1-.254-.508.218.218,0,0,0-.145-.12,1.567,1.567,0,0,0-.205-.036.876.876,0,0,1-.182-.036c-.048-.016-.072-.064-.072-.145a.251.251,0,0,1,.1-.23.168.168,0,0,0,.1-.132.065.065,0,0,0-.073-.073c-.032,0-.048.025-.048.073a.256.256,0,0,0,.012.084A.282.282,0,0,1,1548.513-3018.676Zm3.818-.749a1.23,1.23,0,0,0,.5-.205,5.339,5.339,0,0,0,.7-.5,4.169,4.169,0,0,0,.617-.628,1.03,1.03,0,0,0,.266-.6,1.644,1.644,0,0,0-.085-.52,1.619,1.619,0,0,1-.085-.519,1.394,1.394,0,0,0-.217-.689,3.148,3.148,0,0,0-.544-.688,2.991,2.991,0,0,0-.737-.52,1.741,1.741,0,0,0-.774-.205q-.218.072-.508.157a4.973,4.973,0,0,0-.568.205,1.813,1.813,0,0,0-.459.278.48.48,0,0,0-.182.375.179.179,0,0,0,.1.157.475.475,0,0,1,.145.133,2.144,2.144,0,0,1,.206.918,9.573,9.573,0,0,0,.157,1.257,3.079,3.079,0,0,0,.435,1.112A1.144,1.144,0,0,0,1552.331-3019.425Zm3-4.761c-.048-.048-.064-.072-.048-.072l-.145.072c0,.048.04.073.121.073C1555.271-3024.113,1555.3-3024.138,1555.328-3024.186Zm.8.025c0,.016-.008.024-.025.024Zm5.945,3.6a1.2,1.2,0,0,1-.073-.169q-.218.121-.217.242a.139.139,0,0,0,.048.1c.032.032.056.049.072.049.032,0,.064-.025.1-.073A.614.614,0,0,0,1562.071-3020.561Zm1.232,4.447c.048,0,.073.032.073.1a.038.038,0,0,1-.025.036.039.039,0,0,0-.024.037.137.137,0,0,1-.048-.1A.1.1,0,0,1,1563.3-3016.114Z" transform="translate(-1449.09 3034.65)"/>
      </g>
    </g>
  </g>
</svg>
