<svg xmlns="http://www.w3.org/2000/svg" xmlns:xlink="http://www.w3.org/1999/xlink" width="125" height="125" viewBox="0 0 125 125">
  <defs>
    <style>
      .cls-1 {
        fill: url(#linear-gradient);
      }

      .cls-2 {
        fill: #fff;
      }
    </style>
    <linearGradient id="linear-gradient" x1="-0.046" y1="0.114" x2="1.026" y2="0.95" gradientUnits="objectBoundingBox">
      <stop offset="0" stop-color="#ff3c87"/>
      <stop offset="0.882" stop-color="#c10cb6"/>
      <stop offset="1" stop-color="#c10cb6"/>
    </linearGradient>
  </defs>
  <g id="Group_1068" data-name="Group 1068" transform="translate(561.851 -7238.652)">
    <rect id="Rectangle_821" data-name="Rectangle 821" class="cls-1" width="125" height="125" rx="62.5" transform="translate(-561.851 7238.652)"/>
    <g id="Group_1064" data-name="Group 1064" transform="translate(-533.882 7271.394)">
      <path id="Path_1646" data-name="Path 1646" class="cls-2" d="M6596.235,2399.822c0-1.234-.081-2.379.016-3.509a5.15,5.15,0,0,1,5.314-4.977q8.81-.071,17.621,0a5.251,5.251,0,0,1,5.375,5.478c.01.967,0,1.933,0,3.009h.77c5.874,0,11.748.021,17.621-.018a1.641,1.641,0,0,1,1.88,1.844q-.047,23.689-.02,47.377c0,1.282-.447,1.738-1.75,1.739q-32.693,0-65.386,0c-1.262,0-1.713-.463-1.713-1.706v-47.571c0-1.2.469-1.664,1.691-1.665q8.842,0,17.686,0Zm-17.48,48.11h63.231v-21.213h-9.426a.624.624,0,0,0-.058.152q-.012,1.162-.02,2.323a1.434,1.434,0,0,1-1.629,1.619c-1.506.007-3.012,0-4.519,0-1.441,0-1.9-.457-1.9-1.882,0-.741,0-1.483,0-2.214h-28.1c0,.848.013,1.662,0,2.475a1.446,1.446,0,0,1-1.639,1.619q-2.355.01-4.712,0c-1.169,0-1.7-.53-1.7-1.686,0-.806,0-1.613,0-2.4h-9.519Zm63.235-45.289h-63.23v21.208h9.514c0-.8,0-1.548,0-2.3,0-1.3.477-1.777,1.8-1.782,1.441-.006,2.883,0,4.325,0,1.5,0,1.927.431,1.93,1.918,0,.721,0,1.442,0,2.175h28.1c0-.85-.011-1.662,0-2.473a1.428,1.428,0,0,1,1.586-1.613q2.453-.029,4.9,0c1.061.014,1.554.552,1.559,1.623,0,.81,0,1.62,0,2.458h9.507Zm-38.668-2.86h14.086v-2.234h-14.086Zm18.413.011c0-1.2.05-2.339-.014-3.474a2.318,2.318,0,0,0-2.361-2.189q-8.969-.019-17.936,0a2.279,2.279,0,0,0-2.366,2.042c-.11,1.187-.023,2.392-.023,3.6h1.458a1.722,1.722,0,0,0,.024-.181q0-1.484,0-2.968c0-1.452.44-1.9,1.867-1.9q6.776,0,13.549,0c4.526.006,4.367-.522,4.322,4.295,0,.25,0,.5,0,.778Zm-30.626,28.188h2.407v-5.4h-2.407Zm38.549.015v-5.4h-2.39v5.4Z" transform="translate(-6575.964 -2391.301)"/>
    </g>
  </g>
</svg>
