<svg xmlns="http://www.w3.org/2000/svg" width="40.884" height="40.884" viewBox="0 0 40.884 40.884">
  <defs>
    <style>
      .cls-1 {
        fill: #707070;
      }

      .cls-2 {
        fill: #fff;
        fill-rule: evenodd;
      }
    </style>
  </defs>
  <g id="Group_1073" data-name="Group 1073" transform="translate(-1445.261 30.142)">
    <circle id="Ellipse_34" data-name="Ellipse 34" class="cls-1" cx="14.455" cy="14.455" r="14.455" transform="translate(1445.261 -9.7) rotate(-45)"/>
    <g id="Group_404" data-name="Group 404" transform="translate(1456.48 -18.923)">
      <path id="Path_1357" data-name="Path 1357" class="cls-2" d="M189.572,381.273a9.221,9.221,0,0,0-7.75,14.22l-1.4,3.086a.806.806,0,0,0,.733,1.138.8.8,0,0,0,.213-.029l3.86-1.059a9.222,9.222,0,1,0,4.344-17.357Zm0,16.834a7.6,7.6,0,0,1-3.832-1.036.808.808,0,0,0-.62-.081l-2.522.692.878-1.935a.806.806,0,0,0-.08-.8,7.61,7.61,0,1,1,6.176,3.165Z" transform="translate(-180.349 -381.273)"/>
      <path id="Path_1358" data-name="Path 1358" class="cls-2" d="M201.53,400.769a1.577,1.577,0,0,0-1.344-.3c-.349.143-.572.689-.8.968a.335.335,0,0,1-.433.094,6.086,6.086,0,0,1-3.037-2.6.372.372,0,0,1,.047-.509,2.054,2.054,0,0,0,.552-.9,1.957,1.957,0,0,0-.247-1.06,2.515,2.515,0,0,0-.783-1.18,1.073,1.073,0,0,0-1.165.173,2.365,2.365,0,0,0-.82,1.873,2.654,2.654,0,0,0,.074.595,4.931,4.931,0,0,0,.57,1.314,10.4,10.4,0,0,0,.6.905,9.19,9.19,0,0,0,2.583,2.4,7.8,7.8,0,0,0,1.61.766,3.578,3.578,0,0,0,1.875.3,2.269,2.269,0,0,0,1.7-1.265,1.1,1.1,0,0,0,.079-.645C202.491,401.248,201.89,400.984,201.53,400.769Z" transform="translate(-188.762 -390.166)"/>
    </g>
  </g>
</svg>
