<svg xmlns="http://www.w3.org/2000/svg" width="52.629" height="52.629" viewBox="0 0 52.629 52.629">
  <defs>
    <style>
      .cls-1 {
        fill: #fff;
      }

      .cls-2 {
        fill: #2b2b2b;
      }
    </style>
  </defs>
  <g id="Group_1884" data-name="Group 1884" transform="translate(-8618.235 -14084.617)">
    <g id="Group_1878" data-name="Group 1878" transform="translate(8618.235 14084.617)">
      <circle id="Ellipse_38" data-name="Ellipse 38" class="cls-1" cx="18.607" cy="18.607" r="18.607" transform="translate(0 26.314) rotate(-45)"/>
      <g id="Group_411" data-name="Group 411" transform="translate(13.852 16.777)">
        <g id="Group_410" data-name="Group 410" transform="translate(0 0)">
          <path id="Path_1363" data-name="Path 1363" class="cls-2" d="M1088.034-20.329c-.859.835-1.713,1.661-2.562,2.49a1.3,1.3,0,0,1-.943.456c0-.214-.012-.426,0-.636.091-1.431.194-2.862.278-4.294a.839.839,0,0,1,.3-.632q4.618-4.144,9.224-8.3a.669.669,0,0,0,.15-.141,3.614,3.614,0,0,0,.153-.346.98.98,0,0,0-.383-.064,2.062,2.062,0,0,0-.557.257q-5.743,3.621-11.479,7.254a.632.632,0,0,1-.6.085c-1.6-.522-3.214-1.026-4.822-1.537a2.687,2.687,0,0,1-.385-.145c-.544-.27-.606-.711-.124-1.075a3.74,3.74,0,0,1,.875-.474c1.542-.607,3.092-1.2,4.638-1.794l15.237-5.878a2.492,2.492,0,0,1,.362-.123.932.932,0,0,1,1.2.879,6.3,6.3,0,0,1-.177,1.48q-1.634,7.748-3.29,15.491c-.256,1.2-1.066,1.495-2.058.762l-4.74-3.5C1088.24-20.186,1088.144-20.252,1088.034-20.329Z" transform="translate(-1075.959 35.254)"/>
        </g>
      </g>
    </g>
  </g>
</svg>
