<svg id="Group_1870" data-name="Group 1870" xmlns="http://www.w3.org/2000/svg" width="19.73" height="19.73" viewBox="0 0 19.73 19.73">
  <defs>
    <style>
      .cls-1 {
        fill: #fff;
      }
    </style>
  </defs>
  <path id="Path_1639" data-name="Path 1639" class="cls-1" d="M3394.331,1788.22a9.865,9.865,0,1,1,9.859,9.867A9.853,9.853,0,0,1,3394.331,1788.22Zm17.944.005a8.077,8.077,0,1,0-8.085,8.069A8.083,8.083,0,0,0,3412.275,1788.225Z" transform="translate(-3394.331 -1778.357)"/>
  <path id="Path_1640" data-name="Path 1640" class="cls-1" d="M3505.374,1843.7c0-.883,0-1.767,0-2.65a.894.894,0,0,1,1.775-.178,2.13,2.13,0,0,1,.021.325q0,2.223,0,4.447a.273.273,0,0,0,.179.287q1.438.712,2.867,1.44a.891.891,0,0,1-.663,1.654,4.27,4.27,0,0,1-.393-.185c-1.061-.528-2.119-1.06-3.182-1.583a.989.989,0,0,1-.607-.98C3505.381,1845.422,3505.374,1844.563,3505.374,1843.7Z" transform="translate(-3497.304 -1835.64)"/>
</svg>
