<svg id="Group_1868" data-name="Group 1868" xmlns="http://www.w3.org/2000/svg" width="15.465" height="20.16" viewBox="0 0 15.465 20.16">
  <defs>
    <style>
      .cls-1 {
        fill: #fff;
      }
    </style>
  </defs>
  <path id="Path_1634" data-name="Path 1634" class="cls-1" d="M4265.328,1788.545c.182-.126.334-.231.485-.337a2.767,2.767,0,0,1,3.914.578q.876,1.133,1.714,2.295a2.74,2.74,0,0,1-.205,3.564,7.4,7.4,0,0,1-1.73,1.489,3.878,3.878,0,0,1-2.753.409,7.094,7.094,0,0,1-2.558-1.071,15.15,15.15,0,0,1-4.052-4.025,20.66,20.66,0,0,1-3.024-6.116,11.854,11.854,0,0,1-.574-3.84,5.969,5.969,0,0,1,.709-2.817,3.855,3.855,0,0,1,2.038-1.716,5.9,5.9,0,0,1,2.042-.49,2.649,2.649,0,0,1,2.562,1.576c.449.921.84,1.873,1.221,2.825a2.743,2.743,0,0,1-1.408,3.552,3.041,3.041,0,0,1-.39.178c-.181.058-.209.168-.183.338a4.938,4.938,0,0,0,.462,1.442,6.078,6.078,0,0,0,1.122,1.629C4264.907,1788.2,4265.119,1788.362,4265.328,1788.545Zm-7.088-6.7c.01.215.011.43.032.643.026.273.055.547.1.816a17.237,17.237,0,0,0,2.257,5.784,16.232,16.232,0,0,0,3.8,4.477,6.912,6.912,0,0,0,2.306,1.268,2.409,2.409,0,0,0,2.47-.493c.268-.245.537-.492.781-.76a1.111,1.111,0,0,0,.07-1.556q-.816-1.1-1.638-2.195a1.127,1.127,0,0,0-1.608-.291c-.26.169-.516.344-.77.522a1.074,1.074,0,0,1-.85.173,2.649,2.649,0,0,1-1.29-.7,7.64,7.64,0,0,1-2.338-3.919,3.152,3.152,0,0,1-.053-1.489,1.061,1.061,0,0,1,.592-.782c.281-.131.558-.271.837-.406a1.137,1.137,0,0,0,.6-1.592c-.32-.758-.638-1.517-.961-2.274a2.793,2.793,0,0,0-.256-.51.978.978,0,0,0-.943-.437,5.235,5.235,0,0,0-1.5.4,2.332,2.332,0,0,0-1.323,1.353A5.4,5.4,0,0,0,4258.24,1781.844Z" transform="translate(-4256.538 -1776.468)"/>
</svg>
