<svg xmlns="http://www.w3.org/2000/svg" viewBox="0 0 160.956 117.872">
  <defs>
    <style>
      .cls-1 {
        fill: #fff;
      }

      .cls-2 {
        fill: gray;
      }
    </style>
  </defs>
  <g id="Group_543" data-name="Group 543" transform="translate(-730.871 -44.184)">
    <g id="Group_7" data-name="Group 7" transform="translate(730.871 48.779)">
      <g id="Group_1" data-name="Group 1" transform="translate(128.09)">
        <path id="Path_1" data-name="Path 1" d="M917.365,61.319l-.288-.6c-.091-.19-.2-.421-.33-.687s-.271-.581-.428-.861l-.51-.957c-.172-.347-.4-.694-.623-1.063s-.456-.753-.72-1.116-.513-.759-.806-1.11-.568-.728-.879-1.054a12.123,12.123,0,0,0-.928-.956c-.3-.315-.641-.555-.945-.821-.322-.227-.623-.467-.925-.638a9.314,9.314,0,0,0-.84-.465c-.261-.112-.494-.216-.691-.277a3.49,3.49,0,0,0-.636-.161,3.484,3.484,0,0,1,.669-.019,7.582,7.582,0,0,1,.774.082,9.548,9.548,0,0,1,.989.231c.366.09.738.245,1.147.39.385.181.823.342,1.228.576a13.709,13.709,0,0,1,1.262.728c.431.256.837.552,1.245.851s.8.616,1.187.932.754.641,1.1.965.694.626.994.953l.869.9c.283.287.481.528.681.751l.5.57.439.5Z" transform="translate(-907.815 -50.532)"/>
        <path id="Path_2" data-name="Path 2" d="M918.756,59.458l.644-.16.739-.185c.291-.069.591-.155.987-.232l1.228-.253c.433-.1.89-.149,1.359-.221s.951-.14,1.452-.172,1-.095,1.506-.095,1.008-.028,1.507.006a13.664,13.664,0,0,1,1.453.115c.467.038.919.153,1.339.222.42.112.814.2,1.167.329a9.78,9.78,0,0,1,.945.371c.27.138.5.253.683.371a3.519,3.519,0,0,1,.54.395,3.437,3.437,0,0,0-.615-.228c-.2-.062-.447-.109-.726-.164a9.276,9.276,0,0,0-.955-.093c-.347-.03-.73,0-1.125,0-.4.047-.814.054-1.244.141a12.008,12.008,0,0,0-1.306.261c-.441.093-.883.232-1.322.37-.439.122-.87.3-1.293.457s-.833.331-1.225.51-.777.334-1.116.523l-.963.5c-.287.141-.589.325-.84.466l-.662.379-.575.33Z" transform="translate(-910.836 -52.628)"/>
      </g>
      <g id="Group_2" data-name="Group 2" transform="translate(140.503 9.405)">
        <path id="Path_3" data-name="Path 3" d="M931.961,70.584l-.3-.131-.342-.151c-.13-.056-.287-.13-.434-.184l-.5-.194c-.175-.075-.372-.13-.572-.2s-.41-.135-.625-.187-.434-.119-.655-.156-.444-.09-.665-.113a6.209,6.209,0,0,0-.651-.06c-.214-.02-.416,0-.614,0-.193.019-.382.025-.55.058a4.489,4.489,0,0,0-.462.095,3.643,3.643,0,0,0-.346.117,1.732,1.732,0,0,0-.288.143,1.739,1.739,0,0,1,.243-.221c.082-.067.19-.135.315-.216a4.6,4.6,0,0,1,.442-.229c.166-.083.353-.145.552-.222.2-.055.416-.135.642-.177a6.651,6.651,0,0,1,.7-.131c.242-.042.488-.062.735-.081s.5-.025.741-.031.485,0,.717.009.459.012.675.038l.613.059c.2.017.349.043.494.062l.37.051.323.046Z" transform="translate(-924.962 -64.844)"/>
        <path id="Path_4" data-name="Path 4" d="M932.044,68.307l.189-.266.216-.3c.087-.119.171-.247.295-.4l.377-.486c.13-.174.284-.34.436-.516s.31-.355.486-.528.341-.353.531-.516.367-.332.564-.48a6.682,6.682,0,0,1,.578-.421c.186-.135.392-.237.57-.345.193-.093.366-.187.541-.25a4.946,4.946,0,0,1,.47-.164,3.747,3.747,0,0,1,.374-.08,1.746,1.746,0,0,1,.328-.026,1.729,1.729,0,0,0-.3.112c-.093.04-.2.1-.323.17a4.618,4.618,0,0,0-.386.271c-.138.1-.273.232-.418.36-.135.146-.287.28-.419.45a6.03,6.03,0,0,0-.4.515c-.135.175-.255.368-.374.56s-.229.389-.336.583-.2.389-.293.582-.184.373-.25.552l-.2.493c-.062.145-.116.31-.164.443l-.126.352-.109.307Z" transform="translate(-926.917 -63.523)"/>
      </g>
      <g id="Group_3" data-name="Group 3" transform="translate(0 31.842)">
        <path id="Path_5" data-name="Path 5" d="M738.464,103.1l-.229-.476-.263-.546c-.1-.206-.215-.463-.34-.685s-.262-.491-.405-.761-.321-.552-.5-.845-.363-.6-.573-.888-.408-.6-.641-.882-.452-.579-.7-.838a9.847,9.847,0,0,0-.738-.76c-.243-.25-.51-.442-.751-.653-.256-.18-.5-.371-.736-.507a7.268,7.268,0,0,0-.667-.37,5.889,5.889,0,0,0-.55-.22,2.752,2.752,0,0,0-.505-.128,2.8,2.8,0,0,1,.531-.014c.172,0,.376.033.615.064a7.874,7.874,0,0,1,.786.184c.292.072.587.195.913.311.306.144.654.272.977.458a10.8,10.8,0,0,1,1,.579c.342.2.665.439.99.676s.636.49.943.741.6.51.874.767.552.5.79.757l.691.719c.225.229.383.42.542.6l.4.454.35.4Z" transform="translate(-730.871 -94.518)"/>
        <path id="Path_6" data-name="Path 6" d="M739.57,101.616l.512-.127.588-.146c.231-.056.47-.124.785-.185l.976-.2c.344-.079.708-.119,1.081-.176s.756-.111,1.154-.137.792-.076,1.2-.075.8-.022,1.2,0a10.832,10.832,0,0,1,1.155.091c.371.03.731.122,1.064.177.335.09.647.156.928.262a7.7,7.7,0,0,1,.751.294,5.965,5.965,0,0,1,.544.3,2.773,2.773,0,0,1,.43.313,2.746,2.746,0,0,0-.49-.182c-.157-.049-.355-.086-.578-.13a7.458,7.458,0,0,0-.759-.074c-.275-.024-.581,0-.894,0-.319.038-.647.043-.989.112a9.727,9.727,0,0,0-1.039.208c-.35.073-.7.185-1.051.294s-.692.237-1.028.363-.662.263-.974.406-.618.266-.888.416l-.766.4c-.229.112-.468.258-.668.371l-.526.3-.457.262Z" transform="translate(-733.273 -96.186)"/>
      </g>
      <g id="Group_4" data-name="Group 4" transform="translate(6.337 41.518)">
        <path id="Path_7" data-name="Path 7" d="M747.144,115.468l-.321-.14-.368-.162c-.141-.06-.309-.14-.467-.2l-.533-.208c-.188-.08-.4-.14-.615-.212s-.441-.145-.671-.2-.467-.128-.7-.168-.477-.1-.714-.121a6.385,6.385,0,0,0-.7-.064c-.23-.022-.447,0-.66-.005-.206.02-.41.027-.589.062a4.752,4.752,0,0,0-.5.1,3.8,3.8,0,0,0-.372.126,1.787,1.787,0,0,0-.31.154,1.793,1.793,0,0,1,.261-.237,4.052,4.052,0,0,1,.338-.232,5,5,0,0,1,.475-.247c.178-.09.38-.155.594-.237.216-.06.447-.146.689-.191a7.476,7.476,0,0,1,.756-.141c.261-.045.524-.066.791-.086s.532-.028.8-.034.521,0,.771.01.492.012.725.041l.658.064c.212.018.374.046.531.067l.4.055.347.049Z" transform="translate(-739.625 -109.303)"/>
        <path id="Path_8" data-name="Path 8" d="M747.233,113.023l.2-.285.233-.327c.093-.127.184-.265.316-.431l.4-.523c.14-.188.306-.365.469-.555s.333-.382.522-.568.366-.379.571-.555.394-.357.606-.515a7.216,7.216,0,0,1,.621-.452c.2-.145.421-.254.612-.371.207-.1.393-.2.581-.269a5.085,5.085,0,0,1,.505-.176,4.051,4.051,0,0,1,.4-.085,1.862,1.862,0,0,1,.352-.028,1.861,1.861,0,0,0-.325.119c-.1.043-.216.11-.347.184a4.642,4.642,0,0,0-.415.29c-.149.107-.294.249-.45.387-.145.156-.307.3-.45.483a6.472,6.472,0,0,0-.434.553c-.145.188-.274.4-.4.6s-.246.418-.361.627-.22.418-.316.625-.2.4-.269.592l-.214.531c-.067.155-.125.332-.177.476l-.135.378-.117.33Z" transform="translate(-741.725 -107.884)"/>
      </g>
      <g id="Group_5" data-name="Group 5" transform="translate(105.638 86.172)">
        <path id="Path_9" data-name="Path 9" d="M884.016,177.722l-.217-.452-.25-.519c-.1-.2-.205-.439-.324-.651s-.248-.467-.386-.723-.3-.524-.471-.8-.344-.569-.544-.843-.388-.574-.609-.838-.429-.55-.665-.8a9.249,9.249,0,0,0-.7-.722c-.231-.238-.485-.42-.714-.62-.243-.172-.471-.353-.7-.483a6.794,6.794,0,0,0-.635-.351,5.538,5.538,0,0,0-.522-.209,2.609,2.609,0,0,0-.481-.122,2.682,2.682,0,0,1,.505-.014c.163,0,.357.031.585.062a7.37,7.37,0,0,1,.747.175c.276.068.557.185.867.295.291.137.622.259.929.436a10.355,10.355,0,0,1,.953.55c.325.194.632.417.941.643s.6.465.9.7.569.484.83.729.524.473.751.72l.656.683c.214.218.364.4.515.568l.381.431.332.376Z" transform="translate(-876.799 -169.569)"/>
        <path id="Path_10" data-name="Path 10" d="M885.067,176.315l.487-.121.558-.14c.22-.052.447-.117.746-.175l.927-.19c.327-.075.673-.113,1.027-.167s.718-.1,1.1-.13.752-.072,1.138-.072.762-.021,1.14,0a10.348,10.348,0,0,1,1.1.088c.353.028.694.115,1.011.167.318.085.615.148.882.249a7.566,7.566,0,0,1,.715.279c.2.1.379.192.516.281a2.612,2.612,0,0,1,.408.3,2.608,2.608,0,0,0-.465-.172c-.149-.047-.337-.082-.549-.124a6.832,6.832,0,0,0-.722-.07c-.262-.023-.552,0-.85,0-.3.035-.615.041-.94.106a9.5,9.5,0,0,0-.987.2c-.333.07-.667.176-1,.28s-.658.226-.977.345-.629.25-.926.386-.588.253-.844.395l-.728.377c-.217.106-.445.245-.636.353l-.5.286-.436.249Z" transform="translate(-879.082 -171.154)"/>
      </g>
      <g id="Group_6" data-name="Group 6" transform="translate(94.122 90.543)">
        <path id="Path_11" data-name="Path 11" d="M868.037,182.816l-.3-.134-.35-.154c-.133-.057-.292-.132-.444-.187l-.506-.2c-.179-.076-.38-.132-.584-.2s-.419-.138-.638-.19-.444-.122-.669-.159-.454-.092-.678-.115a6.094,6.094,0,0,0-.665-.061c-.219-.02-.425,0-.627-.005-.2.019-.39.026-.56.059a4.594,4.594,0,0,0-.471.1c-.137.043-.258.079-.353.12a1.754,1.754,0,0,0-.3.146,1.767,1.767,0,0,1,.249-.225c.084-.068.193-.138.321-.221a4.857,4.857,0,0,1,.452-.235c.169-.085.361-.147.564-.225.206-.057.425-.138.656-.182a6.921,6.921,0,0,1,.718-.134c.247-.043.5-.063.751-.083s.505-.026.756-.032.5,0,.732.009.468.012.689.038l.626.061c.2.017.355.044.5.064l.378.053.329.046Z" transform="translate(-860.891 -176.956)"/>
        <path id="Path_12" data-name="Path 12" d="M868.123,180.492l.193-.271.222-.311c.088-.122.174-.252.3-.41l.385-.5c.132-.178.29-.347.445-.527s.316-.363.5-.539.348-.361.543-.527.374-.339.575-.489a7,7,0,0,1,.591-.43c.19-.138.4-.242.582-.352.2-.094.374-.191.552-.256a5.044,5.044,0,0,1,.481-.167,3.741,3.741,0,0,1,.382-.081,1.738,1.738,0,0,1,.334-.026,1.732,1.732,0,0,0-.308.114,3.535,3.535,0,0,0-.33.174,4.55,4.55,0,0,0-.395.276c-.142.1-.279.237-.428.367-.138.149-.292.287-.427.46a6.135,6.135,0,0,0-.413.526c-.137.179-.261.376-.382.572s-.234.4-.343.6-.209.4-.3.594-.187.381-.255.563l-.2.5c-.064.148-.119.316-.169.452l-.128.36-.112.313Z" transform="translate(-862.888 -175.608)"/>
      </g>
    </g>
    <path id="Path_13" data-name="Path 13" d="M894.006,93.008c-.253-.814-.5-1.632-.785-2.434a7.643,7.643,0,0,0-3.411-3.795,13.283,13.283,0,0,0-5.634-1.795c-1.16-.14-2.328-.216-3.5-.322.41-.7.838-1.359,1.2-2.054.481-.927.945-1.864,1.352-2.825a5.692,5.692,0,0,0,.3-3.71,44.016,44.016,0,0,0-1.33-4.541,12.523,12.523,0,0,0-6.4-6.793,8.768,8.768,0,0,0-3.164-.652c-.8-.081-1.6-.164-2.4-.235a.76.76,0,0,1-.727-.615c-.265-.943-.58-1.874-.812-2.826a8.656,8.656,0,0,0-3.424-5.053q-3.5-2.559-7.108-4.975a14.607,14.607,0,0,0-5.283-1.917,20.984,20.984,0,0,0-12.064,1.258,7.481,7.481,0,0,0-1.434.792,45.674,45.674,0,0,0-7.4,6.147c-.543.557-1.1,1.1-1.658,1.643a1.219,1.219,0,0,1-1.155.351.75.75,0,0,1-.7-.725c-.2-1.091-.382-2.184-.6-3.269a3.266,3.266,0,0,0-.366-.869c-.216-.4-.506-.763-.691-1.175a13.6,13.6,0,0,0-5.581-6.407,14.821,14.821,0,0,0-5.19-1.723c-.7-.114-1.4-.206-2.1-.308h-4.133c-.486.064-.97.135-1.456.19a38.97,38.97,0,0,0-7.468,1.729,30.734,30.734,0,0,0-8.059,3.614c-1.462,1-2.833,2.125-4.249,3.189-.683.513-1.378,1.011-2.061,1.523-.179.135-.313.18-.478-.028a5.515,5.515,0,0,0-4.469-1.939,16.588,16.588,0,0,0-7.778,1.95,82.985,82.985,0,0,0-9.217,5.421,22.136,22.136,0,0,1-8.966,3.182,9.371,9.371,0,0,1-5.236-.652,2.031,2.031,0,0,0-2.432.255c-1.386,1.49-2.5,3.169-2.3,5.34.1,1.045.4,2.069.57,3.109a2.782,2.782,0,0,1,.022,1.305,7.254,7.254,0,0,0,1.168,7.039,13.35,13.35,0,0,0,4.126,4.136,22.369,22.369,0,0,0,2.685,1.178c.625.251,1.276.439,1.912.663.368.13.415.248.193.552-.848,1.163-1.682,2.34-2.569,3.473a4.731,4.731,0,0,0-1,3.58,2.537,2.537,0,0,1-.422,1.776,6.025,6.025,0,0,0-.725,5.508,15.284,15.284,0,0,0,2.1,4.139,20.946,20.946,0,0,0,2.618,3.324,14.1,14.1,0,0,0,2.867,2.186c2.017.048,3.1.748,2.554,3.017-.578,2.415-.287,5.487-2.751,6.667-3.273,1.567-7.086,2.849-9.835,5.276-4.183,3.693-5.225,7.6-6.168,10.86-2.405,6.958-.79,16.128,1.715,19.069a6.12,6.12,0,0,0,1.11.99,19.491,19.491,0,0,0,5.353,3.129,31.974,31.974,0,0,0,3.473.72,13.881,13.881,0,0,0,4.1.285,13.388,13.388,0,0,0,5.965-2.191c.438-.284.867-.584,1.283-.9a2.278,2.278,0,0,1,1.913-.411c1.574.3,3.145.641,4.73.87a11.352,11.352,0,0,0,6.228-.956c.969-.421,1.933-.851,2.9-1.281.455-.2.537-.193.707.277a10.713,10.713,0,0,1,.4,1.431,5,5,0,0,0,2.194,3.316c.384.251.757.518,1.13.785a6.942,6.942,0,0,0,3.19,1.176h.842c.929-.211,1.876-.362,2.783-.646a12.347,12.347,0,0,0,3.571-2.021c2.143-1.578,4.313-3.127,6.532-4.6,3.107-2.059,6.118-4.249,9.005-6.6a81.9,81.9,0,0,1,13.6-8.481,83.152,83.152,0,0,1,13.415-5.785c3.938-1.269,7.874-2.552,11.841-3.724a37.343,37.343,0,0,1,4.5-.827c3.543-.586,7.092-1.147,10.636-1.734a48.492,48.492,0,0,1,8.053-.818,1.231,1.231,0,0,1,.951.383,3.428,3.428,0,0,0,3.53.657,22.317,22.317,0,0,0,4.991-3.158,8.813,8.813,0,0,0,2.5-3.826,5.3,5.3,0,0,0-2.076-6.365c-.641-.455-1.362-.8-2.045-1.189-.095-.054-.189-.11-.347-.2.751-.382,1.424-.766,2.129-1.074a13.4,13.4,0,0,0,5.453-4.55,40,40,0,0,0,4.365-7.956c.475-1.1.83-2.261,1.24-3.394v-.382C894.565,94.851,894.291,93.928,894.006,93.008Z" transform="translate(-3.017)"/>
    <path id="Path_14" data-name="Path 14" d="M920.16,84.161a3.865,3.865,0,0,1,.885.989,7.621,7.621,0,0,1,.772,6.253,23.955,23.955,0,0,1-1.808,3.866,20.93,20.93,0,0,1-1.786,2.473,2.008,2.008,0,0,1-1.224.78c-.5.1-.968.312-1.464.418a2.307,2.307,0,0,1-.707-.072l-.008-.153c.449-.376.9-.743,1.344-1.128a13.234,13.234,0,0,0,3.746-5.231,11.865,11.865,0,0,0,.932-2.7,6.459,6.459,0,0,0-1.193-4.913c-.2-.273-.4-.549-.628-.858A1.222,1.222,0,0,1,920.16,84.161Z" transform="translate(-50.788 -10.951)"/>
    <path id="Path_15" data-name="Path 15" d="M904.931,91.567a13.255,13.255,0,0,0,2.983-7.309c.022-.263,0-.529,0-.846a4.624,4.624,0,0,1,2.594.872,1.29,1.29,0,0,0,.411.274,2.42,2.42,0,0,1,1.629,2.168,8.543,8.543,0,0,1,.051,2.8,10.144,10.144,0,0,1-1.733,3.957,17.65,17.65,0,0,1-3.668,3.972,8.41,8.41,0,0,1-3.824,1.72c-1.545.246-3.083.547-4.637.719A11.414,11.414,0,0,1,893.073,99a6.386,6.386,0,0,1-3.12-2.715,6.648,6.648,0,0,1-.515-1.146.71.71,0,0,1,.007-.471c.165-.42.258-.447.647-.215.622.371,1.217.791,1.856,1.126a7.741,7.741,0,0,0,6.254.336,23.9,23.9,0,0,0,2.745-1.139,6.787,6.787,0,0,0,1.161-.829A15.447,15.447,0,0,0,904.931,91.567Z" transform="translate(-43.77 -10.831)"/>
    <path id="Path_16" data-name="Path 16" d="M900.172,66.054c.69,1.231,1.354,2.476,2.026,3.717a18.776,18.776,0,0,1,.11,2.962c-.171,1.5-.581,2.967-.809,4.461-.4,2.587-2.025,4.363-3.866,5.987a20.688,20.688,0,0,1-9.267,4.627,1.326,1.326,0,0,1-1.453-.452c.688-.24,1.37-.472,2.048-.714a18.307,18.307,0,0,0,4.164-1.981c1.349-.913,2.613-1.952,3.919-2.93.4-.3.827-.575,1.222-.885a27.117,27.117,0,0,0,2.686-4.951,10.857,10.857,0,0,0,.376-2.128,8.762,8.762,0,0,0,0-2.319,26.454,26.454,0,0,0-.9-3.145c-.279-.87-.607-1.725-.921-2.61A.646.646,0,0,1,900.172,66.054Z" transform="translate(-43.083 -5.936)"/>
    <path id="Path_17" data-name="Path 17" d="M863.713,79.946a4.078,4.078,0,0,1-.342,1.318c-.3.7-.664,1.373-1.006,2.056-.045.089-.1.2-.177.24a.98.98,0,0,1-.555.139c-.1-.025-.2-.325-.17-.476.164-.848.368-1.688.56-2.53.071-.31.15-.617.222-.927a1.652,1.652,0,0,0-1-2.028,2.089,2.089,0,0,1-1.183-1.354A3.4,3.4,0,0,1,863.713,79.946Z" transform="translate(-35.669 -8.89)"/>
    <path id="Path_18" data-name="Path 18" d="M841.593,73.852a1,1,0,0,0-.269-1.236,1.208,1.208,0,0,1,1.449-.224c.425.2.856.389,1.291.565a3.5,3.5,0,0,1,2.073,2.865,6.613,6.613,0,0,1-.266,2.791c-.092.41-.206.814-.307,1.222-.081.329,0,.447.335.379a4.234,4.234,0,0,0,.845-.32c.162-.071.3-.2.463-.266a.432.432,0,0,1,.622.429.706.706,0,0,1-.056.3c-.473.972-.914,1.964-1.444,2.9A3.227,3.227,0,0,1,844.2,84.87c-.5.119-.657.447-.633.979.021.5-.059,1.013-.052,1.519a8.255,8.255,0,0,0,.127,1.192c.036.22.216.277.413.2a7.038,7.038,0,0,0,.76-.354c.845-.473,1.668-.987,2.529-1.428a2.269,2.269,0,0,0,1.333-1.981,14.506,14.506,0,0,1,3.179-7.854c.407-.524.807-1.053,1.208-1.581a1.5,1.5,0,0,0,.277-.41,3.844,3.844,0,0,1,1.643-1.85c.376-.284.762-.557,1.142-.835a1.458,1.458,0,0,1,1.622-.021c.358.179.4.486.2.921-.292.623-.593,1.24-.865,1.872a1.965,1.965,0,0,0-.062.565l.156.026c.3-.612.612-1.222.915-1.834a8.124,8.124,0,0,1,2.276-2.981c.081-.062.156-.156.248-.176a7.729,7.729,0,0,1,3.159-.38,3.192,3.192,0,0,1,2.264,2.093,6.29,6.29,0,0,1,.2,4.047c-.145.7-.235,1.4-.345,2.105a.7.7,0,0,0,.017.18c.043-.007.08,0,.087-.016a7.962,7.962,0,0,0,1.5-3.631c.026-1.205-.079-2.416-.173-3.62-.053-.684-.2-1.359-.306-2.04a4.986,4.986,0,0,0-2.121-3.366,7.224,7.224,0,0,0-4.731-1.684c-1.323.083-2.613-.211-3.924-.132a5.537,5.537,0,0,1-.916.018.758.758,0,0,1-.526-.245.571.571,0,0,1,.157-.518,26.751,26.751,0,0,1,2.4-1.886A10.3,10.3,0,0,1,863.3,60.1a15.249,15.249,0,0,1,5.65,1.349,14.655,14.655,0,0,1,3.863,2.139,7.141,7.141,0,0,1,2.482,4.6c.166,1.108.41,2.2.561,3.313a3.578,3.578,0,0,1-.042,1.509,40.084,40.084,0,0,1-1.469,4.051,11.619,11.619,0,0,1-4.019,4.523,20.378,20.378,0,0,1-4.681,2.56,4.594,4.594,0,0,1-1.23.235.911.911,0,0,0-.85.636,6.123,6.123,0,0,1-.672,1.273,41.607,41.607,0,0,1-2.552,3.432,7.457,7.457,0,0,1-5.033,2.456,4.427,4.427,0,0,1-2.368-.492,8.68,8.68,0,0,1-3.486-2.666,1.561,1.561,0,0,0-.182-.167c-.676.711-1.336,1.382-1.97,2.076a17.963,17.963,0,0,1-4,3.233,2.837,2.837,0,0,1-2.133.348,10.093,10.093,0,0,1-1.576-.449,4.414,4.414,0,0,1-2.82-5.321q.284-1.267.557-2.536c.026-.122.026-.249.048-.464a5.034,5.034,0,0,0-.924.128c-.916.307-1.826.633-2.724.988a1.386,1.386,0,0,0-.761.96c-.562,1.837-1.131,3.671-1.666,5.515-.248.854-.416,1.732-.637,2.594-.1.374-.294.476-.581.289a6.142,6.142,0,0,1-2.837-3.238c-.272-.874-.316-.726-.871-.185-1.407,1.37-2.815,2.738-4.238,4.09a2.93,2.93,0,0,1-3.084.669,5.51,5.51,0,0,1-2.025-1.038,3.9,3.9,0,0,1-1.328-2.707c-.033-.349-.067-.7-.111-1.16-.247.349-.453.6-.619.881-.378.634-.747,1.275-1.1,1.923a22.774,22.774,0,0,1-2.879,4,1.646,1.646,0,0,1-1.663.539,3.951,3.951,0,0,1-2.615-1.711,11.577,11.577,0,0,1-2.006-5.227,5.694,5.694,0,0,1,.631-3.4,56.333,56.333,0,0,0,3.984-10.111,1.079,1.079,0,0,0-.164-1.047.355.355,0,0,1-.082-.127c-.049-.229-.088-.461-.131-.691a2.63,2.63,0,0,1,.643-.048,17.09,17.09,0,0,1,1.718.356,4.04,4.04,0,0,1,2.93,5.426c-.578,1.683-1.32,3.31-1.984,4.963-.132.33-.251.667-.352,1.007a1.1,1.1,0,0,0-.03.453c.113.825.465.957,1.147.5a10.255,10.255,0,0,0,2.954-3.193c1.7-2.736,3.528-5.4,5.3-8.09a9.385,9.385,0,0,0,.518-.934,1.274,1.274,0,0,0-.224-1.516c-.262-.307-.48-.651-.718-.978l.06-.106c.459.111.927.2,1.376.341a6.337,6.337,0,0,1,3.389,2.479,4.055,4.055,0,0,1,.611,3.383,15.5,15.5,0,0,1-1.54,3.73q-1.132,2.143-2.2,4.32a9,9,0,0,0-.464,1.332c-.114.368.045.559.419.475a3.455,3.455,0,0,0,.964-.339,21.947,21.947,0,0,0,3.75-2.825,3.469,3.469,0,0,0,.993-1.6,83.968,83.968,0,0,1,3.674-9.464,8.122,8.122,0,0,0,.507-1.551,2.353,2.353,0,0,0-.523-1.93c-.088-.119-.172-.242-.309-.434.166.022.245.025.32.044a6.57,6.57,0,0,1,2.907,1.619,3.621,3.621,0,0,1,.987,3.238c-.118,1.037-.309,2.065-.465,3.1-.026.172-.038.347-.065.592a7.176,7.176,0,0,0,.78-.146c.949-.292,1.892-.6,2.839-.9a.89.89,0,0,0,.635-.6Q840.531,77.1,841.593,73.852Z" transform="translate(-20.373 -4.394)"/>
    <path id="Path_19" data-name="Path 19" d="M860.078,95.71a9.3,9.3,0,0,1-.594,1.388.559.559,0,0,1-.472.169c-.287-.041-.361-.282-.38-.565.146-.549.279-1.1.451-1.642a.411.411,0,0,1,.347-.2.993.993,0,0,1,.567.274A.7.7,0,0,1,860.078,95.71Z" transform="translate(-35.274 -13.992)"/>
    <path id="Path_20" data-name="Path 20" d="M885.091,110.131c.428,0,.649.182.516.518a11.97,11.97,0,0,1-.917,1.953.991.991,0,0,1-1.583.128C884.779,111.321,884.779,111.321,885.091,110.131Z" transform="translate(-42.032 -18.208)"/>
    <path id="Path_21" data-name="Path 21" d="M881.785,110.862c-.1.041-.268-.035-.379-.1-.3-.181-.582-.4-.889-.576a.868.868,0,0,1-.473-.7c.156-.383.3-.773.471-1.147a3.973,3.973,0,0,1,.456-.791,2.067,2.067,0,0,1,.524-.394c.071-.046.176-.035.251-.077.135-.075.279-.261.387-.239a10.239,10.239,0,0,1,1.416.393c.083.03.153.269.132.395-.1.589-.219,1.172-.344,1.755C883.159,110.221,882.487,110.565,881.785,110.862Z" transform="translate(-41.186 -17.297)"/>
    <path id="Path_22" data-name="Path 22" d="M872.327,103.605a7.916,7.916,0,0,1-4.4,1.678,15.521,15.521,0,0,1-2.663-.053,4.535,4.535,0,0,1-2.623-1.223c-.768-.675-.917-.633-1.524.177a5.147,5.147,0,0,1-1.01,1.021,18.051,18.051,0,0,1-3.743,2.358,5.445,5.445,0,0,1-3.689.449,7.217,7.217,0,0,1-4.364-3.082c-.209-.342-.441-.67-.678-1.029a.9.9,0,0,1,.961.334,7.692,7.692,0,0,0,3.918,2.1,2.157,2.157,0,0,0,.489.07,10.013,10.013,0,0,0,4.154-.457,8.652,8.652,0,0,0,3.216-2.341,8.455,8.455,0,0,0,.6-.967,1.485,1.485,0,0,1,.335-.384c.3-.227.612-.3.877.075a.484.484,0,0,0,.183.137,13.177,13.177,0,0,0,4.387,1.755,4.615,4.615,0,0,0,2.821-.444,18.522,18.522,0,0,1,2.114-1.118,3.726,3.726,0,0,0,1.335-1.132c.528-.568,1-1.19,1.477-1.8a2.657,2.657,0,0,0,.674-1.628c0-.271.167-.279.358-.127a1.093,1.093,0,0,1,.29,1.472A16.459,16.459,0,0,1,872.327,103.605Z" transform="translate(-32.238 -14.821)"/>
    <path id="Path_23" data-name="Path 23" d="M868.833,113.8c1.236-.032,1.732-.912,2.122-1.881a.7.7,0,0,1,.6-.489.5.5,0,0,1,.373.088c.059.055.048.245,0,.343a3.108,3.108,0,0,1-1.4,1.628.724.724,0,0,0-.214.158,1.623,1.623,0,0,1-1.644.3C868.746,113.882,868.789,113.806,868.833,113.8Z" transform="translate(-38.046 -18.566)"/>
    <path id="Path_24" data-name="Path 24" d="M867.77,111.8a7.428,7.428,0,0,1-.4-1.05,1.858,1.858,0,0,1,2.341-1.693,4.313,4.313,0,0,1,.872.263,1,1,0,0,1,.479.562.766.766,0,0,1-.313.575,2.861,2.861,0,0,0-1.061,1.347.965.965,0,0,1-.629.581A1.3,1.3,0,0,1,867.77,111.8Z" transform="translate(-37.687 -17.89)"/>
    <path id="Path_25" data-name="Path 25" d="M860.488,128.6a4.321,4.321,0,0,1-.109.755l-.123-.007c-.081-.547-.158-1.095-.243-1.641a17.25,17.25,0,0,1-.244-4.414c.19-1.834.462-3.659.712-5.487a6.011,6.011,0,0,1,1.774-3.252c.2-.211.334-.176.478.047a1.674,1.674,0,0,1,.019,1.905,11.828,11.828,0,0,0-1.619,4.376A43.4,43.4,0,0,0,860.488,128.6Z" transform="translate(-35.572 -19.39)"/>
    <path id="Path_26" data-name="Path 26" d="M835.767,134.489a1.626,1.626,0,0,1,.1.659c.047.392.084.785.136,1.176a.392.392,0,0,1-.336.473.623.623,0,0,1-.461-.209c-.193-.216-.3-.515-.5-.719a2.675,2.675,0,0,0-.8-.59c-.537-.231-.684-.512-.426-1.039.577-1.177,1.2-2.335,1.723-3.535a25.07,25.07,0,0,0,.88-2.6,1.924,1.924,0,0,0-.538-2.1,13.931,13.931,0,0,0-1.792-1.276c-.465-.3-.964-.549-1.448-.82a9.378,9.378,0,0,1,3.472.962,3.433,3.433,0,0,1,2.023,2.683,3.3,3.3,0,0,1-.267,2.166q-.793,1.628-1.679,3.209A1.337,1.337,0,0,0,835.767,134.489Z" transform="translate(-28.006 -22.012)"/>
    <path id="Path_27" data-name="Path 27" d="M830.674,111.167a4.084,4.084,0,0,1-1.8,1.236.821.821,0,0,1-.56-.016,2.059,2.059,0,0,1-.475-.366,5.75,5.75,0,0,1,.517-.488c.115-.087.3-.078.413-.168.66-.535,1.335-1.057,1.951-1.64.534-.505,1-1.086,1.489-1.635a1.136,1.136,0,0,1,1.669.355,6.309,6.309,0,0,1-.634.3,3.257,3.257,0,0,0-1.51,1.063C831.374,110.259,831.018,110.708,830.674,111.167Z" transform="translate(-26.772 -17.578)"/>
    <path id="Path_28" data-name="Path 28" d="M838.331,109.139a2.878,2.878,0,0,1-1.272-1.5c.391.191.712.379,1.054.509a1.551,1.551,0,0,0,2.133-.9,7.943,7.943,0,0,0,.487-1.68,30.245,30.245,0,0,1,2.075-6.367c.1-.235.177-.476.266-.714a.339.339,0,0,1,.049-.068.8.8,0,0,1,.333.837c-.082.565-.185,1.128-.316,1.684-.449,1.916-.922,3.827-1.368,5.743a3.63,3.63,0,0,1-1.949,2.5A1.437,1.437,0,0,1,838.331,109.139Z" transform="translate(-29.318 -14.975)"/>
    <path id="Path_29" data-name="Path 29" d="M806.865,128.475a12.051,12.051,0,0,1-5.838-1.236,17.572,17.572,0,0,1-3.2-2.463,3.187,3.187,0,0,1-.5-.861l.109-.126a3.791,3.791,0,0,1,.526.2c.522.287,1.016.63,1.554.882,1.071.5,2.173.938,3.245,1.441a9.588,9.588,0,0,0,6.958.464,13.167,13.167,0,0,0,7.325-5.016c.237-.33.513-.633.772-.948.08-.1.164-.187.247-.28l.122.091a8.693,8.693,0,0,1-1.848,2.836c-.6.483-1.126,1.062-1.7,1.588a9.715,9.715,0,0,1-1.15.99c-.688.458-1.425.841-2.127,1.278A8.231,8.231,0,0,1,806.865,128.475Z" transform="translate(-18.347 -21.078)"/>
    <path id="Path_30" data-name="Path 30" d="M811.135,142.367a15.234,15.234,0,0,1-1.965,3.26,16.756,16.756,0,0,0-2.687,4.2,1.03,1.03,0,0,1-1.66.324c-.214-.2-.2-.373-.011-.589.563-.641,1.065-1.344,1.676-1.934,1.8-1.736,2.85-3.989,4.248-6,.049-.072.1-.14.158-.211C811.256,141.741,811.322,141.966,811.135,142.367Z" transform="translate(-20.375 -26.847)"/>
    <path id="Path_31" data-name="Path 31" d="M817.959,110.164c-.453.964-.9,1.934-1.423,2.86a2.369,2.369,0,0,1-1.721,1.273,1.991,1.991,0,0,1-.34.033c-.268-.006-.377-.132-.18-.351.258-.285.572-.52.824-.81q1.189-1.367,2.345-2.762a2.354,2.354,0,0,0,.244-.509c.061-.13.125-.259.188-.388l.12.038A1.848,1.848,0,0,1,817.959,110.164Z" transform="translate(-23.005 -18.036)"/>
    <path id="Path_32" data-name="Path 32" d="M802.427,93.63a3.359,3.359,0,0,0-.589-.748,1.867,1.867,0,0,0-.379-.4,6.152,6.152,0,0,0-.83-.426c-.233-.1-.48-.172-.787-.279a1.229,1.229,0,0,1,1.209-.234,7.963,7.963,0,0,1,1.461.721,2.158,2.158,0,0,1,.927,2.3c-.114.638-.1,1.3-.211,1.936a5.6,5.6,0,0,1-.442,1.158c-.03.071-.144.106-.294.21.044-.712.065-1.33.127-1.944A4.575,4.575,0,0,0,802.427,93.63Z" transform="translate(-19.043 -13.054)"/>
    <path id="Path_33" data-name="Path 33" d="M834.473,84.057a2.241,2.241,0,0,0-1.4-1.572,2.6,2.6,0,0,1-1.118-1,1.248,1.248,0,0,1-.083-.463,1.533,1.533,0,0,1,.45-.057,4.658,4.658,0,0,1,3.878,3.909,3.928,3.928,0,0,1-.226,2.29,35.63,35.63,0,0,1-3.177,6.591,4.171,4.171,0,0,1-1.552,1.528,9.254,9.254,0,0,1,.379-.89c.39-.709.848-1.383,1.2-2.109a20.466,20.466,0,0,0,1.788-5.7A7.507,7.507,0,0,0,834.473,84.057Z" transform="translate(-27.713 -10.154)"/>
    <path id="Path_34" data-name="Path 34" d="M826.233,71.032a17.165,17.165,0,0,0-6.457,1.557A48.418,48.418,0,0,0,808.448,79.1c-.641.5-1.322.956-2,1.414a1.6,1.6,0,0,1-.469.138l-.062-.13c.121-.14.244-.277.362-.418a33.979,33.979,0,0,1,8.1-6.931,24.484,24.484,0,0,1,6.422-2.949,25.989,25.989,0,0,1,5.635-1.14,8.431,8.431,0,0,1,6.105,1.561,10.477,10.477,0,0,1,1.065,1.041,1.277,1.277,0,0,1,.31,1.38,11.33,11.33,0,0,1-.625,1.3c-.065.121-.219.193-.389.333-.012-.144-.022-.212-.023-.281a2.919,2.919,0,0,0-2.767-3.148A30.9,30.9,0,0,0,826.233,71.032Z" transform="translate(-20.721 -6.868)"/>
    <path id="Path_35" data-name="Path 35" d="M818.083,86.727a6.8,6.8,0,0,0-.363-.96c-.018-.046-.064-.085-.075-.132-.3-1.309-1.385-1.8-2.432-2.338a1.294,1.294,0,0,1-.159-.093c-.015-.012-.014-.046-.054-.2.536.06,1.022.1,1.5.172a3.393,3.393,0,0,1,.666.165c1.878.669,2.146.994,2.5,3.374a9.984,9.984,0,0,1-.311,3.951.97.97,0,0,1-.058.182,11.642,11.642,0,0,1-2.516,3.7c-.328.3-.447.318-.995.275a5.7,5.7,0,0,0,.523-.455,8.022,8.022,0,0,0,1.849-3.965A9.109,9.109,0,0,0,818.083,86.727Z" transform="translate(-23.228 -10.718)"/>
    <path id="Path_36" data-name="Path 36" d="M754.887,74.624c-.067-.515-.159-1.026-.247-1.577.665.264,1.269.528,1.89.744a9.5,9.5,0,0,0,3.767.489,17.687,17.687,0,0,0,6.421-1.927,69.375,69.375,0,0,0,6.772-4.008q3.185-1.972,6.366-3.953a6.2,6.2,0,0,1,3.4-1.11,4,4,0,0,1,2.783,1.176,1.659,1.659,0,0,1,.489,1.43.911.911,0,0,0,0,.414,5.39,5.39,0,0,1-.039,3.486,11.862,11.862,0,0,1-1.312,3.37,53.721,53.721,0,0,1-4.213,6.69,36.109,36.109,0,0,0-4.017,6.218.868.868,0,0,0-.129.453,3.292,3.292,0,0,0,.248-.323,60.766,60.766,0,0,1,8.884-11.218c1.653-1.682,3.24-3.431,4.929-5.075,1.624-1.582,3.3-3.123,5.036-4.574a27.839,27.839,0,0,1,3.193-2.087c2.2-1.374,4.458-2.674,6.62-4.114a14.034,14.034,0,0,1,5.592-2.224c1.091-.18,2.161-.484,3.251-.675a10.662,10.662,0,0,1,4.02.255,21.1,21.1,0,0,1,2.226.534,6.287,6.287,0,0,1,4.139,4.373A19.474,19.474,0,0,1,825.5,64a1.591,1.591,0,0,1-.066.751c-.324.964-.624,1.941-1.035,2.867A3.8,3.8,0,0,1,821.53,69.8a.745.745,0,0,1-.3.023c-.14-.03-.32-.062-.39-.16a.416.416,0,0,1,.078-.377,1.945,1.945,0,0,0-.005-2.538,5.881,5.881,0,0,0-5.732-3,29.345,29.345,0,0,0-9.04,2.094,42.55,42.55,0,0,0-14.362,8.837,41.694,41.694,0,0,0-5.051,5.984q-.646.877-1.293,1.755c-.08.109-.155.223-.266.383.58.1,1.085.165,1.58.274a2.918,2.918,0,0,1,2.413,3.006,24.536,24.536,0,0,0,2.945,11.5,13.271,13.271,0,0,0,1.247,1.829,4.817,4.817,0,0,0,5.413,1.675,27.991,27.991,0,0,0,3.365-1.213c.81-.328,1.586-.742,2.373-1.126.619-.3,1.231-.617,1.852-.929a1.1,1.1,0,0,1-.025.186c-.238.859-.455,1.724-.724,2.571a7.815,7.815,0,0,1-1.737,2.982c-.789.85-1.511,1.767-2.347,2.566a7.875,7.875,0,0,1-4.926,2.2,16.3,16.3,0,0,1-1.664.209,11.2,11.2,0,0,1-6.589-2.215c-.591-.442-1.148-.932-1.7-1.421a9.29,9.29,0,0,1-2.674-5.049,52.1,52.1,0,0,1-1.15-7.159c-.156-1.569-.316-3.138-.483-4.806a2.286,2.286,0,0,0-.324.32A59.546,59.546,0,0,0,776.1,99.875a34.438,34.438,0,0,0-.953,4.275,1.934,1.934,0,0,0,.169,1.332,1,1,0,0,1-.268,1.268,3.231,3.231,0,0,1-3.166.7,8.773,8.773,0,0,1-3.761-1.694,20.523,20.523,0,0,1-4.722-4.809,4.7,4.7,0,0,1-.921-3.782,3.485,3.485,0,0,1,.542-1.247c1.139-1.582,2.256-3.187,3.5-4.685a40.164,40.164,0,0,0,4.11-6.292c1.788-3.218,3.66-6.388,5.493-9.581q1.532-2.668,3.051-5.344a1.728,1.728,0,0,0,.113-.371l-.087-.068a10.582,10.582,0,0,0-.917.654c-2.531,2.238-5.074,4.464-7.42,6.9-.865.9-1.784,1.75-2.724,2.571a10.321,10.321,0,0,1-2.785,1.566,6.8,6.8,0,0,1-5.506-.114,7.287,7.287,0,0,1-4.961-6.533Z" transform="translate(-6.563 -3.298)"/>
    <path id="Path_37" data-name="Path 37" d="M759.521,93.367a5.172,5.172,0,0,1-2.713-1.824c-.5-.615-.974-1.244-1.46-1.867-.031-.041-.08-.078-.088-.123a1.934,1.934,0,0,1-.014-.275c.088.025.2.023.257.08a7.106,7.106,0,0,0,2.533,1.732,16.5,16.5,0,0,0,3.53,1.314,7.308,7.308,0,0,0,3.109-.025,9.767,9.767,0,0,0,4.3-1.962c.362-.321.725-.64,1.012-.893a4.379,4.379,0,0,1-2.805,3.409,9.782,9.782,0,0,1-3.011,1.053,8.772,8.772,0,0,1-2.049-.02A23.089,23.089,0,0,1,759.521,93.367Z" transform="translate(-6.73 -12.45)"/>
    <path id="Path_38" data-name="Path 38" d="M767.786,121.394a37.509,37.509,0,0,1-2.439-2.887,6.237,6.237,0,0,1-.78-1.645,2.713,2.713,0,0,1-.016-.875l.162-.062a9.567,9.567,0,0,1,.746,1.129,10.449,10.449,0,0,0,4.881,4.837,16.109,16.109,0,0,0,3.139,1.161,10.3,10.3,0,0,0,2.449.231,3.584,3.584,0,0,0,2.278-1.115,3.28,3.28,0,0,0,1-2.636c.089-1.294.284-2.579.4-3.87a13.575,13.575,0,0,1,1.38-4.107c.485-1.121,1.047-2.209,1.606-3.3a12.1,12.1,0,0,1,.767-1.159l.1.056c-.032.121-.058.243-.1.361-.44,1.328-.914,2.646-1.316,3.985a28.422,28.422,0,0,0-1.05,5.911c-.111,1.369-.342,2.728-.537,4.09a1.255,1.255,0,0,1-.631.917,1.51,1.51,0,0,0-.709.909,1.686,1.686,0,0,1-.811.977,4.212,4.212,0,0,1-2.169.636,9.968,9.968,0,0,1-4.558-.754A12.678,12.678,0,0,1,767.786,121.394Z" transform="translate(-9.291 -17.371)"/>
    <path id="Path_39" data-name="Path 39" d="M756.428,167.908c-.738-.106,1.649-3.609,4.219-2.731a.889.889,0,0,0,1.026-.237,37.139,37.139,0,0,0,5-6.167c1.07-1.659,2.046-3.378,3.064-5.071.091-.152.18-.307.272-.465a.634.634,0,0,0-.848-.349c-.368.1-.745.161-1.14.245a1.815,1.815,0,0,1,.223-1.748c.4-.6.856-1.173,1.305-1.743.781-.992,1.576-1.973,2.362-2.961a2.264,2.264,0,0,1,1.421-.953c.174-.029.371-.3.445-.5.781-2.14,1.578-4.275,2.295-6.435a64.667,64.667,0,0,0,2-8.506q.548-2.927,1.1-5.854a2.052,2.052,0,0,0-.4-1.785.986.986,0,0,1,.948-.186,14.662,14.662,0,0,1,1.509.641,4.429,4.429,0,0,1,2.167,2.474c.285.749.508,1.52.757,2.282.13.395.206.423.509.147a13.867,13.867,0,0,1,6.47-3.195,3.793,3.793,0,0,1,2.783.367,6.105,6.105,0,0,1,2.514,2.055,2.706,2.706,0,0,1,.161,2.756,30.875,30.875,0,0,1-1.779,3.415,21.406,21.406,0,0,0-1.726,3.139,16.212,16.212,0,0,1-2.754,3.853c-.049.057-.1.117-.165.2.42.29.829.568,1.235.851.386.269.775.538,1.153.818a.781.781,0,0,0,.956.028c.633-.379,1.272-.753,1.923-1.1a.536.536,0,0,0,.327-.608,5.222,5.222,0,0,1,1.163-4.035,10.189,10.189,0,0,1,.738-.775.684.684,0,0,1,.323-.188c.924-.179,1.845-.382,2.777-.5a3.7,3.7,0,0,1,2.33.478,20.523,20.523,0,0,0-.911,2.5c-.323,1.412-.531,2.851-.75,4.285a1.754,1.754,0,0,0,.15.852.86.86,0,0,0,1.368.431,5.371,5.371,0,0,0,1.124-.914,16.833,16.833,0,0,0,3.467-5.583c.369-1.134.614-2.31.9-3.471a1.059,1.059,0,0,0-.03-.489c-.108-.424-.358-.56-.741-.353-.615.332-1.216.694-1.805,1.072a3.5,3.5,0,0,1-1.907.589.916.916,0,0,1-1-.8,5.714,5.714,0,0,1-.058-1.549,2.192,2.192,0,0,1,1.048-1.369c2.138-1.664,4.426-3.158,6.109-5.341a6.72,6.72,0,0,0,.4-.562.974.974,0,0,0-.029-1.207,1.087,1.087,0,0,0-1.241-.461,8.624,8.624,0,0,0-5.509,5.683.735.735,0,0,0-.05.337,1.145,1.145,0,0,1-.481,1.079,6.441,6.441,0,0,1-2.234,1.284.391.391,0,0,1-.185,0,.559.559,0,0,1-.145-.047,4.243,4.243,0,0,1-2.383-2.892,2.729,2.729,0,0,1,.377-1.837,6.19,6.19,0,0,1,1.6-2.119,23.056,23.056,0,0,1,4.292-3.368,29.7,29.7,0,0,1,3.09-1.409,4.743,4.743,0,0,1,5.651,1.983,4.569,4.569,0,0,1,.332,2.941,9.867,9.867,0,0,1-1.218,3.071c-.283.555-.523,1.131-.812,1.683-.146.278-.043.423.175.566a4.8,4.8,0,0,1,.784.541,4.47,4.47,0,0,1,1.317,4.564,4.855,4.855,0,0,0-.082.62l.1.03c.206-.414.418-.825.618-1.241.634-1.318.628-1.3,2.113-1.078a3.8,3.8,0,0,1,1.168.431c.3.159.4.092.481-.2q1.378-4.927,2.765-9.85a26.051,26.051,0,0,1,1.886-5.515,37.149,37.149,0,0,1,2.3-3.643,5.8,5.8,0,0,1,2.93-1.928c.871-.319,1.767-.57,2.66-.825a1.5,1.5,0,0,1,1.4.32.45.45,0,0,1,.1.7,8.212,8.212,0,0,0-1.663,4.6,33.86,33.86,0,0,0,.115,8.425c.117,1.048.094,2.113.109,3.17a3.951,3.951,0,0,0,.552,1.923c.146.257.329.366.586.178.75-.547,1.5-1.1,2.23-1.669.065-.051.056-.252.023-.366-.271-.941-.609-1.866-.822-2.82a9.371,9.371,0,0,1,.4-4.933,19.918,19.918,0,0,1,4.711-8.08,9.374,9.374,0,0,1,2.438-1.779c.384-.2.754-.423,1.137-.625a5.573,5.573,0,0,1,2.993-.589,1.694,1.694,0,0,1,.771.31c.488.323.96.674,1.417,1.04a3.039,3.039,0,0,1,1.061,2.66,11.656,11.656,0,0,1-2.4,6.144c-.818,1.216-1.675,2.407-2.535,3.594a1.423,1.423,0,0,1-2.529-.1,5.722,5.722,0,0,1-.82-4.5,1.051,1.051,0,0,1,1.138-.915,2.122,2.122,0,0,0,1.977-1.147q.889-1.69,1.734-3.4c.2-.405.111-.541-.342-.515a1.111,1.111,0,0,0-.694.224,21.566,21.566,0,0,0-3.52,4.461,17.621,17.621,0,0,0-1.915,6.244,9.473,9.473,0,0,0-.086,1.747,3.054,3.054,0,0,0,1.2,2.143,1.747,1.747,0,0,0,1.542.163,5.579,5.579,0,0,0,3.13-1.861,16.523,16.523,0,0,0,2.934-4.223,1.933,1.933,0,0,1,.263-.464,5.876,5.876,0,0,0,1.034-2.348c.83-2.833,1.715-5.649,2.577-8.473a5.044,5.044,0,0,0,.2-3,6.407,6.407,0,0,0-.38-.827c-.115-.243-.424-.544-.156-.738a1.387,1.387,0,0,1,.933-.08,2.355,2.355,0,0,1,.659.373c.885.506,1.776,1,2.654,1.518a6.9,6.9,0,0,1,.895.653,1.964,1.964,0,0,1,.749,1.29,3.4,3.4,0,0,0,.193.565c.383-.41.7-.738,1-1.074a7.616,7.616,0,0,1,2.823-1.917,1.643,1.643,0,0,1,1.6.111,14.318,14.318,0,0,1,1.437.932,7.716,7.716,0,0,1,.917,1.149,1.891,1.891,0,0,1,.253-.44,22.183,22.183,0,0,1,2.484-2.306,7.825,7.825,0,0,1,2.406-.978,8.041,8.041,0,0,1,2.11-.262,3.121,3.121,0,0,1,2.741,2.5,7.9,7.9,0,0,1-.516,3.747q-1.443,4.389-2.892,8.775a2.425,2.425,0,0,0-.118.442c-.176,1.331.7,1.962,1.93,1.8a3.041,3.041,0,0,0,.964-.345A14.845,14.845,0,0,0,878.785,119a17.775,17.775,0,0,0,3.1-5.75,10.719,10.719,0,0,0,.43-2.277.951.951,0,0,0-1.522-.874,6.264,6.264,0,0,0-2.735,2.993,3.488,3.488,0,0,0-.21,2.094c.031.152-.072.332-.115.5a1.462,1.462,0,0,1-.494-.184c-.685-.626-1.35-1.276-2.021-1.917a.7.7,0,0,1-.151-.906c.612-1.1,1.224-2.2,1.869-3.287a4.027,4.027,0,0,1,4.794-1.713,8.6,8.6,0,0,1,2.724,1.351,2.62,2.62,0,0,1,.579.552,6.3,6.3,0,0,1,1.212,5.889c-.2.605-.391,1.211-.6,1.81a9.607,9.607,0,0,1-2.121,3.151q-1.156,1.275-2.329,2.535a2.416,2.416,0,0,1-.38.315c-.8.567-1.637,1.087-2.395,1.7a28.671,28.671,0,0,1-3.918,2.59,1.878,1.878,0,0,1-.285.095,8.822,8.822,0,0,0-.873.342c-.552.28-1.076.62-1.639.875-.52.236-1.073.4-1.615.584a2.008,2.008,0,0,1-1.524-.106,6.486,6.486,0,0,1-3.795-4.051,4.844,4.844,0,0,1,.17-3.22c.722-1.931,1.478-3.85,2.2-5.783.4-1.074.76-2.162,1.129-3.246.085-.248.13-.51.224-.887a6.663,6.663,0,0,0-.93.307,7.666,7.666,0,0,0-3.287,3.158c-.3.547-.6,1.094-.926,1.628a14.676,14.676,0,0,0-1.709,5.466,16.669,16.669,0,0,0-.3,3.762,2.764,2.764,0,0,0,1.173,2.327.747.747,0,0,1,.279.56c0,.116-.266.272-.439.329a5.763,5.763,0,0,1-3.3.3,4.247,4.247,0,0,1-3.125-3.669,10,10,0,0,1,.508-4.441c.741-2.354,1.507-4.7,2.254-7.054a1.663,1.663,0,0,0,.073-.6c-.023-.355-.24-.467-.579-.359a2.163,2.163,0,0,0-1.346,1,.461.461,0,0,1-.153.168,2.648,2.648,0,0,0-1.118,1.713c-.678,2.558-1.394,5.107-2.048,7.672a10.164,10.164,0,0,0-.092,4.1,1.048,1.048,0,0,1,.022.341,1.54,1.54,0,0,0,.54,1.54c.236.208.139.415-.1.507a4.443,4.443,0,0,1-3.95-.048,6.5,6.5,0,0,1-1.693-1.507,5.7,5.7,0,0,1-.652-1.448c-.047-.11-.08-.227-.151-.427-.2.29-.342.51-.5.717-.523.689-1.053,1.373-1.577,2.06a3.11,3.11,0,0,0-.419.59,3.91,3.91,0,0,1-3.538,2.45,8.337,8.337,0,0,0-1.1.163,3.422,3.422,0,0,1-2.67-.65c-.225-.144-.449-.289-.676-.431a.824.824,0,0,0-1.084.1c-.426.384-.826.8-1.276,1.153-1.093.856-2.191,1.706-3.321,2.512a2.162,2.162,0,0,1-2.823.029,1.591,1.591,0,0,0-.4-.216,5.521,5.521,0,0,1-3.427-4.2,15.476,15.476,0,0,1-.33-5.012,1.164,1.164,0,0,0-.072-.539c-.056.131-.12.258-.167.392-1.222,3.5-2.422,7-3.677,10.484a18.681,18.681,0,0,1-1.226,2.537,2.935,2.935,0,0,1-1.35,1.2,4.407,4.407,0,0,0-.695.468,1.691,1.691,0,0,1-2.458-.177c-.285-.291-.565-.59-.83-.9a2.546,2.546,0,0,1-.5-2.4,2.825,2.825,0,0,0,.059-.3,1.444,1.444,0,0,0-.035-.254c-.131.227-.221.37-.3.52a32.771,32.771,0,0,1-5.053,7.259,13.362,13.362,0,0,1-4.113,3,3.493,3.493,0,0,1-2.852.163c-.5-.193-1-.376-1.5-.555a4.6,4.6,0,0,1-2.994-3.409c-.1-.394-.206-.789-.283-1.189-.055-.29-.16-.35-.4-.17-.452.332-.91.656-1.367.982-.176.126-.269.282-.145.489a7.118,7.118,0,0,1,.787,4.367,15.353,15.353,0,0,1-1.562,5.9,8.034,8.034,0,0,1-.838,1.365c-1.354,1.691-2.634,3.46-4.135,5.013a16.419,16.419,0,0,1-9.362,5.038,5.209,5.209,0,0,1-5.121-2.169,2.826,2.826,0,0,1-.35-2.275,5.559,5.559,0,0,1,1.025-2.359,65.866,65.866,0,0,1,4.689-5.545,37.661,37.661,0,0,1,6.325-5.919,1.57,1.57,0,0,0,.24-.19c.109-.12.314-.308.283-.373-.091-.188-.26-.439-.432-.468a13.34,13.34,0,0,0-2.081-.218,5.421,5.421,0,0,0-2.943.941,13.617,13.617,0,0,1-1.4.777,2.739,2.739,0,0,0-1.365,1.52c-.788,1.836-1.593,3.666-2.432,5.48a38.279,38.279,0,0,1-6.475,9.419,13.987,13.987,0,0,1-3.22,2.969c-.987.575-2.035,1.05-3.071,1.535a1.8,1.8,0,0,1-1.346-.012A30.83,30.83,0,0,0,756.428,167.908Z" transform="translate(-7.019 -17.136)"/>
    <path id="Path_40" data-name="Path 40" d="M889.131,142.448a5.3,5.3,0,0,1-3.483.507,4.124,4.124,0,0,1-2.24-1.391c-.219-.295-.45-.58-.675-.869l.064-.082a5.135,5.135,0,0,0,3.5,1.172,5.709,5.709,0,0,0,3.554-1.046A1.382,1.382,0,0,1,889.131,142.448Z" transform="translate(-41.928 -26.624)"/>
    <path id="Path_41" data-name="Path 41" d="M874.735,141.169a7.164,7.164,0,0,1-4.383,3.674,8.91,8.91,0,0,0-1.036.384,2.77,2.77,0,0,1-2.154.009c-.782-.3-1.565-.607-2.367-.846a1,1,0,0,0-.77.165c-1.04.777-2.041,1.607-3.074,2.394a13.773,13.773,0,0,1-1.4.919c-.326.19-1.186-.239-1.378-.691a2.524,2.524,0,0,0,1.913-.667c.746-.5,1.55-.908,2.285-1.418a10.089,10.089,0,0,0,1.267-1.155c.125-.124.151-.4.282-.451a1.464,1.464,0,0,1,.722-.031,5.582,5.582,0,0,1,.871.259,2.822,2.822,0,0,1,.622.259,3.894,3.894,0,0,0,2.668.389,8.2,8.2,0,0,0,4.674-2.324,9.941,9.941,0,0,0,1.051-1.346l.2.041C874.734,140.879,874.8,141.059,874.735,141.169Z" transform="translate(-35.147 -26.645)"/>
    <path id="Path_42" data-name="Path 42" d="M845.732,143.662a13.928,13.928,0,0,1-.208,1.663c-.277,1.148-.605,2.285-.934,3.42a8.42,8.42,0,0,1-1.911,3.526,3.84,3.84,0,0,1-2.778,1.249,1.745,1.745,0,0,1-.572-.2l.022-.143a2.162,2.162,0,0,1,.329-.162,6.044,6.044,0,0,0,3.189-2.653,12.61,12.61,0,0,0,1.54-3.31c.369-1.146.778-2.279,1.17-3.418Z" transform="translate(-29.945 -27.457)"/>
    <path id="Path_43" data-name="Path 43" d="M831.67,153.625a8.425,8.425,0,0,1-6.315,7.387,1.256,1.256,0,0,1,.166-.333,3.32,3.32,0,0,1,.535-.43,12.106,12.106,0,0,0,4.09-4.463c.353-.62.725-1.229,1.106-1.832C831.328,153.833,831.486,153.766,831.67,153.625Z" transform="translate(-26.087 -30.216)"/>
    <path id="Path_44" data-name="Path 44" d="M788.01,165.491c.42.9-.542,2.758-1.35,3.077A5.7,5.7,0,0,1,788.01,165.491Z" transform="translate(-15.4 -33.492)"/>
    <path id="Path_45" data-name="Path 45" d="M773.435,186.119a3.624,3.624,0,0,1-1.152,1.94q-1.393,1.42-2.805,2.822a6.008,6.008,0,0,1-3.048,1.648c-1.058.221-2.107.491-3.168.7a3.7,3.7,0,0,1-2.2-.281l-.007-.132c.69-.143,1.386-.261,2.067-.44.473-.125.922-.338,1.385-.5.226-.08.463-.125.689-.2a7.871,7.871,0,0,0,2.639-1.331c.68-.562,1.528-.935,2.162-1.538,1.121-1.067,2.138-2.245,3.2-3.378a.76.76,0,0,0,.08-.13l.135.028A4.127,4.127,0,0,1,773.435,186.119Z" transform="translate(-8.334 -38.961)"/>
    <path id="Path_46" data-name="Path 46" d="M799.569,175.946a32.589,32.589,0,0,1-4.752,5.41,18.581,18.581,0,0,1-8.864,4.082,8.32,8.32,0,0,1-5.111-.7,3.455,3.455,0,0,1-1.674-1.667,2.253,2.253,0,0,1-.072-.835l.13-.027c.485.3.956.628,1.457.9a8.827,8.827,0,0,0,5.371.893,15.155,15.155,0,0,0,9.051-4.523c1.041-1.03,2.045-2.1,3.063-3.15a1.908,1.908,0,0,0,.283-.36,51.111,51.111,0,0,0,3.279-5.769c.244-.585.439-1.19.656-1.786l.112.01c-.041.442-.059.889-.13,1.327a10.738,10.738,0,0,1-1.444,3.633c-.279.484-.5,1-.761,1.495A9.354,9.354,0,0,1,799.569,175.946Z" transform="translate(-13.314 -34.3)"/>
    <path id="Path_47" data-name="Path 47" d="M888.011,149.947c-3.006.392-6.016.754-9.018,1.176-4.251.6-8.459,1.425-12.633,2.434-4.479,1.082-8.935,2.248-13.3,3.743a102.269,102.269,0,0,0-21.632,10.256c-2.227,1.408-4.29,3.074-6.48,4.544a62.93,62.93,0,0,0-11.606,10.317c-.41.455-.825.907-1.267,1.328a1.706,1.706,0,0,1-.63.314.37.37,0,0,1-.3-.1c-.036-.035.011-.185.053-.268A30.59,30.59,0,0,1,821.334,172.2a127.073,127.073,0,0,1,35-17.046,168.243,168.243,0,0,1,17.516-4.366c1.286-.247,2.6-.329,3.9-.494,1.478-.188,2.953-.406,4.435-.565a28.722,28.722,0,0,1,2.9-.172c1.116-.006,2.232.071,3.348.116a.733.733,0,0,1,.193.062l.006.1C888.429,149.868,888.222,149.92,888.011,149.947Z" transform="translate(-22.16 -29.092)"/>
    <path id="Path_48" data-name="Path 48" d="M893.2,145.543a58.677,58.677,0,0,1-7.052.429,28.442,28.442,0,0,0-3.761.367c-2.248.289-4.5.567-6.736.932-3.457.565-6.851,1.42-10.24,2.3-2.932.759-5.907,1.37-8.8,2.256-3.465,1.061-6.872,2.319-10.289,3.535a98.008,98.008,0,0,0-19.853,9.65c-2.6,1.655-5.133,3.421-7.682,5.157a26,26,0,0,0-3.847,3.433c-1.3,1.331-2.629,2.636-3.923,3.976a16.554,16.554,0,0,0-1.2,1.476c-.243.319-.379.36-.682.106a3.156,3.156,0,0,1-.993-2.05,8.835,8.835,0,0,1,.143-3.077c.31-1.651.561-3.315.93-4.954a9.3,9.3,0,0,1,4.136-5.88,59.2,59.2,0,0,1,11.563-5.862c4.768-1.821,9.528-3.664,14.338-5.368a138.278,138.278,0,0,1,15.341-4.228c3.287-.752,6.593-1.422,9.909-2.034,2.089-.385,4.208-.61,6.318-.88,1.819-.232,3.645-.417,5.466-.636a53.776,53.776,0,0,1,7.369-.286c1.6.028,3.211.074,4.813.158a14.489,14.489,0,0,1,1.806.3q1.615.293,3.227.6c.147.028.29.08.434.121l.046.151A3.117,3.117,0,0,1,893.2,145.543Z" transform="translate(-21.311 -27.528)"/>
    <path id="Path_49" data-name="Path 49" d="M930.459,114.6a12.513,12.513,0,0,1-1.6,5.174,28.248,28.248,0,0,1-2.427,4.015,7.02,7.02,0,0,0-.908,1.221,10.878,10.878,0,0,1-2.43,2.93,3.108,3.108,0,0,1-1.255.864c-.338.109-.771.251-.782.8,0,.143-.317.313-.517.416-1.313.674-2.61,1.388-3.958,1.983a26.363,26.363,0,0,1-5.9,1.814,5.6,5.6,0,0,1-3.187-.345,1.728,1.728,0,0,1-1-1.048c-.145-.394-.307-.781-.44-1.179-.077-.234-.113-.482-.167-.724l.109-.059c.18.2.349.416.543.6a2.8,2.8,0,0,0,.636.527,7.249,7.249,0,0,0,4.595.582,18.247,18.247,0,0,0,5.073-1.852c1.126-.561,2.226-1.177,3.315-1.808a4.248,4.248,0,0,0,.761-.735c.036-.035.056-.086.093-.119q.951-.848,1.9-1.694c.645-.574,1.3-1.134,1.93-1.729a11.269,11.269,0,0,0,2.857-4.719,17.149,17.149,0,0,1,.992-2.02,6.112,6.112,0,0,0,.83-4.028A.947.947,0,0,1,930.459,114.6Z" transform="translate(-48.325 -19.13)"/>
    <path id="Path_50" data-name="Path 50" class="cls-1" d="M751.943,158.935c.2-.893.341-1.8.606-2.676a19.142,19.142,0,0,1,6.629-9.805,4.127,4.127,0,0,1,3.884-.709,14.7,14.7,0,0,1,2.181.875,1.348,1.348,0,0,1,.525.633,5.266,5.266,0,0,1-3.1,7.335,16.155,16.155,0,0,1-2.244.518,4.437,4.437,0,0,1-.976-.035l-.061-.146c.231-.225.452-.463.7-.675a9.594,9.594,0,0,0,3.05-3.785,12.036,12.036,0,0,0,.521-1.925c.106-.562-.207-.793-.773-.671a3.255,3.255,0,0,0-1.819,1.333,18.464,18.464,0,0,0-3.89,8.314c-.266,1.411-.57,2.815-.864,4.221a1.486,1.486,0,0,0,.269,1.223,5.85,5.85,0,0,0,2.68,2.107,1.085,1.085,0,0,0,1.312-.273,38.431,38.431,0,0,0,5.648-7.272q1.187-1.978,2.359-3.964c.082-.14.157-.433.1-.476a.98.98,0,0,0-.609-.217,10.524,10.524,0,0,0-1.252.252,1.836,1.836,0,0,1,.279-1.862c1.037-1.354,2.092-2.7,3.142-4.039a3.543,3.543,0,0,1,1.937-1.581c.18-.041.345-.354.431-.575a72.629,72.629,0,0,0,4.357-15.347c.258-1.667.613-3.319.934-4.976a2.451,2.451,0,0,0-.306-2.123,1.021,1.021,0,0,1,1.07-.151,5.332,5.332,0,0,1,3.9,4.055c.137.544.336,1.073.531,1.682.195-.137.322-.207.428-.3a13.723,13.723,0,0,1,6.613-3.166,3.437,3.437,0,0,1,2.572.4,13.028,13.028,0,0,1,2.036,1.44,2.814,2.814,0,0,1,.574,3.57c-.916,1.744-1.96,3.423-2.812,5.2a19.065,19.065,0,0,1-3.535,5.2c.882.613,1.7,1.218,2.559,1.751a.989.989,0,0,0,.791-.069c.6-.291,1.158-.667,1.75-.977a.766.766,0,0,0,.465-.84,5.244,5.244,0,0,1,1.789-4.535,1.49,1.49,0,0,1,.64-.343c.8-.177,1.6-.327,2.411-.46a3.817,3.817,0,0,1,2.208.284c.238.106.339.224.207.5a22.216,22.216,0,0,0-1.521,6.309,1.864,1.864,0,0,0,.063.788c.248.872.831,1.1,1.542.531a14.056,14.056,0,0,0,1.643-1.6,16.163,16.163,0,0,0,3.692-8.263,1.154,1.154,0,0,0-.258-.8c-.068-.086-.464.012-.663.117-.56.3-1.1.638-1.639.97a3.385,3.385,0,0,1-2,.557.873.873,0,0,1-.911-.82c-.049-.313-.065-.631-.093-.948a1.9,1.9,0,0,1,.83-1.772c1.355-1.037,2.749-2.031,4.023-3.161a25.767,25.767,0,0,0,2.68-2.9.982.982,0,0,0-.415-1.582,1.128,1.128,0,0,0-.8-.069,8.508,8.508,0,0,0-5.433,5.5.7.7,0,0,0-.072.238c.1,1.118-.733,1.556-1.494,2.045-.125.081-.277.122-.4.206a1.6,1.6,0,0,1-2.128-.236,4.3,4.3,0,0,1-1.47-2.445,2.267,2.267,0,0,1,.13-1.123,5.975,5.975,0,0,1,1.674-2.583c.731-.662,1.471-1.316,2.212-1.967a15.9,15.9,0,0,1,5.559-3.029,4.552,4.552,0,0,1,4.918,1.271,3.9,3.9,0,0,1,.875,3.7,10.074,10.074,0,0,1-.7,2.078c-.377.873-.817,1.719-1.255,2.565a.487.487,0,0,0,.209.743,4.407,4.407,0,0,1,2.023,4.971,1.436,1.436,0,0,0-.009.665c.258-.517.513-1.036.772-1.552.423-.838.617-.95,1.547-.772a7.674,7.674,0,0,1,1.387.4c.543.217.549.242.709-.331.9-3.2,1.779-6.406,2.708-9.6a35.057,35.057,0,0,1,1.631-4.935,27.227,27.227,0,0,1,2.7-4.385,4.47,4.47,0,0,1,1.81-1.366A32.866,32.866,0,0,1,829.612,112a1.587,1.587,0,0,1,.964.118c.648.264.712.589.277,1.141a8.642,8.642,0,0,0-1.493,4.406,36.6,36.6,0,0,0,.13,8.655c.091.913.005,1.844.106,2.755a10.307,10.307,0,0,0,.5,1.968c.119.371.376.468.733.188.617-.487,1.252-.951,1.889-1.411a.5.5,0,0,0,.2-.645c-.3-.992-.625-1.979-.833-2.99a9.614,9.614,0,0,1,.582-5.07,18.537,18.537,0,0,1,4.9-7.943,10.053,10.053,0,0,1,5.123-2.689,2.9,2.9,0,0,1,2.312.537c2.038,1.486,2.466,2.56,1.889,5.03a10.8,10.8,0,0,1-1.529,3.523q-1.566,2.361-3.222,4.662a1.407,1.407,0,0,1-2.513-.083,5.587,5.587,0,0,1-.838-4.548,1.017,1.017,0,0,1,1.089-.91,2.3,2.3,0,0,0,2.189-1.465c.483-1.028,1.029-2.026,1.537-3.043.215-.431.1-.6-.377-.52a1.415,1.415,0,0,0-.7.328,16.866,16.866,0,0,0-5.415,11.149,3.46,3.46,0,0,0,1.016,3.157,1.517,1.517,0,0,0,1.292.384,5.5,5.5,0,0,0,3.318-1.718,24.491,24.491,0,0,0,3.2-4.467c1.424-2.361,1.764-5.06,2.676-7.576.488-1.349.849-2.745,1.262-4.122a4.092,4.092,0,0,0-.407-3.563c-.274-.426-.145-.67.363-.682a1.827,1.827,0,0,1,.861.19c.694.365,1.362.781,2.039,1.179,1.218.717,2.6,1.283,2.732,3.1.379-.4.67-.7.945-1a7.87,7.87,0,0,1,2.807-1.977,1.89,1.89,0,0,1,1.858.127,5.341,5.341,0,0,1,2.1,1.817c.657-.607,1.322-1.189,1.95-1.81a7.544,7.544,0,0,1,3.982-1.86c.111-.023.218-.065.326-.1h1.606a3.327,3.327,0,0,1,2.3,3.863,6.309,6.309,0,0,1-.266,1.423c-.544,1.753-1.117,3.5-1.686,5.243-.5,1.524-1,3.045-1.5,4.567a1.6,1.6,0,0,0,.269,1.736,1.625,1.625,0,0,0,1.727.361,6.577,6.577,0,0,0,1.316-.6,16.8,16.8,0,0,0,6.474-7.143,12.238,12.238,0,0,0,1.414-4.618.966.966,0,0,0-.413-1,1,1,0,0,0-1.092.05,6.524,6.524,0,0,0-2.172,1.974,3.925,3.925,0,0,0-.775,2.975,2.655,2.655,0,0,1-.083.7,3.922,3.922,0,0,1-.637-.373c-.641-.588-1.262-1.2-1.894-1.793a.737.737,0,0,1-.141-1c.646-1.132,1.271-2.277,1.947-3.389a3.516,3.516,0,0,1,2.5-1.682,6.23,6.23,0,0,1,6.343,3.42,18.168,18.168,0,0,1,.728,2.314v.8c-.229.812-.464,1.622-.685,2.436a8.677,8.677,0,0,1-2.095,3.606q-1.254,1.368-2.507,2.738a2.065,2.065,0,0,1-.328.309c-1.963,1.363-3.869,2.821-5.914,4.047a42.741,42.741,0,0,1-4.76,2.195,2.207,2.207,0,0,1-1.937-.1,6.6,6.6,0,0,1-3.482-3.572,5.057,5.057,0,0,1,.051-3.719q1.62-4.369,3.229-8.742c.113-.308.183-.632.312-1.084a9.029,9.029,0,0,0-1.017.374,7.6,7.6,0,0,0-3.142,3.011,16.7,16.7,0,0,0-2.375,5.486,20.948,20.948,0,0,0-.573,5.715,2.705,2.705,0,0,0,1.078,2.01c.525.391.455.748-.162.961a5.491,5.491,0,0,1-3.443.228,4.324,4.324,0,0,1-2.983-3.891,10.708,10.708,0,0,1,.561-4.243q1.051-3.293,2.1-6.587c.02-.064.043-.127.059-.191.091-.381.359-.881-.047-1.092a1.237,1.237,0,0,0-1.073.293,5.412,5.412,0,0,0-1.947,2.636c-.594,2.45-1.29,4.875-1.949,7.309a10.076,10.076,0,0,0-.165,4.228,1.907,1.907,0,0,1,.028.547,1.527,1.527,0,0,0,.444,1.325c.346.363.313.5-.127.684a4.44,4.44,0,0,1-6.035-2.654c-.087-.232-.18-.462-.314-.8-.9,1.268-1.819,2.414-2.576,3.659a4.23,4.23,0,0,1-3.465,2.148,2.4,2.4,0,0,0-.5.049,3.96,3.96,0,0,1-3.586-.754c-.819-.565-.925-.489-1.687.138-1.446,1.187-2.916,2.348-4.416,3.467a2.092,2.092,0,0,1-2.695,0,2.364,2.364,0,0,0-.434-.247,5.509,5.509,0,0,1-3.415-4.1,16.59,16.59,0,0,1-.376-4.983.794.794,0,0,0-.1-.476c-.067.162-.141.322-.2.487-1.178,3.357-2.33,6.722-3.545,10.064a25.15,25.15,0,0,1-1.341,2.8,1.716,1.716,0,0,1-.526.6c-.6.421-1.216.823-1.847,1.2a1.293,1.293,0,0,1-1.346.068,4.084,4.084,0,0,1-2.109-2.608,7.441,7.441,0,0,1-.017-1.52c-.26.467-.528.956-.8,1.442a29.158,29.158,0,0,1-5.183,6.857,12.659,12.659,0,0,1-3.312,2.237,3.635,3.635,0,0,1-3.1.114c-.385-.161-.777-.307-1.173-.437a4.585,4.585,0,0,1-3.117-3.383c-.14-.509-.263-1.023-.418-1.623-.612.442-1.158.821-1.682,1.229a.419.419,0,0,0-.085.394,8.26,8.26,0,0,1,.669,5.42,12.942,12.942,0,0,1-2.2,6.113c-.94,1.3-1.969,2.537-2.99,3.777a19.021,19.021,0,0,1-5.031,4.409,14.515,14.515,0,0,1-6.027,2.045,5.016,5.016,0,0,1-4.808-2.424,2.943,2.943,0,0,1-.041-2.762,7.71,7.71,0,0,1,1.21-2.174c3.249-3.954,6.483-7.929,10.658-10.988a8.5,8.5,0,0,0,.63-.585,3.742,3.742,0,0,0-.843-.447,6.006,6.006,0,0,0-5.012.952.925.925,0,0,1-.219.122,4.719,4.719,0,0,0-2.716,3.006A50.568,50.568,0,0,1,772.7,158.5a47.136,47.136,0,0,1-6.438,7.995,11.375,11.375,0,0,1-3.244,2.06,4.739,4.739,0,0,1-2.513.735.962.962,0,0,0-.327.094h-1.708a2.441,2.441,0,0,0-.312-.106,6.163,6.163,0,0,1-3.532-1.826,10.667,10.667,0,0,1-2.432-4.7c-.085-.367-.167-.735-.25-1.1ZM780.03,141.6c.327-.261.547-.413.738-.594.7-.667,1.4-1.346,2.092-2.019a41.474,41.474,0,0,0,5.369-6.143,3.3,3.3,0,0,0,.487-1.128.553.553,0,0,0-.55-.728,4.343,4.343,0,0,0-1.24-.007,7.555,7.555,0,0,0-5.374,4.764A45.331,45.331,0,0,0,780.03,141.6Zm5.156,10.224-.106-.081a5.617,5.617,0,0,0-.512.33,24.521,24.521,0,0,0-4.49,5.413.8.8,0,0,0-.1.227c-.145.469.046.676.519.569a3.661,3.661,0,0,0,2.551-1.782c.743-1.375,1.382-2.805,2.055-4.216A1.791,1.791,0,0,0,785.187,151.829Z" transform="translate(-5.818 -17.128)"/>
    <path id="Path_51" data-name="Path 51" class="cls-1" d="M785.168,82.8c.58.1,1.085.164,1.58.274a2.918,2.918,0,0,1,2.413,3.006,24.536,24.536,0,0,0,2.945,11.5,13.271,13.271,0,0,0,1.247,1.829,4.817,4.817,0,0,0,5.413,1.675,27.876,27.876,0,0,0,3.365-1.213c.81-.327,1.586-.741,2.373-1.125.619-.3,1.231-.617,1.852-.929a1.1,1.1,0,0,1-.025.186c-.238.859-.455,1.724-.724,2.571a7.815,7.815,0,0,1-1.737,2.982c-.789.85-1.511,1.767-2.347,2.566a7.875,7.875,0,0,1-4.926,2.2,16.314,16.314,0,0,1-1.664.209,11.2,11.2,0,0,1-6.589-2.215c-.591-.442-1.148-.932-1.7-1.421a9.29,9.29,0,0,1-2.674-5.049,52.1,52.1,0,0,1-1.15-7.159c-.156-1.569-.316-3.138-.483-4.806a2.286,2.286,0,0,0-.324.32A59.547,59.547,0,0,0,776.1,99.875a34.45,34.45,0,0,0-.953,4.276,1.932,1.932,0,0,0,.169,1.331,1,1,0,0,1-.268,1.268,3.231,3.231,0,0,1-3.166.7,8.772,8.772,0,0,1-3.761-1.694,20.522,20.522,0,0,1-4.722-4.809,4.7,4.7,0,0,1-.921-3.782,3.485,3.485,0,0,1,.542-1.247c1.139-1.582,2.256-3.187,3.5-4.685a40.164,40.164,0,0,0,4.11-6.292c1.788-3.218,3.66-6.388,5.493-9.581q1.532-2.668,3.051-5.344a1.728,1.728,0,0,0,.113-.371l-.087-.068a10.586,10.586,0,0,0-.917.654c-2.531,2.238-5.074,4.464-7.42,6.9-.865.9-1.784,1.75-2.724,2.571a10.321,10.321,0,0,1-2.785,1.566,6.8,6.8,0,0,1-5.506-.114,7.288,7.288,0,0,1-4.961-6.533c-.067-.515-.159-1.026-.247-1.577.665.264,1.269.528,1.89.744a9.5,9.5,0,0,0,3.767.489,17.688,17.688,0,0,0,6.421-1.927,69.372,69.372,0,0,0,6.772-4.008q3.185-1.972,6.366-3.953a6.2,6.2,0,0,1,3.4-1.11,4.006,4.006,0,0,1,2.783,1.176,1.66,1.66,0,0,1,.489,1.431.9.9,0,0,0,0,.413,5.392,5.392,0,0,1-.039,3.487,11.862,11.862,0,0,1-1.312,3.37,53.72,53.72,0,0,1-4.213,6.69,36.109,36.109,0,0,0-4.017,6.218.868.868,0,0,0-.129.453,3.293,3.293,0,0,0,.248-.323,60.767,60.767,0,0,1,8.884-11.218c1.653-1.682,3.24-3.431,4.929-5.075,1.624-1.582,3.3-3.123,5.036-4.574a27.837,27.837,0,0,1,3.193-2.087c2.2-1.374,4.458-2.674,6.62-4.114a14.034,14.034,0,0,1,5.592-2.224c1.091-.18,2.161-.484,3.251-.675a10.677,10.677,0,0,1,4.02.255,21.1,21.1,0,0,1,2.226.534,6.287,6.287,0,0,1,4.139,4.373A19.475,19.475,0,0,1,825.5,64a1.591,1.591,0,0,1-.066.751c-.324.964-.624,1.941-1.035,2.867A3.8,3.8,0,0,1,821.53,69.8a.745.745,0,0,1-.3.023c-.14-.03-.32-.062-.39-.16a.416.416,0,0,1,.078-.377,1.945,1.945,0,0,0-.005-2.538,5.881,5.881,0,0,0-5.732-3,29.346,29.346,0,0,0-9.04,2.094,42.55,42.55,0,0,0-14.362,8.837,41.7,41.7,0,0,0-5.051,5.984q-.646.877-1.293,1.755C785.353,82.531,785.279,82.644,785.168,82.8Zm-14.145,17.927.193.018a128.06,128.06,0,0,1,5.154-13.48.373.373,0,0,0-.215.164c-.894,1.628-1.851,3.226-2.66,4.894a44.558,44.558,0,0,0-2.461,7.412A3.778,3.778,0,0,0,771.023,100.731Z" transform="translate(-6.563 -3.298)"/>
    <path id="Path_52" data-name="Path 52" class="cls-1" d="M849.267,88.854c-.676.711-1.336,1.382-1.97,2.076a17.962,17.962,0,0,1-4,3.233,2.837,2.837,0,0,1-2.133.348,10.076,10.076,0,0,1-1.576-.449,4.414,4.414,0,0,1-2.82-5.321q.283-1.267.557-2.536c.026-.122.026-.249.048-.464a5.032,5.032,0,0,0-.924.128c-.916.308-1.826.633-2.724.988a1.386,1.386,0,0,0-.761.96c-.562,1.837-1.132,3.671-1.667,5.515-.248.854-.416,1.732-.637,2.594-.1.374-.294.476-.581.289a6.142,6.142,0,0,1-2.837-3.238c-.272-.874-.316-.726-.871-.185-1.406,1.37-2.815,2.739-4.238,4.09a2.93,2.93,0,0,1-3.084.669,5.5,5.5,0,0,1-2.025-1.038,3.9,3.9,0,0,1-1.328-2.707c-.033-.349-.067-.7-.111-1.16-.247.349-.453.6-.619.881-.378.634-.747,1.275-1.1,1.923a22.765,22.765,0,0,1-2.879,4,1.646,1.646,0,0,1-1.663.539,3.951,3.951,0,0,1-2.615-1.711,11.588,11.588,0,0,1-2.007-5.227,5.7,5.7,0,0,1,.632-3.4,56.348,56.348,0,0,0,3.984-10.111,1.079,1.079,0,0,0-.164-1.047.355.355,0,0,1-.082-.127c-.049-.229-.088-.461-.131-.691a2.631,2.631,0,0,1,.643-.048,17.08,17.08,0,0,1,1.718.356,4.04,4.04,0,0,1,2.93,5.426c-.578,1.683-1.32,3.31-1.983,4.963-.133.33-.251.667-.353,1.007a1.1,1.1,0,0,0-.03.453c.113.825.465.957,1.147.5a10.253,10.253,0,0,0,2.954-3.193c1.7-2.736,3.528-5.4,5.3-8.09a9.362,9.362,0,0,0,.518-.934,1.274,1.274,0,0,0-.224-1.516c-.262-.307-.48-.651-.718-.978l.059-.106c.459.111.927.2,1.376.341a6.336,6.336,0,0,1,3.389,2.479,4.055,4.055,0,0,1,.611,3.383,15.5,15.5,0,0,1-1.541,3.73q-1.131,2.143-2.2,4.319a9.043,9.043,0,0,0-.464,1.333c-.114.368.045.559.418.475a3.456,3.456,0,0,0,.964-.339,21.945,21.945,0,0,0,3.75-2.825,3.469,3.469,0,0,0,.993-1.6,83.933,83.933,0,0,1,3.674-9.464,8.121,8.121,0,0,0,.507-1.551,2.352,2.352,0,0,0-.523-1.93c-.088-.119-.172-.242-.309-.434.166.022.245.025.32.044a6.571,6.571,0,0,1,2.907,1.619,3.623,3.623,0,0,1,.987,3.238c-.118,1.037-.309,2.065-.465,3.1-.026.172-.038.347-.065.592a7.178,7.178,0,0,0,.78-.146c.949-.292,1.892-.6,2.838-.9a.89.89,0,0,0,.635-.6q1.049-3.253,2.11-6.5a1,1,0,0,0-.269-1.236,1.208,1.208,0,0,1,1.449-.224c.425.2.856.389,1.292.565a3.5,3.5,0,0,1,2.073,2.865,6.614,6.614,0,0,1-.266,2.791c-.092.41-.206.814-.307,1.222-.081.329,0,.447.335.379a4.233,4.233,0,0,0,.846-.32c.162-.072.3-.2.462-.266a.431.431,0,0,1,.623.429.711.711,0,0,1-.056.3c-.473.972-.914,1.964-1.444,2.9a3.227,3.227,0,0,1-2.135,1.613c-.5.119-.656.447-.633.979.021.5-.059,1.013-.052,1.519a8.264,8.264,0,0,0,.127,1.192c.036.22.216.277.413.2a7.035,7.035,0,0,0,.76-.354c.845-.473,1.668-.987,2.529-1.428a2.269,2.269,0,0,0,1.333-1.982,14.511,14.511,0,0,1,3.179-7.854c.407-.523.807-1.052,1.208-1.58a1.5,1.5,0,0,0,.277-.41,3.845,3.845,0,0,1,1.643-1.85c.376-.284.762-.557,1.142-.835a1.457,1.457,0,0,1,1.622-.02c.358.178.4.485.2.92-.292.623-.594,1.24-.865,1.872a1.967,1.967,0,0,0-.062.565l.156.026c.3-.612.612-1.222.915-1.834a8.122,8.122,0,0,1,2.276-2.981c.081-.062.156-.156.248-.176a7.729,7.729,0,0,1,3.159-.38,3.193,3.193,0,0,1,2.264,2.093,6.291,6.291,0,0,1,.2,4.047c-.145.7-.235,1.4-.345,2.105a.7.7,0,0,0,.017.18c.043-.007.08,0,.087-.016a7.962,7.962,0,0,0,1.5-3.631c.026-1.205-.079-2.416-.173-3.62-.053-.684-.2-1.359-.306-2.04a4.986,4.986,0,0,0-2.121-3.366,7.224,7.224,0,0,0-4.731-1.684c-1.323.083-2.613-.211-3.924-.132a5.537,5.537,0,0,1-.916.018.758.758,0,0,1-.526-.245.572.572,0,0,1,.157-.519,26.841,26.841,0,0,1,2.4-1.885A10.294,10.294,0,0,1,863.3,60.1a15.233,15.233,0,0,1,5.651,1.349,14.658,14.658,0,0,1,3.864,2.139,7.14,7.14,0,0,1,2.481,4.6c.165,1.108.41,2.2.561,3.313a3.584,3.584,0,0,1-.042,1.509,40.113,40.113,0,0,1-1.469,4.051,11.613,11.613,0,0,1-4.019,4.523,20.375,20.375,0,0,1-4.681,2.56,4.592,4.592,0,0,1-1.23.235.911.911,0,0,0-.851.636,6.117,6.117,0,0,1-.672,1.273,41.648,41.648,0,0,1-2.552,3.432,7.457,7.457,0,0,1-5.033,2.456,4.431,4.431,0,0,1-2.369-.492,8.687,8.687,0,0,1-3.485-2.665A1.487,1.487,0,0,0,849.267,88.854Zm8.286-3.525a2.271,2.271,0,0,0,2.289-1.389c.1-.234.011-.353-.181-.462a5.545,5.545,0,0,1-2.8-4.439c-.012-.1-.12-.19-.183-.284-.067.082-.175.154-.2.246-.271,1.217-.544,2.433-.784,3.656a4.574,4.574,0,0,0-.064,1.176,1.512,1.512,0,0,0,1.537,1.495C857.3,85.336,857.427,85.328,857.554,85.328Zm3.925-4.267a6.015,6.015,0,0,0,1.309-3.875c0-.625-.28-.913-1.014-1.048-.5-.092-.8.093-1,.652a4.477,4.477,0,0,0,.2,3.481A6.6,6.6,0,0,0,861.479,81.061Z" transform="translate(-20.373 -4.394)"/>
    <path id="Path_53" data-name="Path 53" class="cls-1" d="M893.976,145.231a3.117,3.117,0,0,1-.776.312,58.677,58.677,0,0,1-7.052.429,28.442,28.442,0,0,0-3.761.367c-2.248.289-4.5.567-6.736.932-3.457.565-6.851,1.42-10.24,2.3-2.932.759-5.908,1.37-8.8,2.256-3.465,1.061-6.872,2.319-10.289,3.535a98.008,98.008,0,0,0-19.853,9.65c-2.6,1.655-5.133,3.421-7.682,5.157a26,26,0,0,0-3.847,3.433c-1.3,1.331-2.629,2.636-3.923,3.976a16.554,16.554,0,0,0-1.2,1.476c-.243.319-.379.36-.682.106a3.156,3.156,0,0,1-.993-2.05,8.835,8.835,0,0,1,.143-3.077c.31-1.651.561-3.315.93-4.954a9.3,9.3,0,0,1,4.136-5.88,59.2,59.2,0,0,1,11.563-5.862c4.768-1.821,9.528-3.664,14.338-5.368a138.115,138.115,0,0,1,15.341-4.227c3.287-.753,6.593-1.423,9.909-2.035,2.089-.386,4.209-.61,6.318-.88,1.819-.232,3.645-.417,5.466-.636a53.776,53.776,0,0,1,7.369-.286c1.6.028,3.211.074,4.813.158a14.489,14.489,0,0,1,1.806.3q1.615.293,3.227.6c.147.028.29.08.434.121Z" transform="translate(-21.311 -27.528)"/>
    <path id="Path_54" data-name="Path 54" class="cls-1" d="M907.917,83.413a4.624,4.624,0,0,1,2.594.872,1.29,1.29,0,0,0,.411.274,2.42,2.42,0,0,1,1.629,2.168,8.543,8.543,0,0,1,.051,2.8,10.152,10.152,0,0,1-1.733,3.958,17.662,17.662,0,0,1-3.668,3.971,8.41,8.41,0,0,1-3.824,1.72c-1.545.246-3.083.547-4.637.719A11.414,11.414,0,0,1,893.073,99a6.386,6.386,0,0,1-3.12-2.715,6.648,6.648,0,0,1-.515-1.146.71.71,0,0,1,.007-.471c.165-.42.258-.447.647-.215.622.371,1.217.791,1.856,1.126a7.741,7.741,0,0,0,6.254.336,23.9,23.9,0,0,0,2.745-1.139,6.787,6.787,0,0,0,1.161-.829,15.473,15.473,0,0,0,2.823-2.383,13.26,13.26,0,0,0,2.983-7.309C907.937,84,907.917,83.729,907.917,83.413Z" transform="translate(-43.77 -10.831)"/>
    <path id="Path_55" data-name="Path 55" class="cls-1" d="M880.045,109.482c.156-.383.3-.773.471-1.147a3.973,3.973,0,0,1,.456-.791,2.067,2.067,0,0,1,.524-.394c.071-.046.176-.035.251-.077.135-.075.279-.261.387-.239a10.239,10.239,0,0,1,1.416.393c.083.03.153.269.132.395-.1.589-.219,1.172-.344,1.755-.18.844-.852,1.188-1.553,1.485-.1.041-.268-.035-.379-.1-.3-.181-.582-.4-.889-.576A.868.868,0,0,1,880.045,109.482Z" transform="translate(-41.186 -17.297)"/>
    <path id="Path_56" data-name="Path 56" class="cls-1" d="M867.37,110.75a1.858,1.858,0,0,1,2.341-1.693,4.313,4.313,0,0,1,.872.263,1,1,0,0,1,.479.562.766.766,0,0,1-.313.575,2.861,2.861,0,0,0-1.061,1.347.965.965,0,0,1-.629.581,1.3,1.3,0,0,1-1.289-.586A7.428,7.428,0,0,1,867.37,110.75Z" transform="translate(-37.687 -17.89)"/>
    <path id="Path_57" data-name="Path 57" d="M777.26,112.609a3.776,3.776,0,0,1,.012-.992,44.553,44.553,0,0,1,2.461-7.412c.809-1.669,1.766-3.266,2.66-4.894a.373.373,0,0,1,.215-.164,128.008,128.008,0,0,0-5.154,13.48Z" transform="translate(-12.8 -15.175)"/>
    <g id="Group_9" data-name="Group 9" transform="translate(748.516 59.748)">
      <path id="Path_58" data-name="Path 58" class="cls-1" d="M839.352,153.175a2.162,2.162,0,0,1,.329-.162,6.044,6.044,0,0,0,3.189-2.653,12.61,12.61,0,0,0,1.54-3.31c.369-1.146.778-2.279,1.17-3.418l.154.03a13.928,13.928,0,0,1-.208,1.663c-.277,1.148-.605,2.285-.934,3.42a8.42,8.42,0,0,1-1.911,3.526,3.84,3.84,0,0,1-2.778,1.249,1.745,1.745,0,0,1-.572-.2Z" transform="translate(-778.461 -87.205)"/>
      <g id="Group_8" data-name="Group 8">
        <path id="Path_59" data-name="Path 59" class="cls-1" d="M888.638,149.828c-.209.041-.416.092-.627.119-3.006.392-6.016.754-9.018,1.176-4.251.6-8.459,1.425-12.633,2.434-4.479,1.082-8.935,2.248-13.3,3.743a102.269,102.269,0,0,0-21.632,10.256c-2.227,1.408-4.289,3.074-6.48,4.544a62.93,62.93,0,0,0-11.606,10.317c-.41.455-.825.907-1.267,1.328a1.706,1.706,0,0,1-.63.314.37.37,0,0,1-.3-.1c-.036-.035.011-.185.053-.268A30.59,30.59,0,0,1,821.334,172.2a127.052,127.052,0,0,1,35-17.046,168.243,168.243,0,0,1,17.516-4.366c1.286-.247,2.6-.33,3.9-.494,1.478-.188,2.953-.406,4.435-.565a28.722,28.722,0,0,1,2.9-.172c1.116-.006,2.232.071,3.348.116a.733.733,0,0,1,.193.062Z" transform="translate(-770.676 -88.84)"/>
        <path id="Path_60" data-name="Path 60" class="cls-1" d="M805.92,80.527c.121-.139.244-.276.362-.417a33.979,33.979,0,0,1,8.1-6.931,24.484,24.484,0,0,1,6.422-2.949,25.989,25.989,0,0,1,5.635-1.14,8.431,8.431,0,0,1,6.105,1.561,10.477,10.477,0,0,1,1.065,1.041,1.277,1.277,0,0,1,.31,1.38,11.319,11.319,0,0,1-.625,1.3c-.065.121-.219.193-.389.333-.012-.144-.022-.212-.023-.281a2.919,2.919,0,0,0-2.767-3.148,30.9,30.9,0,0,0-3.886-.246,17.165,17.165,0,0,0-6.457,1.557A48.418,48.418,0,0,0,808.448,79.1c-.641.5-1.322.956-2,1.414a1.6,1.6,0,0,1-.469.138Z" transform="translate(-769.237 -66.616)"/>
        <path id="Path_61" data-name="Path 61" class="cls-1" d="M764.714,115.925a9.566,9.566,0,0,1,.746,1.129,10.449,10.449,0,0,0,4.881,4.837,16.112,16.112,0,0,0,3.139,1.161,10.3,10.3,0,0,0,2.449.231,3.584,3.584,0,0,0,2.278-1.115,3.28,3.28,0,0,0,1-2.636c.089-1.293.284-2.579.4-3.871a13.578,13.578,0,0,1,1.38-4.106c.485-1.121,1.047-2.209,1.606-3.3a12.2,12.2,0,0,1,.767-1.16l.1.057c-.032.121-.058.243-.1.361-.44,1.328-.914,2.646-1.316,3.985a28.431,28.431,0,0,0-1.05,5.911c-.111,1.369-.342,2.728-.537,4.09a1.255,1.255,0,0,1-.631.917,1.51,1.51,0,0,0-.709.909,1.686,1.686,0,0,1-.811.977,4.206,4.206,0,0,1-2.17.636,9.967,9.967,0,0,1-4.557-.754,12.678,12.678,0,0,1-3.8-2.8,37.363,37.363,0,0,1-2.439-2.887,6.236,6.236,0,0,1-.78-1.645,2.713,2.713,0,0,1-.016-.875Z" transform="translate(-757.807 -77.119)"/>
        <path id="Path_62" data-name="Path 62" class="cls-1" d="M929.538,113.472a.947.947,0,0,1,.921,1.129,12.5,12.5,0,0,1-1.6,5.174,28.175,28.175,0,0,1-2.426,4.015,7.02,7.02,0,0,0-.908,1.221,10.863,10.863,0,0,1-2.43,2.93,3.1,3.1,0,0,1-1.255.864c-.338.109-.771.251-.782.8,0,.143-.317.313-.517.416-1.313.674-2.61,1.388-3.958,1.983a26.363,26.363,0,0,1-5.9,1.814,5.6,5.6,0,0,1-3.187-.345,1.731,1.731,0,0,1-1-1.048c-.144-.395-.307-.782-.439-1.18-.077-.234-.113-.482-.167-.724l.109-.059c.18.2.349.416.543.6a2.8,2.8,0,0,0,.636.527,7.249,7.249,0,0,0,4.595.582,18.247,18.247,0,0,0,5.073-1.852c1.126-.561,2.226-1.177,3.315-1.808a4.248,4.248,0,0,0,.761-.735c.036-.035.056-.086.093-.119q.951-.848,1.9-1.694c.645-.574,1.3-1.134,1.93-1.729a11.269,11.269,0,0,0,2.857-4.719,17.244,17.244,0,0,1,.992-2.02A6.112,6.112,0,0,0,929.538,113.472Z" transform="translate(-796.841 -78.878)"/>
        <path id="Path_63" data-name="Path 63" class="cls-1" d="M847.634,103.9a.9.9,0,0,1,.961.334,7.692,7.692,0,0,0,3.918,2.1,2.116,2.116,0,0,0,.489.07,10.025,10.025,0,0,0,4.154-.457,8.652,8.652,0,0,0,3.216-2.341,8.455,8.455,0,0,0,.6-.967,1.485,1.485,0,0,1,.335-.384c.3-.227.612-.3.877.076a.49.49,0,0,0,.183.136,13.177,13.177,0,0,0,4.387,1.755,4.615,4.615,0,0,0,2.821-.444,18.522,18.522,0,0,1,2.114-1.118,3.726,3.726,0,0,0,1.335-1.132c.528-.568,1-1.19,1.477-1.8a2.657,2.657,0,0,0,.674-1.628c0-.271.167-.279.358-.127a1.093,1.093,0,0,1,.29,1.472,16.462,16.462,0,0,1-3.5,4.171,7.915,7.915,0,0,1-4.4,1.677,15.521,15.521,0,0,1-2.663-.053,4.535,4.535,0,0,1-2.623-1.223c-.768-.675-.917-.633-1.524.177a5.147,5.147,0,0,1-1.01,1.021,18.051,18.051,0,0,1-3.743,2.358,5.441,5.441,0,0,1-3.689.449,7.217,7.217,0,0,1-4.364-3.082C848.1,104.587,847.871,104.26,847.634,103.9Z" transform="translate(-780.754 -74.569)"/>
        <path id="Path_64" data-name="Path 64" class="cls-1" d="M779.225,182.214c.485.3.956.628,1.457.9a8.827,8.827,0,0,0,5.371.893,15.155,15.155,0,0,0,9.051-4.523c1.041-1.03,2.045-2.1,3.063-3.15a1.908,1.908,0,0,0,.283-.36,51.111,51.111,0,0,0,3.279-5.769c.244-.584.439-1.19.656-1.786l.112.01c-.041.442-.059.889-.13,1.327a10.738,10.738,0,0,1-1.444,3.633c-.279.484-.5,1-.761,1.495a9.354,9.354,0,0,1-.594,1.066,32.589,32.589,0,0,1-4.752,5.41,18.581,18.581,0,0,1-8.864,4.082,8.32,8.32,0,0,1-5.111-.7,3.455,3.455,0,0,1-1.674-1.667,2.253,2.253,0,0,1-.072-.835Z" transform="translate(-761.83 -94.048)"/>
        <path id="Path_65" data-name="Path 65" class="cls-1" d="M886.914,87.355c.688-.24,1.37-.472,2.048-.714a18.307,18.307,0,0,0,4.164-1.981c1.349-.913,2.613-1.952,3.919-2.93.4-.3.827-.575,1.222-.885a27.117,27.117,0,0,0,2.686-4.951,10.857,10.857,0,0,0,.376-2.128,8.762,8.762,0,0,0,0-2.319,26.454,26.454,0,0,0-.9-3.145c-.279-.87-.607-1.725-.921-2.61a.646.646,0,0,1,.672.362c.69,1.231,1.354,2.476,2.026,3.716a18.783,18.783,0,0,1,.11,2.962c-.171,1.5-.581,2.968-.809,4.461-.4,2.587-2.025,4.363-3.866,5.987a20.688,20.688,0,0,1-9.267,4.627A1.326,1.326,0,0,1,886.914,87.355Z" transform="translate(-791.599 -65.684)"/>
        <path id="Path_66" data-name="Path 66" class="cls-1" d="M818.182,120.618a8.693,8.693,0,0,1-1.848,2.836c-.6.483-1.126,1.062-1.7,1.588a9.715,9.715,0,0,1-1.15.99c-.688.458-1.425.841-2.127,1.278a8.231,8.231,0,0,1-4.5,1.165,12.051,12.051,0,0,1-5.838-1.236,17.572,17.572,0,0,1-3.2-2.463,3.187,3.187,0,0,1-.5-.861l.109-.126a3.791,3.791,0,0,1,.526.2c.522.287,1.016.63,1.554.882,1.071.5,2.173.938,3.245,1.441a9.588,9.588,0,0,0,6.958.464,13.167,13.167,0,0,0,7.325-5.016c.237-.33.513-.633.772-.948.08-.1.164-.187.247-.28Z" transform="translate(-766.863 -80.826)"/>
        <path id="Path_67" data-name="Path 67" class="cls-1" d="M832.308,123.908a9.378,9.378,0,0,1,3.472.962,3.433,3.433,0,0,1,2.023,2.683,3.3,3.3,0,0,1-.267,2.166q-.793,1.628-1.679,3.209a1.337,1.337,0,0,0-.09,1.561,1.626,1.626,0,0,1,.1.659c.047.392.084.785.136,1.176a.392.392,0,0,1-.336.473.623.623,0,0,1-.461-.209c-.193-.216-.3-.515-.5-.719a2.661,2.661,0,0,0-.8-.589c-.537-.232-.684-.513-.426-1.04.577-1.177,1.2-2.334,1.723-3.535a25.07,25.07,0,0,0,.88-2.6,1.924,1.924,0,0,0-.538-2.1,13.881,13.881,0,0,0-1.792-1.276C833.291,124.427,832.792,124.179,832.308,123.908Z" transform="translate(-776.522 -81.759)"/>
        <path id="Path_68" data-name="Path 68" class="cls-1" d="M914.819,98.714c.449-.376.9-.743,1.344-1.128a13.234,13.234,0,0,0,3.746-5.231,11.865,11.865,0,0,0,.932-2.7,6.459,6.459,0,0,0-1.193-4.913c-.2-.273-.4-.549-.628-.858a1.222,1.222,0,0,1,1.139.272,3.865,3.865,0,0,1,.885.989,7.621,7.621,0,0,1,.772,6.253,23.955,23.955,0,0,1-1.808,3.866,20.93,20.93,0,0,1-1.786,2.473,2.008,2.008,0,0,1-1.224.78c-.5.1-.969.312-1.464.418a2.307,2.307,0,0,1-.707-.072Z" transform="translate(-799.304 -70.699)"/>
        <path id="Path_69" data-name="Path 69" class="cls-1" d="M769.985,89.524a4.378,4.378,0,0,1-2.805,3.409,9.782,9.782,0,0,1-3.011,1.053,8.772,8.772,0,0,1-2.049-.02,22.933,22.933,0,0,1-2.6-.6,5.167,5.167,0,0,1-2.713-1.823c-.5-.615-.974-1.244-1.46-1.867-.031-.041-.08-.078-.088-.123a1.934,1.934,0,0,1-.014-.275c.088.025.2.023.257.081a7.113,7.113,0,0,0,2.533,1.732,16.5,16.5,0,0,0,3.53,1.314,7.308,7.308,0,0,0,3.109-.025,9.767,9.767,0,0,0,4.3-1.962C769.335,90.1,769.7,89.777,769.985,89.524Z" transform="translate(-755.246 -72.198)"/>
        <path id="Path_70" data-name="Path 70" class="cls-1" d="M831.246,95.286a9.254,9.254,0,0,1,.379-.89c.39-.709.848-1.383,1.2-2.109a20.466,20.466,0,0,0,1.788-5.7,7.507,7.507,0,0,0-.14-2.533,2.241,2.241,0,0,0-1.4-1.572,2.6,2.6,0,0,1-1.118-1,1.241,1.241,0,0,1-.083-.463,1.533,1.533,0,0,1,.45-.057,4.658,4.658,0,0,1,3.878,3.909,3.928,3.928,0,0,1-.226,2.29,35.63,35.63,0,0,1-3.177,6.591A4.171,4.171,0,0,1,831.246,95.286Z" transform="translate(-776.229 -69.902)"/>
        <path id="Path_71" data-name="Path 71" class="cls-1" d="M815,83c.536.06,1.022.1,1.5.172a3.393,3.393,0,0,1,.666.165c1.878.669,2.146.994,2.5,3.374a9.984,9.984,0,0,1-.311,3.951.97.97,0,0,1-.058.182,11.642,11.642,0,0,1-2.516,3.7c-.328.3-.447.318-.995.275a5.7,5.7,0,0,0,.523-.455,8.022,8.022,0,0,0,1.849-3.965,9.109,9.109,0,0,0-.074-3.68,6.8,6.8,0,0,0-.363-.96c-.018-.046-.064-.085-.075-.132-.3-1.309-1.385-1.8-2.432-2.339a1.2,1.2,0,0,1-.159-.093C815.038,83.191,815.04,83.156,815,83Z" transform="translate(-771.744 -70.465)"/>
        <path id="Path_72" data-name="Path 72" class="cls-1" d="M860.256,129.347c-.081-.547-.158-1.095-.243-1.641a17.25,17.25,0,0,1-.244-4.414c.19-1.834.462-3.659.712-5.487a6.011,6.011,0,0,1,1.774-3.252c.2-.211.334-.176.478.047a1.674,1.674,0,0,1,.019,1.905,11.827,11.827,0,0,0-1.619,4.377,43.385,43.385,0,0,0-.645,7.716,4.321,4.321,0,0,1-.109.755Z" transform="translate(-784.088 -79.137)"/>
        <path id="Path_73" data-name="Path 73" class="cls-1" d="M761.057,192.816c.69-.143,1.386-.261,2.067-.44.473-.125.922-.337,1.385-.5.226-.08.463-.126.689-.2a7.884,7.884,0,0,0,2.639-1.331c.68-.562,1.528-.935,2.162-1.538,1.121-1.067,2.138-2.245,3.2-3.378a.732.732,0,0,0,.08-.13l.135.028a4.127,4.127,0,0,1,.025.793,3.624,3.624,0,0,1-1.152,1.94q-1.393,1.42-2.805,2.822a6.008,6.008,0,0,1-3.048,1.648c-1.058.221-2.107.491-3.168.7a3.69,3.69,0,0,1-2.2-.281Z" transform="translate(-756.85 -98.709)"/>
        <path id="Path_74" data-name="Path 74" class="cls-1" d="M874.729,140.732c.005.148.068.327.007.437a7.167,7.167,0,0,1-4.383,3.674,8.91,8.91,0,0,0-1.036.384,2.77,2.77,0,0,1-2.154.009c-.782-.3-1.565-.607-2.367-.846a1,1,0,0,0-.77.165c-1.04.777-2.041,1.607-3.074,2.394a13.773,13.773,0,0,1-1.4.919c-.326.19-1.186-.239-1.378-.691a2.527,2.527,0,0,0,1.914-.667c.745-.5,1.549-.907,2.285-1.418a10.089,10.089,0,0,0,1.267-1.155c.125-.124.151-.4.282-.451a1.464,1.464,0,0,1,.722-.031,5.582,5.582,0,0,1,.871.259,2.822,2.822,0,0,1,.622.259,3.894,3.894,0,0,0,2.668.389,8.2,8.2,0,0,0,4.674-2.324,9.941,9.941,0,0,0,1.051-1.346Z" transform="translate(-783.663 -86.393)"/>
        <path id="Path_75" data-name="Path 75" class="cls-1" d="M837.059,107.639c.391.191.712.379,1.054.509a1.551,1.551,0,0,0,2.133-.9,7.943,7.943,0,0,0,.487-1.68,30.245,30.245,0,0,1,2.075-6.367c.1-.235.177-.476.266-.714a.372.372,0,0,1,.049-.068.8.8,0,0,1,.333.837c-.082.565-.185,1.128-.316,1.684-.449,1.916-.922,3.827-1.368,5.743a3.63,3.63,0,0,1-1.949,2.5,1.437,1.437,0,0,1-1.492-.051A2.876,2.876,0,0,1,837.059,107.639Z" transform="translate(-777.834 -74.723)"/>
        <path id="Path_76" data-name="Path 76" class="cls-1" d="M759.743,177.8a13.512,13.512,0,0,1,.505-3.069c.075-.265.133-.536.221-.8.031-.09.127-.223.192-.223a.376.376,0,0,1,.3.16,2.5,2.5,0,0,1,.227.817c.016.5-.062,1-.065,1.5q-.008,2.336.02,4.673c0,.345.092.689.128,1.035.021.2.023.413-.24.457a.421.421,0,0,1-.477-.35c-.193-.666-.388-1.336-.516-2.016C759.9,179.265,759.837,178.528,759.743,177.8Z" transform="translate(-756.488 -95.509)"/>
        <path id="Path_77" data-name="Path 77" class="cls-1" d="M768.161,159.206a2.274,2.274,0,0,1,.609-.047,4.686,4.686,0,0,1,2.652,1.344,4.049,4.049,0,0,1,.751,4.2,6.792,6.792,0,0,1-.6,1.113c-.026.046-.1.067-.161.108.019-.666.056-1.307.05-1.947a3.993,3.993,0,0,0-.81-2.377,4.956,4.956,0,0,0-.672-.641q-.851-.777-1.7-1.551A1.368,1.368,0,0,1,768.161,159.206Z" transform="translate(-758.812 -91.489)"/>
        <path id="Path_78" data-name="Path 78" class="cls-1" d="M860.062,76.384a3.4,3.4,0,0,1,3.651,3.562,4.078,4.078,0,0,1-.342,1.318c-.3.7-.664,1.373-1.006,2.056-.045.089-.1.2-.177.24a.98.98,0,0,1-.555.139c-.1-.025-.2-.325-.17-.476.164-.848.368-1.688.56-2.53.071-.31.15-.617.222-.927a1.652,1.652,0,0,0-1-2.028A2.089,2.089,0,0,1,860.062,76.384Z" transform="translate(-784.186 -68.638)"/>
        <path id="Path_79" data-name="Path 79" class="cls-1" d="M810.894,141.422c.363.319.429.544.241.945a15.213,15.213,0,0,1-1.965,3.26,16.773,16.773,0,0,0-2.687,4.205,1.03,1.03,0,0,1-1.66.324c-.214-.2-.2-.373-.011-.589.563-.641,1.065-1.344,1.676-1.934,1.8-1.736,2.85-3.989,4.248-6C810.785,141.56,810.841,141.492,810.894,141.422Z" transform="translate(-768.891 -86.595)"/>
        <path id="Path_80" data-name="Path 80" class="cls-1" d="M831.67,153.625a8.425,8.425,0,0,1-6.315,7.387,1.256,1.256,0,0,1,.166-.333,3.4,3.4,0,0,1,.535-.431,12.1,12.1,0,0,0,4.09-4.462c.353-.62.725-1.229,1.106-1.832C831.328,153.834,831.486,153.766,831.67,153.625Z" transform="translate(-774.603 -89.964)"/>
        <path id="Path_81" data-name="Path 81" class="cls-1" d="M882.8,140.614a5.135,5.135,0,0,0,3.5,1.172,5.709,5.709,0,0,0,3.554-1.046,1.382,1.382,0,0,1-.72,1.708,5.3,5.3,0,0,1-3.483.507,4.124,4.124,0,0,1-2.24-1.391c-.219-.294-.45-.58-.675-.869Z" transform="translate(-790.445 -86.372)"/>
        <path id="Path_82" data-name="Path 82" class="cls-1" d="M833.876,108.447a6.451,6.451,0,0,1-.634.3,3.257,3.257,0,0,0-1.51,1.063c-.358.447-.714.9-1.057,1.355a4.084,4.084,0,0,1-1.8,1.236.821.821,0,0,1-.56-.016,2.058,2.058,0,0,1-.475-.366,5.866,5.866,0,0,1,.517-.489c.115-.086.3-.077.413-.167.66-.535,1.335-1.057,1.951-1.64.534-.505,1-1.086,1.489-1.634A1.135,1.135,0,0,1,833.876,108.447Z" transform="translate(-775.288 -77.326)"/>
        <path id="Path_83" data-name="Path 83" class="cls-1" d="M802.492,97.872c.044-.712.065-1.33.127-1.944a4.575,4.575,0,0,0-.191-2.3,3.359,3.359,0,0,0-.589-.748,1.867,1.867,0,0,0-.379-.4,6.152,6.152,0,0,0-.83-.426c-.233-.1-.48-.172-.787-.279a1.229,1.229,0,0,1,1.209-.234,7.963,7.963,0,0,1,1.461.721,2.158,2.158,0,0,1,.927,2.3c-.114.638-.1,1.3-.211,1.936a5.6,5.6,0,0,1-.442,1.158C802.755,97.733,802.641,97.768,802.492,97.872Z" transform="translate(-767.559 -72.802)"/>
        <path id="Path_84" data-name="Path 84" class="cls-1" d="M818.015,109.548a1.848,1.848,0,0,1-.056.617c-.453.964-.9,1.934-1.423,2.86a2.371,2.371,0,0,1-1.721,1.273,1.991,1.991,0,0,1-.34.033c-.268-.006-.377-.132-.18-.351.258-.285.572-.52.824-.81q1.189-1.367,2.345-2.762a2.354,2.354,0,0,0,.244-.509c.061-.13.125-.259.188-.388Z" transform="translate(-771.521 -77.784)"/>
        <path id="Path_85" data-name="Path 85" class="cls-1" d="M885.091,110.131c.428,0,.649.182.516.518a11.9,11.9,0,0,1-.917,1.953.991.991,0,0,1-1.583.128C884.779,111.321,884.779,111.321,885.091,110.131Z" transform="translate(-790.548 -77.955)"/>
        <path id="Path_86" data-name="Path 86" class="cls-1" d="M858.632,96.7c.146-.549.279-1.1.451-1.642a.411.411,0,0,1,.347-.2.993.993,0,0,1,.567.274.7.7,0,0,1,.081.573,9.3,9.3,0,0,1-.594,1.388.557.557,0,0,1-.472.169C858.725,97.226,858.651,96.985,858.632,96.7Z" transform="translate(-783.791 -73.739)"/>
        <path id="Path_87" data-name="Path 87" class="cls-1" d="M868.671,113.953c.075-.071.118-.146.162-.148,1.236-.032,1.732-.912,2.122-1.881a.7.7,0,0,1,.6-.489.5.5,0,0,1,.373.088c.059.055.048.245,0,.343a3.108,3.108,0,0,1-1.4,1.628.724.724,0,0,0-.214.158A1.623,1.623,0,0,1,868.671,113.953Z" transform="translate(-786.563 -78.314)"/>
        <path id="Path_88" data-name="Path 88" class="cls-1" d="M788.01,165.491c.42.9-.542,2.758-1.35,3.077A5.7,5.7,0,0,1,788.01,165.491Z" transform="translate(-763.916 -93.24)"/>
        <path id="Path_89" data-name="Path 89" class="cls-1" d="M792.561,149.883a2.125,2.125,0,0,1,.109-.366c.744-1.477.766-3.268,1.9-4.6a.967.967,0,0,1,.386,1.321c-.476.838-1,1.652-1.505,2.472-.253.408-.517.809-.776,1.213Z" transform="translate(-765.549 -87.561)"/>
      </g>
    </g>
    <g id="Group_10" data-name="Group 10" transform="translate(746.806 56.932)">
      <path id="Path_90" data-name="Path 90" class="cls-2" d="M776.914,94.015s-.161.388-.48,1.049-.791,1.6-1.406,2.691c-.3.552-.653,1.135-1.024,1.753s-.786,1.255-1.218,1.913-.9,1.32-1.393,1.989-1.005,1.332-1.545,1.98l-.389.481c-.112.149-.222.305-.329.469a5.416,5.416,0,0,0-.511,1.014,3.843,3.843,0,0,0-.163,2.142,5.346,5.346,0,0,0,.842,1.922,9.626,9.626,0,0,0,1.251,1.507,19.087,19.087,0,0,0,2.291,1.928l.689.5a2.64,2.64,0,0,1,.238.184,2.593,2.593,0,0,0-.262-.145c-.174-.09-.433-.216-.755-.392a15.587,15.587,0,0,1-2.538-1.7,9.913,9.913,0,0,1-1.45-1.49,6.07,6.07,0,0,1-1.078-2.128,4.6,4.6,0,0,1,.1-2.609,5.619,5.619,0,0,1,.566-1.214c.117-.187.245-.373.382-.557l.392-.5c.516-.645,1.019-1.3,1.514-1.95s.96-1.3,1.422-1.929.887-1.248,1.305-1.828l1.158-1.65Z" transform="translate(-756.931 -70.69)"/>
      <path id="Path_91" data-name="Path 91" class="cls-2" d="M822.9,66.854s.285-.156.794-.409,1.24-.605,2.139-.981,1.963-.788,3.131-1.152c.587-.172,1.193-.362,1.824-.5s1.275-.271,1.928-.374a18.446,18.446,0,0,1,1.973-.159,10.327,10.327,0,0,1,1.938.148,6.37,6.37,0,0,1,1.758.567A4.332,4.332,0,0,1,839.719,65a1.852,1.852,0,0,1,.237.295l.207.3c.106.209.211.4.291.591s.13.375.183.542l.091.471a1.832,1.832,0,0,1,.048.381l.017.282.013.233-.064-.225a6.124,6.124,0,0,0-.2-.622l-.169-.427-.25-.472c-.1-.161-.222-.32-.342-.49a5.18,5.18,0,0,0-.455-.467l-.265-.221-.3-.191a2.073,2.073,0,0,0-.323-.177,3.256,3.256,0,0,0-.345-.159,6.823,6.823,0,0,0-1.59-.384,12.185,12.185,0,0,0-1.786-.057,17.709,17.709,0,0,0-1.864.182c-.625.087-1.251.193-1.863.328s-1.216.263-1.8.408-1.144.291-1.675.439l-1.5.419-2.253.642C823.219,66.773,822.9,66.854,822.9,66.854Z" transform="translate(-772.216 -62.203)"/>
      <path id="Path_92" data-name="Path 92" class="cls-2" d="M810.986,92.564l-.3.644c-.191.409-.458.993-.766,1.695l-.474,1.137c-.163.4-.324.835-.484,1.279s-.3.911-.444,1.381a13.525,13.525,0,0,0-.335,1.441A11,11,0,0,0,808,101.59a7.044,7.044,0,0,0,.075,1.383,5.441,5.441,0,0,0,.352,1.229c.1.177.178.362.283.523a5.094,5.094,0,0,0,.324.46c.122.134.232.272.35.391l.355.326c.237.189.457.345.638.476.384.225.606.368.606.368s-.249-.063-.69-.2a7.287,7.287,0,0,1-.761-.343l-.445-.273c-.153-.1-.294-.24-.453-.368a5.712,5.712,0,0,1-.445-.464,6.7,6.7,0,0,1-.4-.568c-.106-.211-.23-.428-.32-.661a4.69,4.69,0,0,1-.224-.73,6.738,6.738,0,0,1-.177-1.573,9.622,9.622,0,0,1,.164-1.6,14.435,14.435,0,0,1,.393-1.538c.159-.5.35-.97.546-1.421s.411-.875.621-1.272.428-.76.635-1.092a16.814,16.814,0,0,1,1.088-1.538C810.805,92.752,810.986,92.564,810.986,92.564Z" transform="translate(-767.846 -70.289)"/>
      <path id="Path_93" data-name="Path 93" class="cls-2" d="M829.687,85.64l.093.071a2.812,2.812,0,0,1,.253.211,2.954,2.954,0,0,1,.36.382,2.579,2.579,0,0,1,.363.6,2.242,2.242,0,0,1,.141.384,2.21,2.21,0,0,1,.091.428,2.392,2.392,0,0,1,.036.458,2.729,2.729,0,0,1-.015.473,6.248,6.248,0,0,1-.159.961c-.087.313-.176.634-.294.938s-.234.611-.379.893-.274.57-.428.829-.294.515-.446.746-.3.443-.442.639a11.216,11.216,0,0,1-.725.912c-.185.214-.3.329-.3.329s.043-.159.135-.425.235-.639.408-1.082c.085-.222.179-.46.285-.709l.321-.782c.12-.268.223-.549.341-.83s.224-.568.333-.853.2-.573.3-.853c.077-.282.166-.56.214-.828a2.944,2.944,0,0,0,.067-.395,2.316,2.316,0,0,0,.034-.378,2.159,2.159,0,0,0,0-.357,1.745,1.745,0,0,0-.036-.333,3.364,3.364,0,0,0-.158-.583c-.067-.172-.131-.325-.193-.448Z" transform="translate(-773.578 -68.377)"/>
      <path id="Path_94" data-name="Path 94" class="cls-2" d="M881.091,62.157l.245-.058c.158-.035.4-.091.7-.135s.677-.1,1.106-.126.915-.054,1.447-.042a15.86,15.86,0,0,1,1.715.116,14.712,14.712,0,0,1,1.9.355,12.527,12.527,0,0,1,1.968.672A11.216,11.216,0,0,1,892.063,64a9.389,9.389,0,0,1,1.621,1.462,7.859,7.859,0,0,1,.657.848,9.16,9.16,0,0,1,.524.9l.226.455q.094.235.18.465a8.382,8.382,0,0,1,.287.914,9.494,9.494,0,0,1,.288,1.713,6.131,6.131,0,0,1,.04.766c0,.243.009.473-.005.688-.031.431-.049.8-.1,1.11-.094.61-.156.953-.156.953s-.018-.353-.033-.961c-.006-.3-.056-.672-.08-1.091-.017-.209-.059-.43-.09-.662l-.048-.357c-.02-.121-.049-.243-.075-.368a11.9,11.9,0,0,0-.427-1.583,7.618,7.618,0,0,0-.333-.822q-.1-.2-.191-.414l-.227-.4a8.727,8.727,0,0,0-.513-.794c-.094-.129-.2-.249-.3-.375a3.5,3.5,0,0,0-.315-.368,8.573,8.573,0,0,0-1.484-1.3,10.28,10.28,0,0,0-1.721-1,14.6,14.6,0,0,0-1.818-.7c-.607-.189-1.207-.337-1.781-.462s-1.127-.208-1.64-.273-.985-.111-1.407-.139-.79-.046-1.094-.049C881.444,62.141,881.091,62.157,881.091,62.157Z" transform="translate(-788.281 -61.793)"/>
      <path id="Path_95" data-name="Path 95" class="cls-2" d="M869.567,91.181a3.693,3.693,0,0,1,.024.463c0,.295-.018.714-.053,1.2s-.066,1.052-.041,1.63a5.9,5.9,0,0,0,.093.866,3.916,3.916,0,0,0,.25.818,3.041,3.041,0,0,0,.439.709,3.748,3.748,0,0,0,.6.571,5.612,5.612,0,0,0,.692.432c.233.127.468.229.686.329.224.079.427.176.616.236s.351.132.49.172c.275.09.434.153.434.153s-.166.02-.462.035a4.66,4.66,0,0,1-.533,0,5.93,5.93,0,0,1-.693-.066,5.807,5.807,0,0,1-.817-.193,4.64,4.64,0,0,1-.881-.388,3.667,3.667,0,0,1-.831-.666,3.461,3.461,0,0,1-.617-.935,4.06,4.06,0,0,1-.29-1.061,4.733,4.733,0,0,1-.023-1.028,7.478,7.478,0,0,1,.35-1.712c.148-.48.3-.864.4-1.136Z" transform="translate(-784.842 -69.907)"/>
      <path id="Path_96" data-name="Path 96" class="cls-2" d="M788.868,131.506s.025.2.048.538c.012.171.028.379.035.616a5.921,5.921,0,0,1-.005.8c-.012.295-.027.615-.055.952s-.056.693-.106,1.054-.1.736-.158,1.115-.134.76-.2,1.143c-.15.763-.321,1.521-.51,2.225s-.38,1.357-.568,1.912-.358,1.012-.484,1.331-.214.5-.214.5,0-.2.028-.541.066-.828.135-1.407c.033-.29.07-.6.122-.932s.091-.678.152-1.036c.119-.716.254-1.476.4-2.233l.232-1.128c.074-.372.153-.737.235-1.089s.169-.692.235-1.012.144-.623.216-.9.141-.539.186-.774.1-.435.14-.6C788.81,131.7,788.868,131.506,788.868,131.506Z" transform="translate(-762.206 -81.041)"/>
      <path id="Path_97" data-name="Path 97" class="cls-2" d="M801.61,155.072l.172.085a3.366,3.366,0,0,1,.473.268l.33.22.358.294a4.1,4.1,0,0,1,.387.36,4.716,4.716,0,0,1,.4.431l.4.5c.125.183.243.381.37.581a5.862,5.862,0,0,1,.342.646l.165.342c.049.118.085.241.13.363.079.248.186.493.244.754s.119.526.172.795.057.545.086.82l.037.414-.008.415-.033.828-.127.809-.065.4a3.6,3.6,0,0,1-.1.386l-.216.751c-.038.122-.067.245-.11.363s-.093.232-.142.344l-.282.661a8.563,8.563,0,0,1-.6,1.161,8.27,8.27,0,0,1-.574.937c-.188.268-.361.5-.5.682-.281.374-.45.58-.45.58s.1-.251.286-.677c.094-.212.206-.471.343-.76s.249-.636.4-1c.134-.369.315-.753.431-1.184l.2-.654q.05-.167.107-.336c.033-.114.054-.232.081-.349a12.549,12.549,0,0,0,.277-1.45l.1-.749q.01-.378.021-.757l.017-.379-.027-.376c-.022-.249-.022-.5-.061-.746s-.087-.485-.124-.725-.121-.467-.177-.7c-.033-.114-.059-.229-.1-.339l-.123-.323a5.394,5.394,0,0,0-.25-.622l-.28-.573-.3-.517c-.09-.172-.215-.308-.31-.458a3.859,3.859,0,0,0-.3-.4l-.282-.344-.258-.273a4.729,4.729,0,0,0-.389-.374Z" transform="translate(-766.337 -87.547)"/>
      <path id="Path_98" data-name="Path 98" class="cls-2" d="M813.724,148.378l-.1.641c-.061.405-.143.984-.208,1.673a17.67,17.67,0,0,0-.077,2.334,9.79,9.79,0,0,0,.133,1.279,5.781,5.781,0,0,0,.336,1.247,4.883,4.883,0,0,0,.6,1.1,4.37,4.37,0,0,0,.857.846,5.369,5.369,0,0,0,.5.306c.085.045.169.094.255.135l.264.11a4.852,4.852,0,0,0,.522.181,4.535,4.535,0,0,0,.508.137,4.4,4.4,0,0,0,.479.095c.154.025.3.06.44.074.279.024.526.069.73.079.408.027.646.053.646.053s-.229.057-.638.138c-.2.041-.456.065-.747.1a6.687,6.687,0,0,1-.987.01,5.281,5.281,0,0,1-1.176-.185,4.472,4.472,0,0,1-2.384-1.5,5.172,5.172,0,0,1-.756-1.331,6.727,6.727,0,0,1-.356-1.452,7.889,7.889,0,0,1-.061-1.416,9.518,9.518,0,0,1,.133-1.3,10.562,10.562,0,0,1,.245-1.134c.089-.347.194-.658.29-.931s.194-.506.275-.7C813.609,148.584,813.724,148.378,813.724,148.378Z" transform="translate(-769.341 -85.699)"/>
      <path id="Path_99" data-name="Path 99" class="cls-2" d="M857.663,116.121l-.073.206a4.969,4.969,0,0,0-.154.589c-.057.256-.106.57-.156.93s-.088.77-.125,1.216-.06.932-.091,1.445l-.057,1.616c-.017.561-.016,1.141-.024,1.729s0,1.187.009,1.785.014,1.2.038,1.784.036,1.168.073,1.727.075,1.1.109,1.61c.051.51.094.993.153,1.436.029.221.06.434.094.633s.064.392.1.569a8.527,8.527,0,0,0,.231.909c.036.127.084.232.119.327a1.341,1.341,0,0,0,.106.235l.1.192-.147-.162a1.416,1.416,0,0,1-.163-.21,2.319,2.319,0,0,1-.193-.3,5.991,5.991,0,0,1-.408-.883,10.261,10.261,0,0,1-.382-1.2c-.121-.444-.228-.93-.322-1.448s-.181-1.064-.24-1.632-.128-1.156-.156-1.755-.057-1.207-.071-1.816,0-1.218.025-1.816.064-1.188.107-1.757.114-1.118.188-1.637.16-1.008.258-1.457.2-.857.311-1.215a7.773,7.773,0,0,1,.331-.911,3.17,3.17,0,0,1,.156-.325,1.81,1.81,0,0,1,.133-.228Z" transform="translate(-781.364 -76.793)"/>
      <path id="Path_100" data-name="Path 100" class="cls-2" d="M864.547,128.036l.005.168c0,.109.01.271.02.471s.037.444.07.72.084.586.14.922a18.85,18.85,0,0,0,.552,2.245c.121.4.277.807.439,1.213a9.544,9.544,0,0,0,.566,1.188,8.174,8.174,0,0,0,.7,1.085,5.773,5.773,0,0,0,.846.89,4.712,4.712,0,0,0,.958.607,4.249,4.249,0,0,0,.5.178l.245.072.244.042a3.132,3.132,0,0,0,.467.051,2.616,2.616,0,0,0,.431.007,7.109,7.109,0,0,0,.713-.057l.628-.109-.148.08c-.1.047-.238.133-.429.213a4.53,4.53,0,0,1-.714.237,3.853,3.853,0,0,1-.988.127,3.823,3.823,0,0,1-1.2-.17,4.368,4.368,0,0,1-1.218-.6,5.643,5.643,0,0,1-1.058-.977,7.578,7.578,0,0,1-.821-1.21,10.521,10.521,0,0,1-.589-1.315,10.253,10.253,0,0,1-.39-1.327,10.609,10.609,0,0,1-.215-1.268,9.823,9.823,0,0,1-.07-1.146,8.414,8.414,0,0,1,.041-.968,6.646,6.646,0,0,1,.106-.738,4.235,4.235,0,0,1,.114-.464Z" transform="translate(-783.628 -80.083)"/>
      <path id="Path_101" data-name="Path 101" class="cls-2" d="M887.74,109.623s.07.254.174.7a5.787,5.787,0,0,1,.13.823c.016.161.046.337.053.518l.013.571a11.181,11.181,0,0,1-.049,1.287c-.05.453-.1.935-.2,1.422s-.193.993-.34,1.493c-.127.506-.3,1-.455,1.509-.18.5-.351.995-.552,1.471-.186.484-.405.943-.6,1.392s-.414.873-.616,1.275-.4.777-.589,1.121c-.371.691-.706,1.252-.942,1.645s-.382.612-.382.612.07-.254.208-.691.347-1.058.615-1.792c.134-.368.274-.767.436-1.182s.315-.861.492-1.312c.339-.909.693-1.878,1.029-2.848.161-.487.339-.97.472-1.455l.216-.717.19-.7c.069-.23.108-.461.165-.685s.113-.443.15-.658c.067-.431.171-.839.208-1.22s.1-.73.116-1.04.057-.586.046-.816C887.727,109.887,887.74,109.623,887.74,109.623Z" transform="translate(-788.914 -74.999)"/>
      <path id="Path_102" data-name="Path 102" class="cls-2" d="M900.342,100.452s.3-.077.822-.2c.263-.056.581-.134.942-.221s.768-.18,1.208-.3c.22-.059.45-.114.685-.182l.723-.215c.25-.067.5-.159.751-.251s.521-.165.772-.284l.78-.33c.252-.132.506-.266.767-.394s.5-.3.748-.447a6.143,6.143,0,0,0,.712-.507l.352-.261c.114-.091.217-.195.326-.292l.322-.293.161-.146.145-.161q.285-.326.578-.635c.177-.222.343-.45.513-.67.082-.111.171-.217.246-.332s.144-.231.218-.343l.431-.662.7-1.278c.188-.412.371-.787.535-1.12s.274-.639.384-.883c.214-.492.345-.772.345-.772s-.054.3-.164.83c-.062.262-.112.589-.221.949s-.229.769-.375,1.212c-.161.437-.358.9-.571,1.4l-.386.734c-.065.126-.133.253-.2.379s-.161.244-.242.368c-.167.244-.332.5-.509.746q-.291.356-.6.711l-.155.177-.172.164-.345.326c-.117.108-.228.223-.35.324l-.38.292a6.907,6.907,0,0,1-.788.539c-.276.156-.536.34-.82.47s-.562.267-.841.392l-.847.3a8.214,8.214,0,0,1-.83.245c-.273.073-.54.143-.8.189l-.764.149c-.248.038-.489.065-.719.1-.459.069-.884.1-1.259.122s-.7.043-.97.048C900.65,100.454,900.342,100.452,900.342,100.452Z" transform="translate(-793.596 -69.382)"/>
      <path id="Path_103" data-name="Path 103" class="cls-2" d="M908.19,129.624s.032.182.105.486a8.212,8.212,0,0,0,.4,1.2,5.716,5.716,0,0,0,.376.72,3.908,3.908,0,0,0,.544.671,3.359,3.359,0,0,0,.724.514,3.641,3.641,0,0,0,.877.295c.156.029.315.052.474.069.163,0,.321.029.486.021a9.5,9.5,0,0,0,.968-.056c.317-.043.628-.08.921-.142s.571-.123.833-.172l.708-.169c.213-.049.4-.1.551-.138.307-.077.489-.112.489-.112s-.146.11-.413.286c-.135.085-.293.2-.49.3s-.413.236-.664.349a7.645,7.645,0,0,1-.824.342c-.151.051-.3.109-.466.159s-.331.086-.5.13a6.6,6.6,0,0,1-1.092.148,5.726,5.726,0,0,1-.579,0c-.195-.017-.392-.042-.588-.077a3.992,3.992,0,0,1-1.131-.419,3.537,3.537,0,0,1-.9-.754,3.767,3.767,0,0,1-.555-.917,4.033,4.033,0,0,1-.268-.89,4.782,4.782,0,0,1-.061-1.348A3.071,3.071,0,0,1,908.19,129.624Z" transform="translate(-795.734 -80.521)"/>
      <path id="Path_104" data-name="Path 104" class="cls-2" d="M755.111,170.668l-.177.648c-.115.41-.277,1-.459,1.7-.09.35-.179.733-.274,1.134s-.172.83-.258,1.27a19.267,19.267,0,0,0-.308,2.774,12.507,12.507,0,0,0,.18,2.754,10.854,10.854,0,0,0,.316,1.228c.058.195.133.376.2.554s.147.345.219.507.16.309.233.455.155.277.232.4c.147.253.3.456.42.632.254.338.407.531.407.531l-.136-.11c-.087-.075-.226-.174-.382-.323a6.5,6.5,0,0,1-.54-.562,6.289,6.289,0,0,1-.608-.816,6.786,6.786,0,0,1-.568-1.072,8.13,8.13,0,0,1-.437-1.285,9.66,9.66,0,0,1-.24-1.43,12.183,12.183,0,0,1-.043-1.491,14.8,14.8,0,0,1,.138-1.478c.062-.485.172-.953.273-1.4s.235-.88.364-1.282.266-.777.4-1.119c.269-.685.534-1.237.727-1.619S755.111,170.668,755.111,170.668Z" transform="translate(-752.884 -91.853)"/>
    </g>
  </g>
</svg>
